<svg width="25" height="25" viewBox="0 0 25 25" fill="none" xmlns="http://www.w3.org/2000/svg">
<path d="M15.5002 19.5C15.5002 21.1569 14.1571 22.5 12.5002 22.5C10.8434 22.5 9.50025 21.1569 9.50025 19.5M14.2968 6.73856C14.7322 6.28864 15.0002 5.67562 15.0002 5C15.0002 3.61929 13.881 2.5 12.5002 2.5C11.1195 2.5 10.0002 3.61929 10.0002 5C10.0002 5.67562 10.2683 6.28864 10.7037 6.73856M3.04707 8.82296C3.03272 7.37161 3.8152 6.01631 5.07928 5.30306M21.9534 8.82296C21.9678 7.37161 21.1853 6.01631 19.9212 5.30306M18.5002 11.7C18.5002 10.3209 17.8681 8.99823 16.7429 8.02304C15.6177 7.04786 14.0915 6.5 12.5002 6.5C10.9089 6.5 9.38283 7.04786 8.25761 8.02304C7.13239 8.99823 6.50025 10.3209 6.50025 11.7C6.50025 13.9818 5.93438 15.6506 5.22831 16.8447C4.42359 18.2056 4.02122 18.8861 4.03711 19.0486C4.05529 19.2346 4.08876 19.2933 4.23959 19.4036C4.37142 19.5 5.03376 19.5 6.35844 19.5H18.6421C19.9667 19.5 20.6291 19.5 20.7609 19.4036C20.9117 19.2933 20.9452 19.2346 20.9634 19.0486C20.9793 18.8861 20.5769 18.2056 19.7722 16.8447C19.0661 15.6506 18.5002 13.9818 18.5002 11.7Z" stroke="#F97066" stroke-width="2" stroke-linecap="round" stroke-linejoin="round"/>
</svg>
