<svg width="345" height="154" viewBox="0 0 345 154" fill="none" xmlns="http://www.w3.org/2000/svg">
<path fill-rule="evenodd" clip-rule="evenodd" d="M15 0C6.71573 0 0 6.71573 0 15V136C0 144.284 6.71574 151 15 151H301.411C293.328 145.625 288 136.435 288 126C288 109.431 301.431 96 318 96C328.435 96 337.625 101.328 343 109.411V15C343 6.71573 336.284 0 328 0H15Z" fill="#175A63"/>
<mask id="mask0_10117_18503" style="mask-type:alpha" maskUnits="userSpaceOnUse" x="0" y="0" width="343" height="151">
<rect width="343" height="151" rx="15" fill="#175A63"/>
</mask>
<g mask="url(#mask0_10117_18503)">
<mask id="mask1_10117_18503" style="mask-type:alpha" maskUnits="userSpaceOnUse" x="0" y="0" width="343" height="151">
<rect x="343" y="151" width="343" height="151" rx="15" transform="rotate(-180 343 151)" fill="#15B79E"/>
</mask>
<g mask="url(#mask1_10117_18503)">
<g opacity="0.1">
<path fill-rule="evenodd" clip-rule="evenodd" d="M-5.63781 -85.5307C12.0851 -74.1302 36.5623 -70.3004 51.336 -54.336C63.47 -41.2251 51.9208 -23.5028 50.9045 -8.94113C50.0956 2.62953 55.9944 13.4221 61.6767 23.7475C66.7757 33.0204 72.4182 42.0558 77.2268 51.4501C80.3328 57.5268 86.9292 68.8011 82.7349 74.714C78.7206 80.3754 67.0387 80.2482 59.9705 80.3884C50.7564 80.5722 41.5028 80.0142 32.2841 80.0124C16.7389 80.003 2.84599 83.1548 -11.5399 87.7754C-27.91 93.0343 -44.1321 98.6581 -60.2063 104.647C-72.0582 109.044 -83.9096 113.526 -96.0829 117.234C-103.72 119.559 -119.281 125.552 -126.535 120.805C-129.997 118.54 -131.619 113.104 -132.895 109.319C-135.054 102.914 -136.465 96.3107 -137.775 89.757C-140.216 77.5502 -142.079 65.2784 -144.092 53.0267C-146.704 37.1252 -149.476 21.7522 -154.266 6.11547C-159.232 -10.0603 -164.864 -26.1038 -170.207 -42.2074C-173.829 -53.1151 -178.426 -64.6624 -177.105 -76.0454C-175.439 -90.2946 -162.712 -94.4405 -154.828 -104.73C-148.043 -113.58 -125.352 -97.5114 -118.051 -94.3558C-110.668 -91.1521 -102.705 -89.6133 -95.4312 -86.2337C-86.3529 -82.0136 -77.9867 -76.4764 -69.5091 -71.2873C-59.1415 -64.9376 -49.4226 -58.6929 -38.3284 -65.7231C-32.0181 -69.7265 -27.0979 -75.3246 -21.5202 -80.1024C-17.9053 -83.1967 -11.2368 -89.1328 -5.63781 -85.5307Z" stroke="white"/>
<path fill-rule="evenodd" clip-rule="evenodd" d="M-5.82201 -79.0855C9.57814 -70.2491 32.5487 -63.2534 43.7839 -47.9616C53.3859 -34.8949 44.5533 -19.8623 44.2839 -5.96551C44.0567 5.50336 50.6466 15.0565 56.7549 24.9253C61.6547 32.8423 66.6951 40.7117 71.0468 48.8941C74.2537 54.9241 79.9841 64.6856 76.977 70.7922C74.2739 76.2821 62.6419 76.3646 56.6665 76.4829C47.9452 76.653 39.1661 75.9211 30.4329 75.3876C15.0911 74.4525 0.713833 74.3805 -13.9523 78.1887C-28.6822 82.0144 -42.0678 88.0141 -55.7737 93.9599C-66.4967 98.6109 -77.3288 103.129 -88.4976 106.896C-96.8152 109.704 -108.123 114.173 -117.397 111.823C-124.735 109.965 -126.689 93.3514 -127.826 88.0795C-130.159 77.2333 -131.783 66.3029 -133.358 55.3875C-135.274 42.083 -135.997 29.1876 -139.742 16.0741C-146.433 -7.37645 -158.679 -31.4003 -158.458 -55.7046C-158.324 -70.3636 -151.933 -82.5268 -142.594 -92.7217C-138.896 -96.7587 -131.243 -93.2312 -126.826 -91.1134C-119.486 -87.5961 -112.631 -83.2101 -105.423 -79.4652C-98.6747 -75.9602 -91.6372 -73.4593 -84.6214 -70.5499C-77.5141 -67.6008 -70.8965 -63.6997 -63.9818 -60.4108C-59.6901 -58.3676 -54.767 -55.8958 -49.8629 -56.1774C-44.7869 -56.4677 -40.3917 -59.5914 -36.7054 -62.4247C-29.8008 -67.7577 -16.6906 -85.3206 -5.82201 -79.0855Z" stroke="white"/>
<path fill-rule="evenodd" clip-rule="evenodd" d="M-3.92178 -69.3687C10.7524 -61.9696 29.2122 -52.9961 36.8152 -38.3477C43.0331 -26.3721 36.8132 -13.7805 37.4263 -1.42631C37.9352 8.84852 44.8051 17.1683 50.4627 25.8614C55.1025 32.9928 59.7609 40.1576 63.6461 47.6454C66.5925 53.3242 70.713 60.8575 68.6787 66.8917C66.9385 72.0503 56.9174 72.5235 51.9547 72.7258C43.4996 73.0669 34.9409 72.238 26.4795 71.4409C12.6354 70.1349 -1.56494 67.962 -15.2478 70.1054C-28.5328 72.1952 -39.657 77.7735 -51.4756 83.1332C-60.5291 87.2377 -69.7035 91.1989 -79.2257 94.4069C-86.5349 96.8717 -95.3961 100.057 -103.349 98.5868C-110.212 97.3249 -112.11 87.5907 -113.652 82.3325C-116.195 73.652 -117.851 64.7929 -119.583 55.9907C-121.451 46.4927 -122.405 36.7138 -124.555 27.2952C-129.086 7.4826 -136.707 -11.0059 -136.237 -31.4008C-135.934 -44.6103 -132.71 -60.5133 -123.684 -70.3669C-117.192 -77.4521 -98.6723 -64.3914 -92.0835 -61.1067C-81.3055 -55.7424 -69.1836 -51.162 -57.3117 -48.7938C-47.1334 -46.7713 -39.0614 -52.6774 -32.0988 -58.4178C-27.7348 -62.0124 -23.7188 -66.1502 -18.8629 -69.2048C-13.2398 -72.7394 -10.0726 -72.4702 -3.92178 -69.3687Z" stroke="white"/>
<path fill-rule="evenodd" clip-rule="evenodd" d="M-1.56421 -59.9167C10.5459 -53.2691 23.8738 -44.0945 29.1711 -31.49C33.8091 -20.4468 28.9562 -9.49972 30.694 1.73553C32.0482 10.5029 39.1536 18.3158 44.0492 25.8008C50.0361 34.9511 62.2527 50.3173 58.924 61.1486C55.8257 71.223 30.2526 66.9135 22.3206 66.0339C9.76528 64.6425 -3.09302 61.9115 -15.6997 61.9663C-26.554 62.0148 -35.4293 65.847 -44.9022 69.8795C-56.9897 75.0146 -73.5247 84.0186 -87.7148 81.6275C-98.2893 79.8471 -101.502 60.6441 -104.068 53.1099C-106.746 45.2347 -111.244 37.6534 -113.621 29.7829C-117.371 17.3632 -116.32 1.97608 -115.012 -10.4356C-113.744 -22.5042 -111.094 -37.5104 -103.383 -47.0321C-98.3168 -53.2909 -86.2608 -47.1087 -79.7887 -44.8604C-70.5765 -41.6795 -61.6799 -39.6783 -52.1938 -41.7773C-42.5377 -43.9134 -34.9439 -48.9488 -27.4054 -54.5374C-23.5438 -57.4115 -19.5447 -60.9598 -14.8238 -62.6891C-9.64598 -64.6252 -6.21975 -62.4708 -1.56421 -59.9167Z" stroke="white"/>
<path fill-rule="evenodd" clip-rule="evenodd" d="M0.177306 -49.1512C9.99113 -42.5499 18.9852 -33.5634 22.0997 -22.574C24.6941 -13.4208 20.9623 -4.27368 23.8574 4.76208C26.148 11.9175 31.8986 18.6074 35.9518 25.0728C40.9234 32.9897 50.3806 45.7978 47.1428 55.1147C43.9763 64.2037 24.9676 61.469 17.2578 60.6361C5.95688 59.4093 -5.23012 57.0612 -16.5373 55.8872C-25.4046 54.9613 -32.565 56.2774 -40.7384 58.9344C-50.3358 62.0515 -62.3404 67.3218 -72.8682 65.3968C-80.4829 63.9926 -85.2585 51.9649 -88.7295 46.4432C-91.0629 42.7372 -93.5419 39.117 -96.7008 35.9337C-99.1605 33.4546 -101.788 31.6245 -103.034 28.3504C-106.168 20.111 -100.192 10.5849 -97.6393 3.12322C-94.2472 -6.78543 -90.8534 -17.4353 -85.0427 -26.302C-81.4774 -31.7557 -74.0704 -30.8248 -68.0266 -31.2729C-60.883 -31.801 -53.8968 -34.6276 -47.2272 -36.7189C-38.418 -39.474 -30.9193 -43.8605 -23.1908 -48.4176C-19.704 -50.4726 -15.858 -53.052 -11.5945 -53.606C-7.1617 -54.1972 -3.36517 -51.5328 0.177306 -49.1512Z" stroke="white"/>
<path fill-rule="evenodd" clip-rule="evenodd" d="M0.951746 -38.5461C8.44938 -32.0163 13.9356 -23.5519 15.6929 -14.2465C17.047 -7.10864 15.4093 0.0867816 18.2877 7.00649C20.9718 13.4555 25.0566 19.4214 28.4971 25.5613C32.1323 32.0553 38.589 42.4053 35.4064 49.6943C31.9751 57.5491 18.4618 56.3741 10.9743 55.7203C1.51296 54.893 -7.79815 52.8532 -17.2 51.4871C-24.2272 50.495 -31.3222 50.4718 -38.2485 51.4183C-45.535 52.3961 -53.6801 54.8765 -61.1549 52.8529C-67.7729 51.0573 -71.7454 43.5452 -76.6957 39.3947C-81.9842 34.9596 -88.8356 32.0172 -91.2092 25.3402C-96.1042 11.5702 -80.9422 -4.74339 -73.5717 -14.9322C-66.309 -24.9918 -54.0577 -28.8173 -42.0704 -32.8961C-34.1541 -35.5915 -26.6718 -38.9049 -18.9218 -41.9115C-11.0179 -44.9746 -5.64675 -44.2925 0.951746 -38.5461Z" stroke="white"/>
<path fill-rule="evenodd" clip-rule="evenodd" d="M0.973244 -29.1569C10.6623 -18.1446 9.85277 -4.40392 13.7788 8.41348C16.9951 18.9035 29.2051 33.2822 24.1626 43.9963C18.437 56.1599 -6.72248 48.9961 -17.3676 47.472C-29.1751 45.7839 -41.7776 48.3789 -53.2917 45.288C-59.3368 43.668 -62.8163 39.2956 -67.0106 35.2304C-71.6175 30.7681 -76.5183 26.4582 -78.3626 20.3997C-81.9911 8.47553 -72.5894 -3.85262 -66.0919 -12.9131C-59.3668 -22.2928 -47.4398 -26.6169 -36.1362 -30.1383C-24.1571 -33.8791 -8.96567 -40.4461 0.973244 -29.1569Z" stroke="white"/>
<path fill-rule="evenodd" clip-rule="evenodd" d="M0.372946 -21.8987C6.3234 -12.7918 7.82284 -0.969713 9.96014 9.2351C11.7376 17.7483 18.772 30.3115 13.9341 38.2743C8.25134 47.6352 -7.50075 45.1272 -17.3037 43.7806C-26.9406 42.4628 -38.1013 42.3757 -47.2865 39.0875C-56.8563 35.6642 -63.8199 23.2116 -65.7935 14.4382C-67.9933 4.65379 -63.5049 -5.97819 -57.3745 -13.5861C-50.9632 -21.5569 -40.0412 -25.5207 -29.9082 -28.0493C-19.0756 -30.7531 -6.52934 -32.4777 0.372946 -21.8987Z" stroke="white"/>
<path fill-rule="evenodd" clip-rule="evenodd" d="M-1.59249 -16.0999C3.03679 -8.10193 4.75652 1.57091 6.16161 10.3696C7.24761 17.1608 9.78035 27.8003 5.54883 33.7439C0.894371 40.2829 -9.11818 41.7913 -17.0986 40.3161C-24.9688 38.8598 -34.4561 36.5311 -41.2916 32.5526C-56.1752 23.8863 -59.5904 -3.36843 -48.8545 -14.9931C-38.6752 -26.0145 -10.8125 -32.0399 -1.59249 -16.0999Z" stroke="white"/>
<path fill-rule="evenodd" clip-rule="evenodd" d="M-4.11345 -11.2052C1.72848 -0.533461 6.63127 19.2148 -0.732942 29.5853C-9.18739 41.4879 -26.084 34.6551 -35.577 26.0609C-45.2711 17.2968 -50.8315 -6.60148 -40.6057 -15.9127C-30.6258 -25.0008 -11.0447 -23.8577 -4.11345 -11.2052Z" stroke="white"/>
<path fill-rule="evenodd" clip-rule="evenodd" d="M-6.10658 -5.59174C-1.24726 3.38589 2.26452 17.9851 -3.87597 26.6953C-11.1949 37.0721 -23.448 28.6397 -29.4261 21.2097C-35.6301 13.4916 -41.353 -6.14142 -32.4802 -13.5896C-23.8442 -20.8267 -10.7643 -14.1958 -6.10658 -5.59174Z" stroke="white"/>
<path fill-rule="evenodd" clip-rule="evenodd" d="M-8.25346 -0.97638C-4.63153 5.22497 -2.41763 16.1916 -6.73364 22.349C-12.0136 29.8722 -20.7682 21.9081 -24.0807 16.8556C-28.024 10.8462 -32.125 -3.23716 -25.7412 -8.52474C-19.4563 -13.7309 -11.2356 -6.08864 -8.25346 -0.97638Z" stroke="white"/>
</g>
</g>
<rect x="303.54" y="-55.5405" width="134.585" height="296.52" transform="rotate(30 303.54 -55.5405)" fill="#449DA1"/>
<rect x="304.032" y="-55.2561" width="134.016" height="296.52" transform="rotate(30 304.032 -55.2561)" fill="#104755"/>
<path fill-rule="evenodd" clip-rule="evenodd" d="M343 109.411V136C343 144.284 336.284 151 328 151H301.411C293.328 145.625 288 136.435 288 126C288 109.431 301.431 96 318 96C328.435 96 337.625 101.328 343 109.411Z" fill="white"/>
</g>
<path d="M17.517 49V31.5455H21.2074V38.7472H28.6989V31.5455H32.3807V49H28.6989V41.7898H21.2074V49H17.517ZM51.4631 40.2727C51.4631 42.1761 51.1023 43.7955 50.3807 45.1307C49.6648 46.4659 48.6875 47.4858 47.4489 48.1903C46.2159 48.8892 44.8295 49.2386 43.2898 49.2386C41.7386 49.2386 40.3466 48.8864 39.1136 48.1818C37.8807 47.4773 36.9063 46.4574 36.1903 45.1222C35.4744 43.7869 35.1165 42.1705 35.1165 40.2727C35.1165 38.3693 35.4744 36.75 36.1903 35.4148C36.9063 34.0795 37.8807 33.0625 39.1136 32.3636C40.3466 31.6591 41.7386 31.3068 43.2898 31.3068C44.8295 31.3068 46.2159 31.6591 47.4489 32.3636C48.6875 33.0625 49.6648 34.0795 50.3807 35.4148C51.1023 36.75 51.4631 38.3693 51.4631 40.2727ZM47.7216 40.2727C47.7216 39.0398 47.5369 38 47.1676 37.1534C46.804 36.3068 46.2898 35.6648 45.625 35.2273C44.9602 34.7898 44.1818 34.571 43.2898 34.571C42.3977 34.571 41.6193 34.7898 40.9545 35.2273C40.2898 35.6648 39.7727 36.3068 39.4034 37.1534C39.0398 38 38.858 39.0398 38.858 40.2727C38.858 41.5057 39.0398 42.5455 39.4034 43.392C39.7727 44.2386 40.2898 44.8807 40.9545 45.3182C41.6193 45.7557 42.3977 45.9744 43.2898 45.9744C44.1818 45.9744 44.9602 45.7557 45.625 45.3182C46.2898 44.8807 46.804 44.2386 47.1676 43.392C47.5369 42.5455 47.7216 41.5057 47.7216 40.2727ZM54.1967 31.5455H58.7479L63.5547 43.2727H63.7592L68.5661 31.5455H73.1172V49H69.5376V37.6392H69.3928L64.8757 48.9148H62.4382L57.9212 37.5966H57.7763V49H54.1967V31.5455ZM76.1577 49V31.5455H87.919V34.5881H79.848V38.7472H87.3139V41.7898H79.848V45.9574H87.9531V49H76.1577ZM102.595 49H96.4077V31.5455H102.646C104.402 31.5455 105.913 31.8949 107.18 32.5938C108.447 33.2869 109.422 34.2841 110.104 35.5852C110.791 36.8864 111.135 38.4432 111.135 40.2557C111.135 42.0739 110.791 43.6364 110.104 44.9432C109.422 46.25 108.442 47.2528 107.163 47.9517C105.891 48.6506 104.368 49 102.595 49ZM100.098 45.8381H102.442C103.533 45.8381 104.45 45.6449 105.195 45.2585C105.945 44.8665 106.507 44.2614 106.882 43.4432C107.263 42.6193 107.453 41.5568 107.453 40.2557C107.453 38.9659 107.263 37.9119 106.882 37.0938C106.507 36.2756 105.947 35.6733 105.203 35.2869C104.459 34.9006 103.541 34.7074 102.45 34.7074H100.098V45.8381ZM113.869 49V31.5455H125.63V34.5881H117.559V38.7472H125.025V41.7898H117.559V45.9574H125.664V49H113.869ZM143.964 37.6562H140.232C140.163 37.1733 140.024 36.7443 139.814 36.3693C139.604 35.9886 139.334 35.6648 139.004 35.3977C138.675 35.1307 138.294 34.9261 137.862 34.7841C137.436 34.642 136.973 34.571 136.473 34.571C135.57 34.571 134.783 34.7955 134.112 35.2443C133.442 35.6875 132.922 36.3352 132.553 37.1875C132.183 38.0341 131.999 39.0625 131.999 40.2727C131.999 41.517 132.183 42.5625 132.553 43.4091C132.928 44.2557 133.45 44.8949 134.121 45.3267C134.791 45.7585 135.567 45.9744 136.447 45.9744C136.942 45.9744 137.399 45.9091 137.82 45.7784C138.246 45.6477 138.624 45.4574 138.953 45.2074C139.283 44.9517 139.555 44.642 139.771 44.2784C139.993 43.9148 140.146 43.5 140.232 43.0341L143.964 43.0511C143.868 43.8523 143.626 44.625 143.24 45.3693C142.859 46.108 142.345 46.7699 141.697 47.3551C141.055 47.9347 140.288 48.3949 139.396 48.7358C138.51 49.071 137.507 49.2386 136.388 49.2386C134.831 49.2386 133.439 48.8864 132.212 48.1818C130.99 47.4773 130.024 46.4574 129.314 45.1222C128.609 43.7869 128.257 42.1705 128.257 40.2727C128.257 38.3693 128.615 36.75 129.331 35.4148C130.047 34.0795 131.018 33.0625 132.246 32.3636C133.473 31.6591 134.854 31.3068 136.388 31.3068C137.399 31.3068 138.337 31.4489 139.2 31.733C140.07 32.017 140.839 32.4318 141.51 32.9773C142.18 33.517 142.726 34.179 143.146 34.9631C143.572 35.7472 143.845 36.6449 143.964 37.6562ZM162.651 40.2727C162.651 42.1761 162.29 43.7955 161.568 45.1307C160.852 46.4659 159.875 47.4858 158.636 48.1903C157.403 48.8892 156.017 49.2386 154.477 49.2386C152.926 49.2386 151.534 48.8864 150.301 48.1818C149.068 47.4773 148.094 46.4574 147.378 45.1222C146.662 43.7869 146.304 42.1705 146.304 40.2727C146.304 38.3693 146.662 36.75 147.378 35.4148C148.094 34.0795 149.068 33.0625 150.301 32.3636C151.534 31.6591 152.926 31.3068 154.477 31.3068C156.017 31.3068 157.403 31.6591 158.636 32.3636C159.875 33.0625 160.852 34.0795 161.568 35.4148C162.29 36.75 162.651 38.3693 162.651 40.2727ZM158.909 40.2727C158.909 39.0398 158.724 38 158.355 37.1534C157.991 36.3068 157.477 35.6648 156.812 35.2273C156.148 34.7898 155.369 34.571 154.477 34.571C153.585 34.571 152.807 34.7898 152.142 35.2273C151.477 35.6648 150.96 36.3068 150.591 37.1534C150.227 38 150.045 39.0398 150.045 40.2727C150.045 41.5057 150.227 42.5455 150.591 43.392C150.96 44.2386 151.477 44.8807 152.142 45.3182C152.807 45.7557 153.585 45.9744 154.477 45.9744C155.369 45.9744 156.148 45.7557 156.812 45.3182C157.477 44.8807 157.991 44.2386 158.355 43.392C158.724 42.5455 158.909 41.5057 158.909 40.2727ZM165.384 49V31.5455H172.271C173.589 31.5455 174.714 31.7812 175.646 32.2528C176.583 32.7187 177.296 33.3807 177.785 34.2386C178.279 35.0909 178.526 36.0937 178.526 37.2472C178.526 38.4062 178.276 39.4034 177.776 40.2386C177.276 41.0682 176.552 41.7045 175.603 42.1477C174.66 42.5909 173.518 42.8125 172.177 42.8125H167.566V39.8466H171.58C172.285 39.8466 172.87 39.75 173.336 39.5568C173.802 39.3636 174.148 39.0739 174.376 38.6875C174.609 38.3011 174.725 37.821 174.725 37.2472C174.725 36.6676 174.609 36.179 174.376 35.7812C174.148 35.3835 173.799 35.0824 173.327 34.8778C172.862 34.6676 172.273 34.5625 171.563 34.5625H169.075V49H165.384ZM174.81 41.0568L179.148 49H175.075L170.83 41.0568H174.81Z" fill="white"/>
<path d="M26.0611 70.0895C25.9545 69.7443 25.8075 69.4354 25.62 69.1626C25.4368 68.8857 25.2152 68.6491 24.9553 68.4531C24.6996 68.2571 24.4055 68.1101 24.0732 68.0121C23.7408 67.9098 23.3786 67.8587 22.9865 67.8587C22.2834 67.8587 21.657 68.0355 21.1072 68.3892C20.5575 68.7429 20.125 69.2628 19.8097 69.9489C19.4986 70.6307 19.343 71.4616 19.343 72.4418C19.343 73.4304 19.4986 74.2678 19.8097 74.9538C20.1207 75.6399 20.5533 76.1619 21.1072 76.5199C21.6612 76.8736 22.3047 77.0504 23.0376 77.0504C23.7024 77.0504 24.2777 76.9226 24.7635 76.6669C25.2536 76.4112 25.6307 76.049 25.8949 75.5803C26.1591 75.1072 26.2912 74.5533 26.2912 73.9183L26.8281 74.0014H23.2741V72.1477H28.5859V73.7202C28.5859 74.8409 28.3473 75.8104 27.87 76.6286C27.3928 77.4467 26.7365 78.0774 25.9013 78.5206C25.0661 78.9595 24.1072 79.179 23.0249 79.179C21.8189 79.179 20.7599 78.9084 19.848 78.3672C18.9403 77.8217 18.2308 77.0483 17.7195 76.0469C17.2124 75.0412 16.9588 73.848 16.9588 72.4673C16.9588 71.4105 17.108 70.4666 17.4062 69.6357C17.7088 68.8047 18.1307 68.0994 18.6719 67.5199C19.2131 66.9361 19.848 66.4929 20.5767 66.1903C21.3054 65.8835 22.098 65.7301 22.9545 65.7301C23.679 65.7301 24.3544 65.8366 24.9808 66.0497C25.6072 66.2585 26.1634 66.5568 26.6491 66.9446C27.1392 67.3324 27.5419 67.7926 27.8572 68.3253C28.1726 68.858 28.3793 69.446 28.4773 70.0895H26.0611ZM35.1234 79.1918C34.139 79.1918 33.2889 78.9872 32.573 78.5781C31.8613 78.1648 31.3137 77.581 30.9302 76.8267C30.5467 76.0682 30.3549 75.1754 30.3549 74.1484C30.3549 73.1385 30.5467 72.2521 30.9302 71.4893C31.318 70.7223 31.8592 70.1257 32.5538 69.6996C33.2484 69.2692 34.0645 69.054 35.002 69.054C35.6071 69.054 36.1781 69.152 36.715 69.348C37.2562 69.5398 37.7335 69.8381 38.1468 70.2429C38.5645 70.6477 38.8926 71.1634 39.1312 71.7898C39.3699 72.4119 39.4892 73.1534 39.4892 74.0142V74.7237H31.4416V73.1641H37.2711C37.2669 72.7209 37.171 72.3267 36.9835 71.9815C36.796 71.6321 36.5339 71.3572 36.1973 71.157C35.8649 70.9567 35.4771 70.8565 35.0339 70.8565C34.5609 70.8565 34.1454 70.9716 33.7875 71.2017C33.4295 71.4276 33.1504 71.7259 32.9501 72.0966C32.7541 72.4631 32.6539 72.8658 32.6497 73.3047V74.6662C32.6497 75.2372 32.7541 75.7273 32.9629 76.1364C33.1717 76.5412 33.4636 76.8523 33.8386 77.0696C34.2136 77.2827 34.6525 77.3892 35.1554 77.3892C35.492 77.3892 35.7967 77.3423 36.0694 77.2486C36.3422 77.1506 36.5787 77.0078 36.7789 76.8203C36.9792 76.6328 37.1305 76.4006 37.2328 76.1236L39.3933 76.3665C39.2569 76.9375 38.997 77.4361 38.6135 77.8622C38.2342 78.2841 37.7484 78.6122 37.1561 78.8466C36.5637 79.0767 35.8862 79.1918 35.1234 79.1918ZM46.3494 69.1818V70.9716H40.7053V69.1818H46.3494ZM42.0987 66.8295H44.4126V76.0469C44.4126 76.358 44.4595 76.5966 44.5533 76.7628C44.6513 76.9247 44.7791 77.0355 44.9368 77.0952C45.0945 77.1548 45.2692 77.1847 45.4609 77.1847C45.6058 77.1847 45.7379 77.174 45.8572 77.1527C45.9808 77.1314 46.0746 77.1122 46.1385 77.0952L46.5284 78.9041C46.4048 78.9467 46.228 78.9936 45.9979 79.0447C45.772 79.0959 45.495 79.1257 45.1669 79.1342C44.5874 79.1513 44.0653 79.0639 43.6009 78.8722C43.1364 78.6761 42.7678 78.3736 42.495 77.9645C42.2266 77.5554 42.0945 77.044 42.0987 76.4304V66.8295ZM59.9661 69.5078C59.9064 68.9496 59.655 68.5149 59.2118 68.2038C58.7729 67.8928 58.2019 67.7372 57.4988 67.7372C57.0044 67.7372 56.5804 67.8118 56.2267 67.9609C55.873 68.1101 55.6025 68.3125 55.415 68.5682C55.2275 68.8239 55.1316 69.1158 55.1273 69.4439C55.1273 69.7166 55.1891 69.9531 55.3127 70.1534C55.4405 70.3537 55.6131 70.5241 55.8304 70.6648C56.0478 70.8011 56.2885 70.9162 56.5527 71.0099C56.8169 71.1037 57.0833 71.1825 57.3517 71.2464L58.579 71.5533C59.0733 71.6683 59.5485 71.8239 60.0044 72.0199C60.4647 72.2159 60.8759 72.4631 61.2381 72.7614C61.6046 73.0597 61.8944 73.4197 62.1074 73.8416C62.3205 74.2635 62.427 74.7578 62.427 75.3246C62.427 76.0916 62.231 76.767 61.839 77.3509C61.4469 77.9304 60.8801 78.3842 60.1387 78.7124C59.4015 79.0362 58.5087 79.1982 57.4604 79.1982C56.4419 79.1982 55.5577 79.0405 54.8077 78.7251C54.062 78.4098 53.4782 77.9496 53.0563 77.3445C52.6387 76.7393 52.4128 76.0021 52.3787 75.1328H54.7118C54.7459 75.5888 54.8865 75.968 55.1337 76.2706C55.3809 76.5732 55.7026 76.799 56.0989 76.9482C56.4995 77.0973 56.9469 77.1719 57.4412 77.1719C57.9569 77.1719 58.4086 77.0952 58.7963 76.9418C59.1884 76.7841 59.4952 76.5668 59.7168 76.2898C59.9384 76.0085 60.0513 75.6804 60.0556 75.3054C60.0513 74.9645 59.9512 74.6832 59.7551 74.4616C59.5591 74.2358 59.2843 74.0483 58.9306 73.8991C58.5811 73.7457 58.1721 73.6094 57.7033 73.4901L56.214 73.1065C55.1358 72.8295 54.2836 72.4098 53.6571 71.8473C53.035 71.2805 52.7239 70.5284 52.7239 69.5909C52.7239 68.8196 52.9327 68.1442 53.3503 67.5646C53.7722 66.9851 54.3453 66.5355 55.0698 66.2159C55.7942 65.892 56.6145 65.7301 57.5307 65.7301C58.4597 65.7301 59.2736 65.892 59.9725 66.2159C60.6756 66.5355 61.2275 66.9808 61.628 67.5518C62.0286 68.1186 62.2353 68.7706 62.248 69.5078H59.9661ZM64.4389 82.6818V69.1818H66.7145V70.8054H66.8487C66.968 70.5668 67.1364 70.3132 67.3537 70.0447C67.571 69.772 67.8651 69.5398 68.2358 69.348C68.6065 69.152 69.0795 69.054 69.6548 69.054C70.4134 69.054 71.0973 69.2479 71.7067 69.6357C72.3203 70.0192 72.8061 70.5881 73.1641 71.3423C73.5263 72.0923 73.7074 73.0128 73.7074 74.1037C73.7074 75.1818 73.5305 76.098 73.1768 76.8523C72.8232 77.6065 72.3416 78.1818 71.7322 78.5781C71.1229 78.9744 70.4325 79.1726 69.6612 79.1726C69.0987 79.1726 68.6321 79.0788 68.2614 78.8913C67.8906 78.7038 67.5923 78.478 67.3665 78.2138C67.1449 77.9453 66.9723 77.6918 66.8487 77.4531H66.7528V82.6818H64.4389ZM66.7081 74.0909C66.7081 74.7259 66.7976 75.282 66.9766 75.7592C67.1598 76.2365 67.4219 76.6094 67.7628 76.8778C68.108 77.142 68.5256 77.2741 69.0156 77.2741C69.527 77.2741 69.9553 77.1378 70.3004 76.8651C70.6456 76.5881 70.9055 76.2109 71.0803 75.7337C71.2592 75.2521 71.3487 74.7045 71.3487 74.0909C71.3487 73.4815 71.2614 72.9403 71.0866 72.4673C70.9119 71.9943 70.652 71.6236 70.3068 71.3551C69.9616 71.0866 69.5312 70.9524 69.0156 70.9524C68.5213 70.9524 68.1016 71.0824 67.7564 71.3423C67.4112 71.6023 67.1491 71.9666 66.9702 72.4354C66.7955 72.9041 66.7081 73.456 66.7081 74.0909ZM80.0355 79.1918C79.0511 79.1918 78.201 78.9872 77.4851 78.5781C76.7734 78.1648 76.2259 77.581 75.8423 76.8267C75.4588 76.0682 75.267 75.1754 75.267 74.1484C75.267 73.1385 75.4588 72.2521 75.8423 71.4893C76.2301 70.7223 76.7713 70.1257 77.4659 69.6996C78.1605 69.2692 78.9766 69.054 79.9141 69.054C80.5192 69.054 81.0902 69.152 81.6271 69.348C82.1683 69.5398 82.6456 69.8381 83.0589 70.2429C83.4766 70.6477 83.8047 71.1634 84.0433 71.7898C84.282 72.4119 84.4013 73.1534 84.4013 74.0142V74.7237H76.3537V73.1641H82.1832C82.179 72.7209 82.0831 72.3267 81.8956 71.9815C81.7081 71.6321 81.446 71.3572 81.1094 71.157C80.777 70.9567 80.3892 70.8565 79.946 70.8565C79.473 70.8565 79.0575 70.9716 78.6996 71.2017C78.3416 71.4276 78.0625 71.7259 77.8622 72.0966C77.6662 72.4631 77.5661 72.8658 77.5618 73.3047V74.6662C77.5618 75.2372 77.6662 75.7273 77.875 76.1364C78.0838 76.5412 78.3757 76.8523 78.7507 77.0696C79.1257 77.2827 79.5646 77.3892 80.0675 77.3892C80.4041 77.3892 80.7088 77.3423 80.9815 77.2486C81.2543 77.1506 81.4908 77.0078 81.6911 76.8203C81.8913 76.6328 82.0426 76.4006 82.1449 76.1236L84.3054 76.3665C84.169 76.9375 83.9091 77.4361 83.5256 77.8622C83.1463 78.2841 82.6605 78.6122 82.0682 78.8466C81.4759 79.0767 80.7983 79.1918 80.0355 79.1918ZM90.6415 79.1918C89.6614 79.1918 88.8198 78.9766 88.1167 78.5462C87.4178 78.1158 86.8787 77.5213 86.4995 76.7628C86.1245 76 85.937 75.1222 85.937 74.1293C85.937 73.1321 86.1287 72.2521 86.5123 71.4893C86.8958 70.7223 87.437 70.1257 88.1358 69.6996C88.839 69.2692 89.6699 69.054 90.6287 69.054C91.4256 69.054 92.1309 69.201 92.7445 69.495C93.3624 69.7848 93.8546 70.196 94.2211 70.7287C94.5875 71.2571 94.7963 71.875 94.8475 72.5824H92.6358C92.5463 72.1094 92.3333 71.7152 91.9966 71.3999C91.6642 71.0803 91.2189 70.9205 90.6607 70.9205C90.1877 70.9205 89.7722 71.0483 89.4142 71.304C89.0563 71.5554 88.7772 71.9176 88.5769 72.3906C88.3809 72.8636 88.2828 73.4304 88.2828 74.0909C88.2828 74.7599 88.3809 75.3352 88.5769 75.8168C88.7729 76.294 89.0478 76.6626 89.4015 76.9226C89.7594 77.1783 90.1792 77.3061 90.6607 77.3061C91.0016 77.3061 91.3063 77.2422 91.5748 77.1143C91.8475 76.9822 92.0755 76.7926 92.2587 76.5455C92.4419 76.2983 92.5676 75.9979 92.6358 75.6442H94.8475C94.7921 76.3388 94.5875 76.9545 94.2338 77.4915C93.8801 78.0241 93.3986 78.4418 92.7892 78.7443C92.1799 79.0426 91.464 79.1918 90.6415 79.1918ZM96.7475 79V69.1818H99.0614V79H96.7475ZM97.9109 67.7884C97.5444 67.7884 97.229 67.6669 96.9648 67.424C96.7006 67.1768 96.5685 66.8807 96.5685 66.5355C96.5685 66.1861 96.7006 65.8899 96.9648 65.647C97.229 65.3999 97.5444 65.2763 97.9109 65.2763C98.2816 65.2763 98.5969 65.3999 98.8569 65.647C99.1211 65.8899 99.2532 66.1861 99.2532 66.5355C99.2532 66.8807 99.1211 67.1768 98.8569 67.424C98.5969 67.6669 98.2816 67.7884 97.9109 67.7884ZM104.266 79.1982C103.644 79.1982 103.084 79.0874 102.585 78.8658C102.091 78.6399 101.699 78.3075 101.409 77.8686C101.123 77.4297 100.981 76.8885 100.981 76.245C100.981 75.6911 101.083 75.233 101.287 74.8707C101.492 74.5085 101.771 74.2188 102.125 74.0014C102.479 73.7841 102.877 73.62 103.32 73.5092C103.768 73.3942 104.23 73.3111 104.707 73.2599C105.282 73.2003 105.749 73.147 106.107 73.1001C106.465 73.049 106.725 72.9723 106.887 72.87C107.053 72.7635 107.136 72.5994 107.136 72.3778V72.3395C107.136 71.858 106.993 71.4851 106.708 71.2209C106.422 70.9567 106.011 70.8246 105.474 70.8246C104.907 70.8246 104.458 70.9482 104.126 71.1953C103.797 71.4425 103.576 71.7344 103.461 72.071L101.3 71.7642C101.471 71.1676 101.752 70.669 102.144 70.2685C102.536 69.8636 103.015 69.5611 103.582 69.3608C104.149 69.1562 104.775 69.054 105.461 69.054C105.934 69.054 106.405 69.1094 106.874 69.2202C107.343 69.331 107.771 69.5142 108.159 69.7699C108.547 70.0213 108.858 70.3643 109.092 70.799C109.331 71.2337 109.45 71.777 109.45 72.429V79H107.226V77.6513H107.149C107.008 77.924 106.81 78.1797 106.555 78.4183C106.303 78.6527 105.986 78.8423 105.602 78.9872C105.223 79.1278 104.778 79.1982 104.266 79.1982ZM104.867 77.4979C105.331 77.4979 105.734 77.4062 106.075 77.223C106.416 77.0355 106.678 76.7884 106.861 76.4815C107.049 76.1747 107.143 75.8402 107.143 75.478V74.321C107.07 74.3807 106.947 74.4361 106.772 74.4872C106.601 74.5384 106.41 74.5831 106.197 74.6214C105.983 74.6598 105.773 74.6939 105.564 74.7237C105.355 74.7536 105.174 74.7791 105.02 74.8004C104.675 74.8473 104.366 74.924 104.094 75.0305C103.821 75.1371 103.606 75.2862 103.448 75.478C103.29 75.6655 103.211 75.9084 103.211 76.2067C103.211 76.6328 103.367 76.9545 103.678 77.1719C103.989 77.3892 104.385 77.4979 104.867 77.4979ZM114.091 65.9091V79H111.777V65.9091H114.091ZM132.735 72.4545C132.735 73.8651 132.471 75.0732 131.942 76.0788C131.418 77.0803 130.702 77.8473 129.794 78.38C128.891 78.9126 127.866 79.179 126.72 79.179C125.574 79.179 124.547 78.9126 123.639 78.38C122.735 77.843 122.02 77.0739 121.491 76.0724C120.967 75.0668 120.705 73.8608 120.705 72.4545C120.705 71.044 120.967 69.8381 121.491 68.8366C122.02 67.831 122.735 67.0618 123.639 66.5291C124.547 65.9964 125.574 65.7301 126.72 65.7301C127.866 65.7301 128.891 65.9964 129.794 66.5291C130.702 67.0618 131.418 67.831 131.942 68.8366C132.471 69.8381 132.735 71.044 132.735 72.4545ZM130.35 72.4545C130.35 71.4616 130.195 70.6243 129.884 69.9425C129.577 69.2564 129.151 68.7386 128.605 68.3892C128.06 68.0355 127.431 67.8587 126.72 67.8587C126.008 67.8587 125.38 68.0355 124.834 68.3892C124.289 68.7386 123.86 69.2564 123.549 69.9425C123.243 70.6243 123.089 71.4616 123.089 72.4545C123.089 73.4474 123.243 74.2869 123.549 74.973C123.86 75.6548 124.289 76.1726 124.834 76.5263C125.38 76.8757 126.008 77.0504 126.72 77.0504C127.431 77.0504 128.06 76.8757 128.605 76.5263C129.151 76.1726 129.577 75.6548 129.884 74.973C130.195 74.2869 130.35 73.4474 130.35 72.4545ZM139.847 69.1818V70.9716H134.044V69.1818H139.847ZM135.494 79V68.255C135.494 67.5945 135.631 67.0447 135.904 66.6058C136.181 66.1669 136.551 65.8388 137.016 65.6214C137.48 65.4041 137.996 65.2955 138.563 65.2955C138.963 65.2955 139.319 65.3274 139.63 65.3913C139.941 65.4553 140.171 65.5128 140.32 65.5639L139.86 67.3537C139.762 67.3239 139.639 67.294 139.49 67.2642C139.34 67.2301 139.174 67.2131 138.991 67.2131C138.561 67.2131 138.256 67.3175 138.077 67.5263C137.902 67.7308 137.815 68.0249 137.815 68.4084V79H135.494ZM146.633 69.1818V70.9716H140.829V69.1818H146.633ZM142.28 79V68.255C142.28 67.5945 142.416 67.0447 142.689 66.6058C142.966 66.1669 143.336 65.8388 143.801 65.6214C144.265 65.4041 144.781 65.2955 145.348 65.2955C145.748 65.2955 146.104 65.3274 146.415 65.3913C146.726 65.4553 146.956 65.5128 147.106 65.5639L146.645 67.3537C146.547 67.3239 146.424 67.294 146.275 67.2642C146.126 67.2301 145.959 67.2131 145.776 67.2131C145.346 67.2131 145.041 67.3175 144.862 67.5263C144.687 67.7308 144.6 68.0249 144.6 68.4084V79H142.28ZM152.422 79.1918C151.438 79.1918 150.588 78.9872 149.872 78.5781C149.16 78.1648 148.613 77.581 148.229 76.8267C147.846 76.0682 147.654 75.1754 147.654 74.1484C147.654 73.1385 147.846 72.2521 148.229 71.4893C148.617 70.7223 149.158 70.1257 149.853 69.6996C150.547 69.2692 151.363 69.054 152.301 69.054C152.906 69.054 153.477 69.152 154.014 69.348C154.555 69.5398 155.032 69.8381 155.446 70.2429C155.863 70.6477 156.191 71.1634 156.43 71.7898C156.669 72.4119 156.788 73.1534 156.788 74.0142V74.7237H148.74V73.1641H154.57C154.566 72.7209 154.47 72.3267 154.282 71.9815C154.095 71.6321 153.833 71.3572 153.496 71.157C153.164 70.9567 152.776 70.8565 152.333 70.8565C151.86 70.8565 151.444 70.9716 151.086 71.2017C150.728 71.4276 150.449 71.7259 150.249 72.0966C150.053 72.4631 149.953 72.8658 149.949 73.3047V74.6662C149.949 75.2372 150.053 75.7273 150.262 76.1364C150.471 76.5412 150.762 76.8523 151.137 77.0696C151.512 77.2827 151.951 77.3892 152.454 77.3892C152.791 77.3892 153.096 77.3423 153.368 77.2486C153.641 77.1506 153.877 77.0078 154.078 76.8203C154.278 76.6328 154.429 76.4006 154.532 76.1236L156.692 76.3665C156.556 76.9375 156.296 77.4361 155.912 77.8622C155.533 78.2841 155.047 78.6122 154.455 78.8466C153.863 79.0767 153.185 79.1918 152.422 79.1918ZM158.746 79V69.1818H160.989V70.8182H161.091C161.27 70.2514 161.577 69.8146 162.012 69.5078C162.451 69.1967 162.952 69.0412 163.514 69.0412C163.642 69.0412 163.785 69.0476 163.942 69.0604C164.104 69.0689 164.238 69.0838 164.345 69.1051V71.2337C164.247 71.1996 164.091 71.1697 163.878 71.1442C163.67 71.1143 163.467 71.0994 163.271 71.0994C162.849 71.0994 162.47 71.1911 162.133 71.3743C161.801 71.5533 161.539 71.8026 161.347 72.1222C161.155 72.4418 161.059 72.8104 161.059 73.228V79H158.746Z" fill="white"/>
<path d="M104.784 96.2727H105.841V102.051C105.841 102.648 105.7 103.18 105.419 103.649C105.141 104.115 104.747 104.483 104.239 104.753C103.73 105.02 103.134 105.153 102.449 105.153C101.764 105.153 101.168 105.02 100.659 104.753C100.151 104.483 99.7557 104.115 99.4744 103.649C99.196 103.18 99.0568 102.648 99.0568 102.051V96.2727H100.114V101.966C100.114 102.392 100.207 102.771 100.395 103.104C100.582 103.433 100.849 103.693 101.196 103.884C101.545 104.071 101.963 104.165 102.449 104.165C102.935 104.165 103.352 104.071 103.702 103.884C104.051 103.693 104.318 103.433 104.503 103.104C104.69 102.771 104.784 102.392 104.784 101.966V96.2727ZM107.815 107.455V98.4545H108.787V99.4943H108.906C108.98 99.3807 109.082 99.2358 109.213 99.0597C109.346 98.8807 109.537 98.7216 109.784 98.5824C110.034 98.4403 110.372 98.3693 110.798 98.3693C111.349 98.3693 111.835 98.5071 112.255 98.7827C112.676 99.0582 113.004 99.4489 113.24 99.9545C113.475 100.46 113.593 101.057 113.593 101.744C113.593 102.438 113.475 103.038 113.24 103.547C113.004 104.053 112.677 104.445 112.26 104.723C111.842 104.999 111.36 105.136 110.815 105.136C110.395 105.136 110.058 105.067 109.805 104.928C109.552 104.786 109.358 104.625 109.221 104.446C109.085 104.264 108.98 104.114 108.906 103.994H108.821V107.455H107.815ZM108.804 101.727C108.804 102.222 108.876 102.658 109.021 103.036C109.166 103.411 109.377 103.705 109.656 103.918C109.934 104.128 110.275 104.233 110.679 104.233C111.099 104.233 111.45 104.122 111.731 103.901C112.015 103.676 112.228 103.375 112.37 102.997C112.515 102.616 112.588 102.193 112.588 101.727C112.588 101.267 112.517 100.852 112.375 100.483C112.235 100.111 112.024 99.8168 111.74 99.6009C111.458 99.3821 111.105 99.2727 110.679 99.2727C110.27 99.2727 109.926 99.3764 109.647 99.5838C109.369 99.7884 109.159 100.075 109.017 100.445C108.875 100.811 108.804 101.239 108.804 101.727ZM121.349 98.4545V99.3068H117.957V98.4545H121.349ZM118.946 96.8864H119.951V103.125C119.951 103.409 119.993 103.622 120.075 103.764C120.16 103.903 120.268 103.997 120.399 104.045C120.532 104.091 120.673 104.114 120.821 104.114C120.931 104.114 121.022 104.108 121.093 104.097C121.164 104.082 121.221 104.071 121.264 104.062L121.468 104.966C121.4 104.991 121.305 105.017 121.183 105.043C121.061 105.071 120.906 105.085 120.718 105.085C120.434 105.085 120.156 105.024 119.883 104.902C119.613 104.78 119.389 104.594 119.21 104.344C119.034 104.094 118.946 103.778 118.946 103.398V96.8864ZM125.451 105.136C124.86 105.136 124.341 104.996 123.895 104.714C123.452 104.433 123.105 104.04 122.855 103.534C122.608 103.028 122.485 102.437 122.485 101.761C122.485 101.08 122.608 100.484 122.855 99.9759C123.105 99.4673 123.452 99.0724 123.895 98.7912C124.341 98.5099 124.86 98.3693 125.451 98.3693C126.042 98.3693 126.559 98.5099 127.002 98.7912C127.448 99.0724 127.794 99.4673 128.042 99.9759C128.292 100.484 128.417 101.08 128.417 101.761C128.417 102.437 128.292 103.028 128.042 103.534C127.794 104.04 127.448 104.433 127.002 104.714C126.559 104.996 126.042 105.136 125.451 105.136ZM125.451 104.233C125.9 104.233 126.269 104.118 126.559 103.888C126.848 103.658 127.063 103.355 127.202 102.98C127.341 102.605 127.411 102.199 127.411 101.761C127.411 101.324 127.341 100.916 127.202 100.538C127.063 100.161 126.848 99.8551 126.559 99.6222C126.269 99.3892 125.9 99.2727 125.451 99.2727C125.002 99.2727 124.632 99.3892 124.343 99.6222C124.053 99.8551 123.838 100.161 123.699 100.538C123.56 100.916 123.49 101.324 123.49 101.761C123.49 102.199 123.56 102.605 123.699 102.98C123.838 103.355 124.053 103.658 124.343 103.888C124.632 104.118 125.002 104.233 125.451 104.233Z" fill="white"/>
<path d="M106.42 116.636C106.42 117.557 106.254 118.352 105.922 119.023C105.589 119.693 105.134 120.21 104.554 120.574C103.974 120.938 103.313 121.119 102.568 121.119C101.824 121.119 101.162 120.938 100.582 120.574C100.003 120.21 99.5469 119.693 99.2145 119.023C98.8821 118.352 98.7159 117.557 98.7159 116.636C98.7159 115.716 98.8821 114.92 99.2145 114.25C99.5469 113.58 100.003 113.062 100.582 112.699C101.162 112.335 101.824 112.153 102.568 112.153C103.313 112.153 103.974 112.335 104.554 112.699C105.134 113.062 105.589 113.58 105.922 114.25C106.254 114.92 106.42 115.716 106.42 116.636ZM105.398 116.636C105.398 115.881 105.271 115.243 105.018 114.723C104.768 114.203 104.429 113.81 104 113.543C103.574 113.276 103.097 113.142 102.568 113.142C102.04 113.142 101.561 113.276 101.132 113.543C100.706 113.81 100.366 114.203 100.114 114.723C99.8636 115.243 99.7386 115.881 99.7386 116.636C99.7386 117.392 99.8636 118.03 100.114 118.55C100.366 119.07 100.706 119.463 101.132 119.73C101.561 119.997 102.04 120.131 102.568 120.131C103.097 120.131 103.574 119.997 104 119.73C104.429 119.463 104.768 119.07 105.018 118.55C105.271 118.03 105.398 117.392 105.398 116.636ZM108.197 121V112.273H113.43V113.21H109.254V116.159H113.038V117.097H109.254V121H108.197ZM115.24 121V112.273H120.473V113.21H116.297V116.159H120.081V117.097H116.297V121H115.24Z" fill="white"/>
<path d="M18.1222 122V118.011L27.4418 109.382C28.2344 108.615 28.8991 107.925 29.4361 107.311C29.9815 106.697 30.3949 106.097 30.6761 105.509C30.9574 104.912 31.098 104.268 31.098 103.578C31.098 102.811 30.9233 102.151 30.5739 101.597C30.2244 101.034 29.7472 100.604 29.142 100.305C28.5369 99.9986 27.8509 99.8452 27.0838 99.8452C26.2827 99.8452 25.5838 100.007 24.9872 100.331C24.3906 100.655 23.9304 101.119 23.6065 101.724C23.2827 102.33 23.1207 103.05 23.1207 103.885H17.8665C17.8665 102.172 18.2543 100.685 19.0298 99.4233C19.8054 98.1619 20.892 97.1861 22.2898 96.4957C23.6875 95.8054 25.2983 95.4602 27.1222 95.4602C28.9972 95.4602 30.6293 95.7926 32.0185 96.4574C33.4162 97.1136 34.5028 98.0256 35.2784 99.1932C36.054 100.361 36.4418 101.699 36.4418 103.207C36.4418 104.196 36.2457 105.172 35.8537 106.135C35.4702 107.098 34.7841 108.168 33.7955 109.344C32.8068 110.511 31.4134 111.913 29.6151 113.55L25.7926 117.295V117.474H36.7869V122H18.1222ZM51.0636 122.575C48.8647 122.567 46.9727 122.026 45.3874 120.952C43.8107 119.878 42.5962 118.322 41.744 116.286C40.9002 114.249 40.4826 111.798 40.4911 108.935C40.4911 106.08 40.913 103.646 41.7567 101.635C42.609 99.6236 43.8235 98.0937 45.4002 97.0455C46.9854 95.9886 48.8732 95.4602 51.0636 95.4602C53.2539 95.4602 55.1374 95.9886 56.7141 97.0455C58.2994 98.1023 59.5181 99.6364 60.3704 101.648C61.2227 103.651 61.6445 106.08 61.636 108.935C61.636 111.807 61.2099 114.261 60.3576 116.298C59.5139 118.335 58.3036 119.891 56.7269 120.964C55.1502 122.038 53.2624 122.575 51.0636 122.575ZM51.0636 117.986C52.5636 117.986 53.761 117.232 54.6559 115.723C55.5508 114.214 55.994 111.952 55.9854 108.935C55.9854 106.949 55.7809 105.295 55.3718 103.974C54.9712 102.653 54.4002 101.661 53.6587 100.996C52.9258 100.331 52.0607 99.9986 51.0636 99.9986C49.5721 99.9986 48.3789 100.744 47.484 102.236C46.5891 103.727 46.1374 105.96 46.1289 108.935C46.1289 110.946 46.3292 112.625 46.7298 113.972C47.1388 115.31 47.7141 116.315 48.4556 116.989C49.1971 117.653 50.0664 117.986 51.0636 117.986ZM79.9141 117.091V115.71C79.9141 114.662 80.1357 113.699 80.5788 112.821C81.0305 111.935 81.6825 111.227 82.5348 110.699C83.3956 110.162 84.4439 109.893 85.6797 109.893C86.9325 109.893 87.9851 110.158 88.8374 110.686C89.6982 111.214 90.3459 111.922 90.7805 112.808C91.2237 113.686 91.4453 114.653 91.4453 115.71V117.091C91.4453 118.139 91.2237 119.107 90.7805 119.993C90.3374 120.871 89.6854 121.574 88.8246 122.102C87.9638 122.639 86.9155 122.908 85.6797 122.908C84.4268 122.908 83.3743 122.639 82.522 122.102C81.6697 121.574 81.022 120.871 80.5788 119.993C80.1357 119.107 79.9141 118.139 79.9141 117.091ZM83.6342 115.71V117.091C83.6342 117.696 83.7791 118.267 84.0689 118.804C84.3672 119.341 84.9041 119.609 85.6797 119.609C86.4553 119.609 86.9837 119.345 87.2649 118.817C87.5547 118.288 87.6996 117.713 87.6996 117.091V115.71C87.6996 115.088 87.5632 114.509 87.2905 113.972C87.0178 113.435 86.4808 113.166 85.6797 113.166C84.9126 113.166 84.38 113.435 84.0817 113.972C83.7834 114.509 83.6342 115.088 83.6342 115.71ZM66.478 102.108V100.727C66.478 99.6705 66.7038 98.7031 67.1555 97.8253C67.6072 96.9389 68.2592 96.2315 69.1115 95.7031C69.9723 95.1747 71.0121 94.9105 72.2308 94.9105C73.4922 94.9105 74.549 95.1747 75.4013 95.7031C76.2536 96.2315 76.9013 96.9389 77.3445 97.8253C77.7876 98.7031 78.0092 99.6705 78.0092 100.727V102.108C78.0092 103.165 77.7834 104.132 77.3317 105.01C76.8885 105.888 76.2365 106.591 75.3757 107.119C74.5234 107.639 73.4751 107.899 72.2308 107.899C70.9865 107.899 69.9339 107.635 69.0732 107.107C68.2209 106.57 67.5732 105.866 67.13 104.997C66.6953 104.119 66.478 103.156 66.478 102.108ZM70.2237 100.727V102.108C70.2237 102.73 70.3686 103.305 70.6584 103.834C70.9567 104.362 71.4808 104.626 72.2308 104.626C73.0149 104.626 73.5476 104.362 73.8288 103.834C74.1186 103.305 74.2635 102.73 74.2635 102.108V100.727C74.2635 100.105 74.1271 99.5256 73.8544 98.9886C73.5817 98.4517 73.0405 98.1832 72.2308 98.1832C71.4723 98.1832 70.9482 98.456 70.6584 99.0014C70.3686 99.5469 70.2237 100.122 70.2237 100.727ZM68.1655 122L86.1655 95.8182H89.5149L71.5149 122H68.1655Z" fill="white"/>
<g filter="url(#filter0_dd_10117_18503)">
<circle cx="318" cy="126" r="23.5" fill="white" stroke="#D0D5DD"/>
<mask id="mask2_10117_18503" style="mask-type:alpha" maskUnits="userSpaceOnUse" x="306" y="114" width="24" height="24">
<rect x="330" y="138" width="24" height="24" transform="rotate(-180 330 138)" fill="#D9D9D9"/>
</mask>
<g mask="url(#mask2_10117_18503)">
<path d="M323.2 125L320.3 122.1C320.117 121.917 320.025 121.683 320.025 121.4C320.025 121.117 320.117 120.883 320.3 120.7C320.483 120.517 320.717 120.425 321 120.425C321.283 120.425 321.517 120.517 321.7 120.7L326.3 125.3C326.4 125.4 326.471 125.508 326.512 125.625C326.554 125.742 326.575 125.867 326.575 126C326.575 126.133 326.554 126.258 326.512 126.375C326.471 126.492 326.4 126.6 326.3 126.7L321.7 131.3C321.517 131.483 321.283 131.575 321 131.575C320.717 131.575 320.483 131.483 320.3 131.3C320.117 131.117 320.025 130.883 320.025 130.6C320.025 130.317 320.117 130.083 320.3 129.9L323.2 127L310 127C309.717 127 309.479 126.904 309.287 126.712C309.096 126.521 309 126.283 309 126C309 125.717 309.096 125.479 309.287 125.287C309.479 125.096 309.717 125 310 125L323.2 125Z" fill="#667085"/>
</g>
</g>
<defs>
<filter id="filter0_dd_10117_18503" x="291" y="100" width="54" height="54" filterUnits="userSpaceOnUse" color-interpolation-filters="sRGB">
<feFlood flood-opacity="0" result="BackgroundImageFix"/>
<feColorMatrix in="SourceAlpha" type="matrix" values="0 0 0 0 0 0 0 0 0 0 0 0 0 0 0 0 0 0 127 0" result="hardAlpha"/>
<feOffset dy="1"/>
<feGaussianBlur stdDeviation="1"/>
<feComposite in2="hardAlpha" operator="out"/>
<feColorMatrix type="matrix" values="0 0 0 0 0.0627451 0 0 0 0 0.0941176 0 0 0 0 0.156863 0 0 0 0.06 0"/>
<feBlend mode="normal" in2="BackgroundImageFix" result="effect1_dropShadow_10117_18503"/>
<feColorMatrix in="SourceAlpha" type="matrix" values="0 0 0 0 0 0 0 0 0 0 0 0 0 0 0 0 0 0 127 0" result="hardAlpha"/>
<feOffset dy="1"/>
<feGaussianBlur stdDeviation="1.5"/>
<feComposite in2="hardAlpha" operator="out"/>
<feColorMatrix type="matrix" values="0 0 0 0 0.0627451 0 0 0 0 0.0941176 0 0 0 0 0.156863 0 0 0 0.1 0"/>
<feBlend mode="normal" in2="effect1_dropShadow_10117_18503" result="effect2_dropShadow_10117_18503"/>
<feBlend mode="normal" in="SourceGraphic" in2="effect2_dropShadow_10117_18503" result="shape"/>
</filter>
</defs>
</svg>
