<svg width="25" height="25" viewBox="0 0 25 25" fill="none" xmlns="http://www.w3.org/2000/svg">
<path d="M22.5 10.5H2.5M11.5 14.5H6.5M2.5 8.7L2.5 16.3C2.5 17.4201 2.5 17.9802 2.71799 18.408C2.90973 18.7843 3.21569 19.0903 3.59202 19.282C4.01984 19.5 4.57989 19.5 5.7 19.5L19.3 19.5C20.4201 19.5 20.9802 19.5 21.408 19.282C21.7843 19.0903 22.0903 18.7843 22.282 18.408C22.5 17.9802 22.5 17.4201 22.5 16.3V8.7C22.5 7.5799 22.5 7.01984 22.282 6.59202C22.0903 6.2157 21.7843 5.90974 21.408 5.71799C20.9802 5.5 20.4201 5.5 19.3 5.5L5.7 5.5C4.5799 5.5 4.01984 5.5 3.59202 5.71799C3.2157 5.90973 2.90973 6.21569 2.71799 6.59202C2.5 7.01984 2.5 7.57989 2.5 8.7Z" stroke="#667085" stroke-width="2" stroke-linecap="round" stroke-linejoin="round"/>
</svg>
