<svg width="25" height="25" viewBox="0 0 25 25" fill="none" xmlns="http://www.w3.org/2000/svg">
<mask id="mask0_10107_18380" style="mask-type:alpha" maskUnits="userSpaceOnUse" x="0" y="0" width="25" height="25">
<rect x="0.5" y="0.5" width="24" height="24" fill="#D9D9D9"/>
</mask>
<g mask="url(#mask0_10107_18380)">
<path d="M4.5 24.5C3.95 24.5 3.47917 24.3042 3.0875 23.9125C2.69583 23.5208 2.5 23.05 2.5 22.5C2.5 21.95 2.69583 21.4792 3.0875 21.0875C3.47917 20.6958 3.95 20.5 4.5 20.5H20.5C21.05 20.5 21.5208 20.6958 21.9125 21.0875C22.3042 21.4792 22.5 21.95 22.5 22.5C22.5 23.05 22.3042 23.5208 21.9125 23.9125C21.5208 24.3042 21.05 24.5 20.5 24.5H4.5ZM6.5 16.5H7.9L15.7 8.725L14.275 7.3L6.5 15.1V16.5ZM4.5 17.5V14.675C4.5 14.5417 4.525 14.4125 4.575 14.2875C4.625 14.1625 4.7 14.05 4.8 13.95L15.7 3.075C15.8833 2.89167 16.0958 2.75 16.3375 2.65C16.5792 2.55 16.8333 2.5 17.1 2.5C17.3667 2.5 17.625 2.55 17.875 2.65C18.125 2.75 18.35 2.9 18.55 3.1L19.925 4.5C20.125 4.68333 20.2708 4.9 20.3625 5.15C20.4542 5.4 20.5 5.65833 20.5 5.925C20.5 6.175 20.4542 6.42083 20.3625 6.6625C20.2708 6.90417 20.125 7.125 19.925 7.325L9.05 18.2C8.95 18.3 8.8375 18.375 8.7125 18.425C8.5875 18.475 8.45833 18.5 8.325 18.5H5.5C5.21667 18.5 4.97917 18.4042 4.7875 18.2125C4.59583 18.0208 4.5 17.7833 4.5 17.5Z" fill="#EAAA08"/>
</g>
</svg>