<svg width="16" height="16" viewBox="0 0 16 16" fill="none" xmlns="http://www.w3.org/2000/svg">
<path d="M14.3334 8.5045V8.16216C14.3334 7.00923 14.3334 6.08509 14.2812 5.33333H1.71894C1.66675 6.08509 1.66675 7.00923 1.66675 8.16216V8.5045C1.66675 11.4094 1.66675 12.8618 2.50149 13.7642C3.33624 14.6667 4.67974 14.6667 7.36675 14.6667H8.63341C11.3204 14.6667 12.6639 14.6667 13.4987 13.7642C14.3334 12.8618 14.3334 11.4094 14.3334 8.5045Z" fill="#D0D5DD"/>
<path d="M8.63323 2H7.36656C4.67955 2 3.33605 2 2.50131 2.90243C1.99787 3.44668 1.79806 4.191 1.71875 5.33333H14.281C14.2017 4.191 14.0019 3.44668 13.4985 2.90243C12.6637 2 11.3202 2 8.63323 2Z" fill="white"/>
<path d="M12 1.33333V2.66667M4 1.33333V2.66667" stroke="#141B34" stroke-width="1.5" stroke-linecap="round" stroke-linejoin="round"/>
<path d="M7.99717 8.66666H8.00315M7.99717 11.3333H8.00315M10.6608 8.66666H10.6668M5.3335 8.66666H5.33948M5.3335 11.3333H5.33948" stroke="#141B34" stroke-width="2" stroke-linecap="round" stroke-linejoin="round"/>
<path d="M2.3335 5.33333H13.6668" stroke="#141B34" stroke-width="1.5" stroke-linecap="round" stroke-linejoin="round"/>
<path d="M1.66675 8.16216C1.66675 5.25729 1.66675 3.80486 2.50149 2.90243C3.33624 2 4.67974 2 7.36675 2H8.63341C11.3204 2 12.6639 2 13.4987 2.90243C14.3334 3.80486 14.3334 5.25729 14.3334 8.16216V8.5045C14.3334 11.4094 14.3334 12.8618 13.4987 13.7642C12.6639 14.6667 11.3204 14.6667 8.63341 14.6667H7.36675C4.67974 14.6667 3.33624 14.6667 2.50149 13.7642C1.66675 12.8618 1.66675 11.4094 1.66675 8.5045V8.16216Z" stroke="#141B34" stroke-width="1.5" stroke-linecap="round" stroke-linejoin="round"/>
<path d="M2 5.33333H14" stroke="#141B34" stroke-width="1.5" stroke-linecap="round" stroke-linejoin="round"/>
</svg>
