<svg width="131" height="130" viewBox="0 0 131 130" fill="none" xmlns="http://www.w3.org/2000/svg">
<circle cx="65.5" cy="65" r="65" fill="#F9FAFB"/>
<path d="M92.2023 68.1947C87.9747 65.3786 82.9784 64.6188 78.3959 65.6763C79.5777 61.2379 77.8839 56.349 73.8474 53.6603C68.7759 50.2823 61.927 51.6516 58.5519 56.7184C57.8605 57.757 57.3498 58.905 57.0416 60.114C46.6876 53.5949 32.9673 56.4767 26.1502 66.7114C19.2226 77.1119 22.0458 91.1631 32.4562 98.0973C42.8665 105.031 56.9206 102.222 63.848 91.8214C64.5294 90.7967 65.1277 89.7191 65.6372 88.599C66.8499 92.1737 69.2066 95.3904 72.5933 97.6463C80.7336 103.068 91.7239 100.871 97.141 92.7386C102.558 84.606 100.343 73.6169 92.2023 68.1947ZM67.1877 73.8462C67.1345 73.9323 67.0857 74.0175 67.0352 74.1056C67.0146 74.0147 66.991 73.922 66.9703 73.8311C67.0425 73.8387 67.1147 73.8462 67.1877 73.8462Z" fill="white"/>
<path d="M94.2134 59.2533C90.242 61.7694 84.4031 59.6789 84.4031 59.6789C84.4031 59.6789 85.007 53.5103 88.9811 50.9971C92.9525 48.4813 98.7889 50.5689 98.7889 50.5689C98.7889 50.5689 98.1849 56.7375 94.2134 59.2533Z" fill="white"/>
<path d="M84.456 99.8947C84.3817 99.8653 84.3212 99.8091 84.2865 99.7371C84.2518 99.6651 84.2455 99.5827 84.2689 99.5063C84.2923 99.4299 84.3436 99.3651 84.4127 99.3248C84.4817 99.2846 84.5633 99.2718 84.6414 99.2891C85.4104 99.4653 86.1842 99.6197 86.962 99.7521C87.003 99.7592 87.0422 99.7743 87.0774 99.7965C87.1126 99.8187 87.1431 99.8477 87.1671 99.8817C87.1911 99.9157 87.2081 99.9542 87.2173 99.9948C87.2264 100.035 87.2275 100.077 87.2203 100.118C87.2059 100.201 87.1593 100.275 87.0907 100.323C87.0221 100.372 86.9371 100.391 86.8542 100.378C86.0646 100.243 85.2788 100.086 84.4978 99.908C84.4838 99.9039 84.4696 99.9 84.456 99.8947ZM89.1517 100.705C89.0797 100.677 89.0203 100.624 88.9848 100.555C88.9492 100.487 88.9399 100.408 88.9585 100.333C88.9771 100.258 89.0225 100.192 89.086 100.148C89.1495 100.104 89.2269 100.085 89.3036 100.094C90.0892 100.187 90.8807 100.262 91.6574 100.315C91.7412 100.321 91.8191 100.36 91.8744 100.423C91.9296 100.486 91.9576 100.569 91.9523 100.653C91.9466 100.736 91.9079 100.815 91.8447 100.87C91.7814 100.926 91.6987 100.954 91.6148 100.948C90.8265 100.895 90.0243 100.819 89.2281 100.724C89.202 100.72 89.1764 100.714 89.1517 100.705ZM93.9 101.022C93.8308 100.995 93.7732 100.945 93.7373 100.88C93.7014 100.815 93.6895 100.74 93.7036 100.667C93.7177 100.594 93.757 100.528 93.8145 100.481C93.8721 100.434 93.9443 100.409 94.0185 100.41C94.8056 100.42 95.5928 100.406 96.3791 100.369C96.4206 100.367 96.4622 100.373 96.5014 100.388C96.5405 100.402 96.5765 100.423 96.6073 100.451C96.638 100.479 96.6629 100.513 96.6806 100.551C96.6982 100.589 96.7083 100.629 96.7102 100.671C96.7183 100.846 96.5833 100.995 96.4084 101.003C95.6249 101.041 94.8183 101.055 94.0098 101.043C93.9722 101.044 93.9349 101.037 93.9 101.022ZM98.6512 100.792C98.597 100.772 98.5495 100.736 98.5141 100.69C98.4786 100.644 98.4566 100.589 98.4503 100.532C98.4456 100.49 98.449 100.449 98.4605 100.409C98.472 100.368 98.4912 100.331 98.5171 100.299C98.5431 100.266 98.5751 100.239 98.6116 100.219C98.648 100.199 98.688 100.186 98.7294 100.181C99.5219 100.09 100.305 99.9706 101.058 99.8271C101.099 99.8192 101.141 99.8194 101.182 99.8278C101.223 99.8362 101.261 99.8526 101.296 99.8761C101.33 99.8996 101.36 99.9297 101.382 99.9646C101.405 99.9996 101.421 100.039 101.428 100.08C101.444 100.162 101.426 100.248 101.379 100.317C101.332 100.387 101.259 100.435 101.177 100.451C100.389 100.601 99.597 100.721 98.8008 100.813C98.7501 100.817 98.699 100.81 98.6512 100.792ZM103.319 99.8917C103.272 99.8741 103.231 99.8459 103.198 99.8092C103.164 99.7724 103.14 99.7284 103.127 99.6805C103.105 99.5993 103.115 99.5125 103.157 99.4391C103.198 99.3657 103.267 99.3117 103.348 99.2889C104.102 99.0781 104.846 98.8319 105.577 98.5513C105.656 98.5213 105.743 98.5237 105.82 98.5579C105.897 98.5921 105.957 98.6554 105.987 98.7338C106.049 98.897 105.967 99.0804 105.804 99.1443C105.054 99.4321 104.292 99.6843 103.518 99.9C103.453 99.9192 103.383 99.9162 103.319 99.8917ZM107.746 98.1784C107.673 98.1506 107.612 98.0961 107.577 98.0258C107.539 97.9507 107.533 97.8635 107.559 97.7834C107.585 97.7034 107.642 97.637 107.717 97.5989C108.412 97.2441 109.087 96.8506 109.738 96.4203C109.772 96.3972 109.811 96.3813 109.852 96.3733C109.893 96.3653 109.935 96.3654 109.976 96.3737C110.017 96.3819 110.055 96.3981 110.09 96.4214C110.125 96.4447 110.154 96.4745 110.177 96.5092C110.224 96.5795 110.24 96.6653 110.224 96.7479C110.207 96.8304 110.158 96.903 110.088 96.9496C109.417 97.3937 108.721 97.7996 108.005 98.1654C107.965 98.1851 107.921 98.1965 107.877 98.1987C107.832 98.201 107.788 98.1941 107.746 98.1784ZM111.694 95.5538C111.643 95.5339 111.597 95.5011 111.563 95.4584C111.528 95.4158 111.505 95.3648 111.496 95.3106C111.487 95.2564 111.492 95.2007 111.511 95.1491C111.53 95.0974 111.562 95.0516 111.604 95.016C112.196 94.5105 112.758 93.9696 113.285 93.3963C113.314 93.3657 113.347 93.3408 113.385 93.3233C113.423 93.3058 113.464 93.2958 113.505 93.2941C113.547 93.2923 113.589 93.2988 113.628 93.3131C113.667 93.3274 113.703 93.3492 113.733 93.3774C113.764 93.4056 113.789 93.4395 113.806 93.4773C113.824 93.515 113.834 93.5559 113.836 93.5975C113.837 93.6391 113.831 93.6806 113.817 93.7197C113.802 93.7588 113.78 93.7947 113.752 93.8254C113.208 94.4181 112.627 94.9771 112.014 95.499C111.921 95.5768 111.798 95.5936 111.694 95.5538ZM114.903 92.0674C114.857 92.05 114.817 92.0224 114.784 91.9868C114.751 91.9511 114.726 91.9084 114.712 91.8619C114.699 91.8154 114.696 91.7663 114.704 91.7185C114.712 91.6706 114.731 91.6253 114.759 91.586C115.215 90.9531 115.634 90.2954 116.017 89.6159C116.037 89.5795 116.064 89.5475 116.097 89.5217C116.13 89.4959 116.167 89.4769 116.207 89.4657C116.248 89.4545 116.29 89.4514 116.331 89.4566C116.372 89.4618 116.412 89.4751 116.449 89.4958C116.485 89.5163 116.517 89.5438 116.543 89.5766C116.568 89.6095 116.587 89.647 116.598 89.6872C116.61 89.7274 116.613 89.7694 116.608 89.8108C116.603 89.8522 116.59 89.8923 116.569 89.9286C116.175 90.629 115.742 91.3069 115.273 91.9591C115.231 92.0149 115.173 92.0556 115.106 92.0752C115.039 92.0947 114.968 92.092 114.903 92.0674ZM117.264 87.9492L117.243 87.941C117.205 87.9235 117.171 87.8987 117.143 87.868C117.115 87.8373 117.093 87.8014 117.079 87.7623C117.065 87.7231 117.058 87.6816 117.06 87.6399C117.062 87.5983 117.072 87.5575 117.089 87.5198C117.42 86.809 117.718 86.084 117.985 85.347C117.998 85.307 118.019 85.2699 118.047 85.2382C118.075 85.2064 118.109 85.1806 118.147 85.1621C118.185 85.1436 118.226 85.133 118.268 85.1307C118.31 85.1284 118.352 85.1346 118.392 85.1489C118.432 85.1632 118.468 85.1853 118.5 85.2139C118.531 85.2425 118.556 85.277 118.573 85.3154C118.591 85.3538 118.6 85.3953 118.602 85.4376C118.603 85.4798 118.596 85.5218 118.581 85.5612C118.521 85.7287 118.456 85.9001 118.391 86.0699C118.168 86.6505 117.925 87.2236 117.663 87.7881C117.629 87.8601 117.569 87.9167 117.495 87.9466C117.421 87.9764 117.339 87.9773 117.264 87.9492ZM118.853 83.4707C118.781 83.4429 118.722 83.39 118.686 83.322C118.65 83.254 118.64 83.1753 118.658 83.1005C118.845 82.3208 118.979 81.5461 119.055 80.7994C119.064 80.7158 119.105 80.639 119.17 80.5859C119.235 80.5327 119.318 80.5076 119.402 80.5159C119.443 80.5202 119.484 80.5326 119.52 80.5525C119.557 80.5723 119.589 80.5992 119.615 80.6315C119.642 80.6639 119.661 80.7011 119.673 80.741C119.685 80.7809 119.689 80.8227 119.684 80.8641C119.604 81.6395 119.466 82.4407 119.273 83.248C119.253 83.3298 119.202 83.4005 119.13 83.4444C119.059 83.4884 118.972 83.5021 118.891 83.4826C118.879 83.4794 118.865 83.4755 118.853 83.4707ZM119.317 78.7535C119.26 78.7314 119.211 78.6934 119.175 78.6441C119.139 78.5948 119.118 78.5362 119.114 78.4753C119.069 77.6863 118.955 76.9159 118.772 76.1864C118.751 76.1048 118.764 76.0184 118.807 75.9462C118.85 75.8739 118.92 75.8218 119.002 75.8012C119.042 75.7909 119.084 75.7888 119.125 75.7948C119.166 75.8008 119.206 75.8149 119.242 75.8362C119.277 75.8576 119.308 75.8858 119.333 75.9192C119.358 75.9526 119.376 75.9905 119.386 76.0309C119.578 76.7983 119.699 77.608 119.747 78.4378C119.75 78.4794 119.744 78.521 119.73 78.5604C119.716 78.5997 119.695 78.6359 119.667 78.667C119.64 78.6981 119.606 78.7235 119.569 78.7416C119.531 78.7597 119.49 78.7702 119.449 78.7726C119.402 78.7761 119.358 78.7691 119.317 78.7535ZM109.744 74.6896C109.669 74.6607 109.608 74.6042 109.573 74.5316C109.538 74.459 109.532 74.3759 109.556 74.2991C109.582 74.2187 109.637 74.1516 109.712 74.1125C109.787 74.0734 109.874 74.0655 109.954 74.0905C110.655 74.3109 111.432 74.4268 112.201 74.4255C112.283 74.4276 112.362 74.462 112.42 74.5214C112.478 74.5809 112.51 74.6606 112.51 74.7435C112.51 74.8265 112.478 74.9061 112.42 74.9653C112.361 75.0246 112.283 75.0588 112.2 75.0606C111.368 75.0617 110.526 74.9349 109.763 74.6967C109.757 74.6931 109.749 74.6915 109.744 74.6896ZM107.679 73.554C107.641 73.5392 107.607 73.5178 107.577 73.4906C106.798 72.7645 106.494 71.8989 106.723 71.0542C106.745 70.9732 106.798 70.9041 106.871 70.8622C106.943 70.8203 107.03 70.8088 107.111 70.8305C107.151 70.8414 107.189 70.8601 107.222 70.8856C107.255 70.9111 107.282 70.9428 107.303 70.979C107.324 71.0151 107.337 71.055 107.342 71.0963C107.347 71.1377 107.344 71.1796 107.333 71.2197C107.123 71.9978 107.584 72.632 108.007 73.0273C108.061 73.0772 108.095 73.1443 108.105 73.217C108.115 73.2898 108.099 73.3636 108.06 73.4259C108.021 73.4881 107.962 73.535 107.892 73.5583C107.823 73.5817 107.747 73.5802 107.679 73.554ZM114.427 74.6832C114.382 74.6662 114.341 74.6391 114.309 74.6041C114.276 74.5691 114.251 74.5271 114.237 74.4812C114.213 74.4009 114.22 74.314 114.259 74.2395C114.298 74.1649 114.365 74.1088 114.445 74.0833C115.17 73.8564 115.854 73.5129 116.469 73.0665C116.503 73.042 116.541 73.0243 116.581 73.0146C116.622 73.0048 116.664 73.0031 116.705 73.0097C116.746 73.0162 116.786 73.0308 116.821 73.0526C116.856 73.0744 116.887 73.103 116.912 73.1367C116.936 73.1705 116.954 73.2087 116.963 73.2493C116.973 73.2898 116.975 73.3319 116.968 73.3731C116.962 73.4142 116.947 73.4537 116.925 73.4892C116.903 73.5248 116.875 73.5557 116.841 73.5801C116.171 74.0673 115.425 74.4418 114.634 74.6889C114.565 74.7119 114.491 74.7078 114.427 74.6832ZM118.15 74.177C118.076 74.1486 118.015 74.0933 117.98 74.0221C117.64 73.3331 117.22 72.6865 116.729 72.0959C116.702 72.064 116.682 72.027 116.67 71.9873C116.657 71.9475 116.653 71.9057 116.657 71.8643C116.661 71.8228 116.672 71.7825 116.692 71.7457C116.711 71.7088 116.738 71.6761 116.77 71.6495C116.802 71.6229 116.838 71.6028 116.878 71.5904C116.918 71.578 116.959 71.5735 117.001 71.5772C117.042 71.5809 117.082 71.5927 117.119 71.612C117.156 71.6313 117.189 71.6576 117.215 71.6895C117.738 72.3189 118.185 73.0073 118.547 73.7407C118.625 73.8971 118.561 74.0888 118.404 74.1662C118.321 74.2055 118.229 74.2075 118.15 74.177ZM108.428 69.6694C108.373 69.6477 108.324 69.6108 108.288 69.563C108.253 69.5151 108.231 69.4581 108.226 69.3986C108.222 69.3391 108.234 69.2794 108.261 69.2263C108.288 69.1733 108.33 69.1291 108.382 69.0987C109.085 68.6887 109.902 68.4715 110.809 68.454C110.851 68.4532 110.892 68.4606 110.931 68.4758C110.97 68.4911 111.005 68.5138 111.035 68.5427C111.065 68.5716 111.089 68.6061 111.105 68.6443C111.122 68.6824 111.131 68.7235 111.131 68.7651C111.132 68.8067 111.125 68.8481 111.109 68.8868C111.094 68.9256 111.071 68.961 111.043 68.9909C111.014 69.0209 110.979 69.0449 110.941 69.0615C110.903 69.0782 110.862 69.0871 110.82 69.0879C110.023 69.1034 109.31 69.2907 108.701 69.646C108.66 69.6703 108.615 69.685 108.567 69.689C108.52 69.6931 108.473 69.6863 108.428 69.6694ZM118.213 71.9428C118.187 71.9324 118.162 71.919 118.139 71.903C118.106 71.8783 118.077 71.8473 118.055 71.8116C118.034 71.7759 118.019 71.7363 118.013 71.6951C118.007 71.6538 118.009 71.6117 118.019 71.5712C118.029 71.5306 118.046 71.4925 118.071 71.4589C118.503 70.8696 118.873 70.1925 119.17 69.4478C119.2 69.3705 119.261 69.3084 119.337 69.2749C119.413 69.2414 119.499 69.2391 119.577 69.2686L119.581 69.27C119.659 69.3012 119.722 69.3621 119.755 69.4394C119.788 69.5166 119.789 69.6039 119.758 69.6819C119.44 70.4769 119.045 71.2012 118.581 71.8336C118.541 71.8896 118.482 71.9306 118.416 71.9503C118.349 71.9701 118.278 71.9674 118.213 71.9428ZM115.126 70.5705C115.101 70.5604 115.077 70.5473 115.055 70.5316C114.418 70.0746 113.737 69.7156 113.039 69.4692C112.96 69.441 112.895 69.3825 112.859 69.3065C112.823 69.2306 112.818 69.1434 112.846 69.0642C112.86 69.0249 112.882 68.9887 112.909 68.9577C112.937 68.9267 112.971 68.9015 113.009 68.8836C113.046 68.8656 113.087 68.8553 113.129 68.8531C113.17 68.851 113.212 68.8571 113.251 68.871C114.006 69.1376 114.741 69.5245 115.425 70.0169C115.567 70.1197 115.599 70.3169 115.498 70.4598C115.411 70.5786 115.257 70.6207 115.126 70.5705ZM120.01 67.5768C119.941 67.55 119.883 67.4995 119.847 67.4342C119.811 67.3689 119.799 67.293 119.813 67.2199C119.954 66.4977 120.049 65.7169 120.095 64.9014C120.1 64.8174 120.138 64.7387 120.2 64.6826C120.263 64.6265 120.345 64.5974 120.429 64.6018C120.513 64.6067 120.592 64.6447 120.648 64.7074C120.704 64.7702 120.733 64.8526 120.728 64.9366C120.681 65.7815 120.583 66.5895 120.435 67.3403C120.42 67.4229 120.371 67.4958 120.302 67.5429C120.232 67.59 120.146 67.6076 120.064 67.5916C120.046 67.5886 120.027 67.5836 120.01 67.5768ZM120.304 62.8381C120.247 62.816 120.197 62.7777 120.161 62.7278C120.125 62.6779 120.104 62.6186 120.101 62.5571C120.064 61.773 119.996 60.9907 119.898 60.2119C119.887 60.1284 119.911 60.0443 119.962 59.9778C120.014 59.9113 120.089 59.8678 120.173 59.8568C120.256 59.8465 120.34 59.8697 120.407 59.9213C120.473 59.9729 120.516 60.0486 120.527 60.132C120.629 60.9571 120.7 61.7616 120.734 62.5267C120.736 62.5793 120.726 62.6317 120.703 62.6791C120.68 62.7265 120.646 62.7675 120.603 62.7984C120.56 62.8293 120.511 62.8491 120.459 62.856C120.406 62.863 120.353 62.8568 120.304 62.8381ZM119.68 58.1287C119.632 58.1104 119.59 58.0808 119.556 58.0423C119.522 58.0038 119.498 57.9576 119.486 57.9078C119.299 57.1517 119.064 56.4084 118.782 55.6824C118.752 55.6039 118.753 55.5165 118.787 55.4393C118.821 55.3622 118.884 55.3016 118.963 55.271C119.001 55.2558 119.043 55.2483 119.084 55.2492C119.126 55.25 119.167 55.259 119.205 55.2757C119.243 55.2925 119.278 55.3166 119.307 55.3466C119.335 55.3767 119.358 55.4122 119.373 55.451C119.665 56.2028 119.908 56.9727 120.101 57.7557C120.115 57.8119 120.113 57.8708 120.096 57.926C120.079 57.9812 120.046 58.0307 120.003 58.0691C119.96 58.1075 119.907 58.1333 119.85 58.1438C119.793 58.1543 119.734 58.1491 119.68 58.1287ZM117.969 53.7093C117.898 53.6821 117.84 53.6303 117.804 53.5634C117.433 52.8766 117.024 52.2112 116.579 51.5702C116.555 51.536 116.538 51.4974 116.53 51.4567C116.521 51.416 116.52 51.374 116.527 51.333C116.535 51.292 116.55 51.2529 116.573 51.2178C116.595 51.1828 116.625 51.1526 116.659 51.1289C116.802 51.0288 117 51.0635 117.099 51.2081C117.559 51.8686 117.98 52.5545 118.362 53.2626C118.382 53.2992 118.394 53.3394 118.398 53.3809C118.402 53.4224 118.398 53.4643 118.386 53.5042C118.374 53.5441 118.355 53.5812 118.328 53.6135C118.302 53.6458 118.269 53.6725 118.233 53.6922C118.193 53.7139 118.148 53.7267 118.103 53.7296C118.057 53.7326 118.012 53.7257 117.969 53.7093ZM69.6473 32.5318C69.5877 32.509 69.5365 32.4687 69.5001 32.4163C69.4638 32.3639 69.4442 32.3017 69.4437 32.2379C69.4432 32.1539 69.4759 32.073 69.5348 32.013C69.5936 31.953 69.6738 31.9187 69.7578 31.9176C70.4451 31.9123 71.2516 31.9401 72.1577 32.0002C72.1992 32.003 72.2397 32.0139 72.277 32.0324C72.3143 32.0509 72.3476 32.0765 72.375 32.1078C72.4024 32.1392 72.4233 32.1756 72.4366 32.215C72.4499 32.2545 72.4553 32.2961 72.4525 32.3376C72.4468 32.4216 72.4081 32.4998 72.3448 32.5552C72.2816 32.6106 72.199 32.6387 72.115 32.6334C71.2252 32.5752 70.4329 32.5474 69.7624 32.5534C69.723 32.5535 69.684 32.5462 69.6473 32.5318ZM115.271 49.8053C115.222 49.7864 115.178 49.7555 115.144 49.7153C114.634 49.1207 114.099 48.5489 113.539 48.0015C113.509 47.9724 113.486 47.9377 113.469 47.8994C113.453 47.8612 113.444 47.8201 113.444 47.7785C113.444 47.7369 113.452 47.6956 113.467 47.657C113.483 47.6184 113.506 47.5833 113.535 47.5537C113.564 47.5238 113.598 47.5 113.637 47.4836C113.675 47.4672 113.716 47.4586 113.758 47.4581C113.799 47.4576 113.84 47.4654 113.879 47.481C113.917 47.4965 113.953 47.5195 113.982 47.5487C114.555 48.1096 115.103 48.6948 115.625 49.3028C115.671 49.3564 115.698 49.4238 115.701 49.4942C115.704 49.5646 115.684 49.6341 115.643 49.6917C115.603 49.7494 115.544 49.7918 115.476 49.8123C115.409 49.8329 115.337 49.8304 115.271 49.8053ZM74.3923 32.821C74.327 32.7959 74.2719 32.7499 74.2355 32.6902C74.1991 32.6304 74.1835 32.5603 74.1912 32.4908C74.1955 32.4494 74.208 32.4092 74.2278 32.3726C74.2477 32.336 74.2747 32.3037 74.3071 32.2775C74.3396 32.2514 74.3768 32.2319 74.4168 32.2203C74.4568 32.2086 74.4987 32.205 74.5401 32.2096C75.3019 32.2911 76.0985 32.3889 76.909 32.5019C76.9503 32.5077 76.99 32.5215 77.0259 32.5426C77.0618 32.5637 77.0931 32.5917 77.1182 32.625C77.1433 32.6582 77.1616 32.6961 77.172 32.7364C77.1825 32.7767 77.1849 32.8187 77.1791 32.8599C77.1734 32.9012 77.1597 32.941 77.1386 32.977C77.1175 33.0129 77.0896 33.0444 77.0564 33.0696C77.0231 33.0947 76.9853 33.1131 76.9449 33.1236C76.9046 33.1341 76.8626 33.1366 76.8213 33.1309C76.0394 33.0223 75.2559 32.9257 74.471 32.8412C74.444 32.8377 74.4176 32.831 74.3923 32.821ZM111.887 46.4757C111.854 46.4631 111.824 46.4452 111.797 46.4227C111.195 45.9184 110.577 45.434 109.943 44.9703C109.875 44.9206 109.83 44.846 109.817 44.763C109.804 44.68 109.825 44.5953 109.874 44.5274C109.924 44.4596 109.998 44.4142 110.081 44.4012C110.164 44.3882 110.249 44.4087 110.317 44.4581C110.962 44.9299 111.591 45.4229 112.204 45.9363C112.262 45.9845 112.3 46.0516 112.313 46.1255C112.326 46.1995 112.312 46.2755 112.274 46.3402C112.236 46.4049 112.176 46.454 112.105 46.4788C112.034 46.5036 111.957 46.5025 111.887 46.4757ZM79.1019 33.4688C79.0286 33.4407 78.9683 33.3863 78.9327 33.3163C78.8971 33.2462 78.8889 33.1655 78.9095 33.0897C78.93 33.0138 78.978 32.9484 79.0441 32.9059C79.1103 32.8635 79.1898 32.8471 79.2673 32.8599C80.0412 32.9874 80.8313 33.1282 81.6151 33.2778C81.6976 33.2939 81.7704 33.3419 81.8177 33.4114C81.8649 33.4809 81.8828 33.5663 81.8673 33.6489C81.8514 33.7315 81.8035 33.8045 81.734 33.8519C81.6646 33.8993 81.5791 33.9173 81.4964 33.902C80.7203 33.7544 79.9425 33.616 79.1631 33.4867C79.1422 33.4826 79.1217 33.4767 79.1019 33.4688ZM83.7714 34.3586C83.7006 34.3316 83.6419 34.28 83.606 34.2133C83.5701 34.1466 83.5594 34.0692 83.5758 33.9952C83.5936 33.9129 83.6433 33.8411 83.714 33.7955C83.7847 33.7498 83.8706 33.7341 83.9529 33.7516C84.7289 33.9182 85.5106 34.0956 86.2782 34.2805C86.3188 34.29 86.3571 34.3075 86.3909 34.3319C86.4246 34.3563 86.4532 34.3872 86.475 34.4228C86.4967 34.4584 86.5111 34.4979 86.5175 34.5391C86.5238 34.5803 86.5219 34.6224 86.5118 34.6628C86.4923 34.7446 86.441 34.8152 86.3694 34.8592C86.2977 34.9031 86.2116 34.9169 86.1298 34.8974C85.3616 34.7131 84.5913 34.5378 83.819 34.3714C83.8027 34.369 83.7867 34.3648 83.7714 34.3586ZM108.058 43.6652C108.038 43.6572 108.019 43.6474 108 43.6359C107.339 43.2096 106.667 42.7997 105.986 42.4063C105.913 42.3643 105.86 42.2951 105.838 42.214C105.817 42.1329 105.828 42.0464 105.87 41.9735C105.89 41.9374 105.918 41.9056 105.951 41.8802C105.984 41.8547 106.022 41.836 106.062 41.8252C106.102 41.8144 106.144 41.8116 106.186 41.817C106.227 41.8224 106.267 41.8359 106.303 41.8568C106.994 42.2545 107.675 42.67 108.345 43.1028C108.415 43.1485 108.465 43.2203 108.483 43.3025C108.5 43.3847 108.485 43.4705 108.439 43.5412C108.399 43.6021 108.34 43.6476 108.271 43.6701C108.201 43.6926 108.127 43.6909 108.058 43.6652ZM88.3936 35.4677C88.3207 35.4394 88.2607 35.3853 88.2251 35.3155C88.1896 35.2458 88.1809 35.1655 88.2009 35.0898C88.2224 35.0086 88.2752 34.9392 88.3478 34.897C88.4204 34.8547 88.5068 34.8429 88.588 34.8643C89.3563 35.0679 90.122 35.2813 90.8849 35.5043C90.9647 35.5289 91.0315 35.5839 91.0711 35.6574C91.1106 35.7309 91.1197 35.817 91.0962 35.8971C91.0728 35.9772 91.0187 36.0449 90.9458 36.0855C90.8729 36.126 90.7869 36.1363 90.7064 36.114C89.9485 35.893 89.188 35.6811 88.4249 35.4783C88.415 35.4746 88.4035 35.4716 88.3936 35.4677ZM103.944 41.288C103.932 41.2839 103.921 41.2792 103.911 41.2739C103.211 40.9118 102.504 40.564 101.79 40.2308C101.752 40.2132 101.718 40.1882 101.69 40.1575C101.662 40.1267 101.64 40.0906 101.626 40.0514C101.612 40.0122 101.605 39.9705 101.608 39.9289C101.61 39.8872 101.62 39.8464 101.638 39.8088C101.655 39.7709 101.68 39.737 101.711 39.7088C101.742 39.6806 101.778 39.6588 101.817 39.6446C101.856 39.6304 101.898 39.6241 101.939 39.6261C101.981 39.6281 102.022 39.6383 102.059 39.6561C102.781 39.994 103.495 40.3456 104.203 40.7108C104.278 40.7495 104.334 40.8163 104.359 40.8964C104.385 40.9765 104.377 41.0634 104.339 41.1381C104.303 41.2072 104.243 41.2608 104.17 41.2885C104.097 41.3161 104.016 41.316 103.944 41.288ZM92.9542 36.8005C92.8786 36.7713 92.817 36.7144 92.782 36.6412C92.747 36.5681 92.7413 36.4844 92.766 36.4072C92.7916 36.3272 92.8478 36.2606 92.9224 36.2221C92.997 36.1835 93.0839 36.1761 93.1639 36.2015C93.921 36.4445 94.6746 36.6978 95.4247 36.9613C95.5037 36.9901 95.5682 37.0487 95.6044 37.1245C95.6407 37.2003 95.6457 37.2874 95.6184 37.3669C95.5906 37.4462 95.5325 37.5113 95.4568 37.5478C95.3811 37.5844 95.294 37.5894 95.2146 37.5618C94.4701 37.2995 93.7218 37.0482 92.9699 36.808C92.9653 36.8048 92.9604 36.803 92.9542 36.8005ZM99.6404 39.2722L99.6292 39.2678C98.9032 38.9595 98.1719 38.6636 97.4358 38.3803C97.3574 38.3498 97.2942 38.2895 97.2601 38.2125C97.2261 38.1355 97.2239 38.0481 97.2542 37.9696C97.269 37.9308 97.2914 37.8953 97.32 37.8652C97.3486 37.835 97.3829 37.8108 97.4209 37.794C97.4588 37.7771 97.4998 37.7679 97.5413 37.7669C97.5828 37.7658 97.6241 37.773 97.6629 37.788L97.6642 37.7883C98.4067 38.0746 99.1444 38.3735 99.8769 38.6846C99.9151 38.7009 99.9498 38.7245 99.979 38.7542C100.008 38.7839 100.031 38.819 100.047 38.8576C100.062 38.8962 100.07 38.9374 100.069 38.979C100.069 39.0206 100.06 39.0617 100.044 39.0999C100.012 39.1753 99.9523 39.2354 99.877 39.2676C99.8017 39.2997 99.7169 39.3014 99.6404 39.2722Z" fill="#D0D5DD"/>
<path fill-rule="evenodd" clip-rule="evenodd" d="M61.1092 48.6439C60.1977 47.5594 58.0373 47.3696 56.6246 48.77C55.7122 49.6747 55.5624 50.7042 55.7435 51.4222C55.7523 51.4576 55.7603 51.4933 55.7672 51.5294L59.5684 71.3988C60.4524 75.4479 63.6686 78.6448 67.7737 79.5252L87.8173 83.2937L87.8226 83.2948L87.8355 83.2973C88.8764 83.5037 89.9865 83.0787 90.6329 82.4377C91.962 81.1201 91.962 79.2405 90.6329 77.923L61.2256 48.77C61.1849 48.7297 61.146 48.6876 61.1092 48.6439ZM52.057 49.429L37.4939 63.9921C34.1047 67.3812 34.1047 72.5546 37.4939 75.9438L60.4649 98.9148C61.2038 99.6539 62.4019 99.6539 63.141 98.9148C63.1631 98.8927 63.1845 98.8702 63.2052 98.8474L64.9347 100.558L66.3477 99.5124L74.6882 100.179L75.6146 99.1495C76.3582 99.792 77.4828 99.7604 78.1887 99.0545L90.4154 86.8278C89.3901 87.1421 88.2579 87.2374 87.1097 87.0115L67.0518 83.2405C67.0372 83.2378 67.0226 83.2348 67.0081 83.2317C61.4433 82.0495 57.0616 77.7147 55.8646 72.1772C55.8614 72.1625 55.8584 72.1477 55.8556 72.133L52.0593 52.2892C51.8401 51.381 51.8315 50.3998 52.057 49.429Z" fill="#DC6803"/>
<path d="M65.5108 32.0544L65.5565 34.1991L53.9944 35.0637L65.5108 32.0544Z" fill="white"/>
<path d="M65.3109 36.5977L63.7595 38.1233L54.5148 35.0162L65.3109 36.5977Z" fill="#DC6803"/>
<path d="M53.9944 35.064L70.721 38.4005L66.8803 33.8824L53.9944 35.064Z" fill="#DC6803"/>
<path d="M65.5113 32.0547L53.9948 35.064L63.2224 29L65.5113 32.0547ZM107.634 101.005C103.878 101.075 102.884 101.372 98.9848 101.25C97.1276 101.267 95.1452 101.215 93.3297 101.18C92.4664 100.953 90.9485 101.18 89.9246 100.988L89.5316 101.11C89.1805 101.04 88.7697 101.005 88.4126 101.075L88.4363 101.11C87.9125 101.023 87.3173 101.075 87.0612 101.023L87.0851 101.058L86.4481 101.04L86.5552 101.092C85.6386 100.988 84.698 100.988 83.8646 101.023L83.9359 100.865C82.1562 101.04 81.5073 100.725 79.906 100.918L79.9297 100.953C77.8999 100.551 76.7271 101.232 74.6377 100.848C74.8996 100.9 74.5245 100.918 74.5483 100.97C73.5839 100.935 72.5601 100.9 72.5422 100.603C71.8397 100.603 71.9708 100.691 71.8815 100.813C71.8875 100.691 71.2743 100.621 70.7266 100.621L70.9766 100.673L69.4051 100.621L69.7146 100.376C68.8812 100.446 69.5004 100.673 68.7086 100.621L68.7204 100.411C67.5715 100.446 66.8929 100.761 65.7798 100.918C61.1485 101.005 56.1718 100.481 51.8679 100.848L51.6774 101.005C51.5941 101.232 50.4868 100.673 50.326 100.883L49.826 100.778C49.6831 100.813 49.3855 100.865 49.6356 100.918C49.1713 100.935 49.1593 100.883 48.8261 100.83L48.3259 100.97C46.4984 101.075 44.9447 100.813 43.0219 100.865C40.7122 101.145 36.3608 100.883 33.8545 100.743C30.3305 100.411 26.2348 101.302 22.6274 100.918C22.5083 100.953 22.2048 100.883 22.2107 100.848L18.9069 100.883C18.9069 100.883 2.89961 100.97 15.0613 99.1005L14.978 99.048C16.7876 98.9256 17.9246 98.9082 19.1688 99.1528C19.3653 98.8557 20.6511 99.1178 21.0738 99.0304L21.0321 99.0129C22.1334 99.2402 23.3001 98.8209 24.3657 99.0304C24.324 99.0129 24.3003 98.9256 24.0562 98.9256C24.83 98.9606 25.8896 99.0305 25.9492 98.8557C27.8005 98.9082 30.3781 98.8209 31.5627 99.1005L31.4794 99.048C32.152 99.2402 32.3543 99.083 33.1104 99.1703C33.1522 99.1528 33.2057 99.1353 33.1937 99.1178C33.9319 99.3101 35.3428 99.1528 35.9321 99.2227L35.9678 99.1005L37.4322 99.1353L36.8846 99.1528C37.0751 99.4673 37.9918 98.9431 39.0513 99.1528C40.0455 99.1178 41.0695 99.817 42.0992 99.6595C42.5933 99.817 41.6646 99.415 42.4029 99.5373C42.4267 99.3626 42.0576 99.4325 42.2481 99.2926C42.9685 99.3799 43.4327 99.1178 44.3257 99.2402L44.3614 99.1178C45.5221 99.3626 46.552 98.9431 47.3259 99.1703C48.5224 99.2752 48.1294 98.7859 49.3797 99.0304L49.8678 98.8557C50.4035 98.8209 50.2487 99.0655 50.8441 98.9781C50.8083 98.8732 51.5941 98.8907 51.2429 98.7859C52.5822 98.6111 53.9633 99.0304 55.7313 98.7335C56.1124 98.9431 57.0052 98.8209 57.291 98.9781C57.3386 98.8907 59.0709 98.9606 58.0768 98.7508C57.9935 98.7333 57.8387 98.7335 57.8506 98.7683L57.7315 98.646C58.7375 98.4014 59.559 98.7859 60.559 98.7335C60.2615 98.7683 59.8686 98.7683 60.1305 98.8557L61.0592 98.8382L60.8687 98.7335L62.2496 98.6635L62.0591 98.8034C62.7319 98.7335 62.97 98.5062 63.7321 98.6985C64.0773 98.8034 63.095 98.8732 63.8033 98.9256C64.7082 98.8382 66.0596 98.6985 67.2085 98.6635C67.1013 98.8209 67.4108 98.8034 67.7323 98.8382L67.768 98.716C68.9884 98.8907 68.2144 98.4364 69.4289 98.5761L69.3218 98.4887L69.6431 98.7683C70.7386 99.0305 70.2326 98.5062 71.4469 98.8557C70.9648 98.8382 71.2207 99.1353 71.81 99.083L71.6613 98.9606C71.9886 98.9956 72.0958 99.048 72.316 99.0129C72.1195 98.9431 72.2148 98.8382 72.697 98.8557L72.3756 98.6985L73.2863 98.9256C73.9888 98.7859 75.1019 98.9606 75.3937 98.7859C75.3937 98.7859 76.9057 98.6985 77.251 98.8907C76.9473 98.7683 77.7808 98.716 77.5426 98.5761C77.9356 98.716 79.0903 98.8209 79.5547 98.681L79.4654 98.6635C81.1799 98.5062 82.3942 98.8732 83.9301 98.681C83.8586 98.8382 84.6741 98.7508 84.4718 98.9431C86.0613 99.1353 87.3707 98.5413 87.9482 99.1528C88.6746 99.1879 88.8054 99.0129 89.1805 98.9781L89.0079 98.9431C90.3652 98.9956 90.758 98.9956 91.764 98.9781C92.2641 99.0305 92.3474 99.3101 93.2462 99.2402C92.9546 99.1353 93.3237 99.1528 93.6571 99.1528C93.4427 99.1353 93.3773 99.1005 93.8178 99.0129C93.8773 99.048 93.9784 99.0655 94.0677 99.083C94.0738 99.083 94.0916 99.0655 94.0798 99.048C94.6394 99.083 94.544 99.1178 94.2821 99.1353C94.294 99.1528 94.2761 99.1704 94.1928 99.2052C94.7763 99.0655 95.818 99.2227 95.8894 99.0304C97.58 99.083 98.7883 99.2752 100.193 99.3451C100.354 99.2402 100.021 99.1528 99.6159 99.1178L100.616 99.1528C100.61 99.0129 100.044 99.0655 99.7349 99.048C100.926 98.8209 102.187 99.2752 103.581 99.0655L103.872 99.1703L103.955 99.1528C103.949 99.2052 104.265 99.2926 104.467 99.3101C104.664 99.1879 104.455 99.0304 105.146 99.0304C105.694 98.9082 106.694 99.083 107.408 99.1528C107.021 99.1703 107.146 99.2402 107.313 99.2926C107.658 99.2926 107.855 99.1704 108.122 99.2227L108.158 99.0655C108.021 99.2227 109.057 99.2402 109.188 99.2926C109.385 99.1703 108.652 99.1879 108.569 99.1005C109.95 99.1178 109.26 99.1003 110.646 99.1178C111.385 99.2402 110.51 99.2752 110.867 99.4149C111.516 99.45 112.153 99.5547 112.903 99.4673L112.664 99.6072C113.891 99.7294 114.623 99.7121 115.445 99.5547C124.564 100.743 117.367 101.18 117.367 101.18C113.76 101.547 111.909 101.127 107.634 101.005Z" fill="#DC6803"/>
<path d="M103.057 65.9253C102.272 66.379 101.267 66.1098 100.813 65.324C100.36 64.5382 100.629 63.5335 101.415 63.0798C102.2 62.6262 103.205 62.8954 103.659 63.6811C104.112 64.4669 103.843 65.4717 103.057 65.9253Z" fill="#F79009"/>
<path d="M24.8257 85.0738C25.9002 85.0738 26.7712 85.9448 26.7712 87.0193C26.7712 88.0937 25.9002 88.9647 24.8257 88.9647C23.7513 88.9647 22.8802 88.0937 22.8802 87.0193C22.8802 85.9448 23.7513 85.0738 24.8257 85.0738Z" fill="#22CCEE"/>
<path d="M42.4214 47.4024C41.6898 47.4024 41.0967 47.9955 41.0967 48.7271C41.0967 49.4587 41.6898 50.0518 42.4214 50.0518C43.153 50.0518 43.7461 49.4587 43.7461 48.7271C43.7461 47.9955 43.153 47.4024 42.4214 47.4024Z" fill="#D0D5DD"/>
<path d="M34.1983 85.0535C33.5189 85.0535 32.9682 85.6042 32.9682 86.2835C32.9682 86.9629 33.5189 87.5136 34.1983 87.5136C34.8776 87.5136 35.4283 86.9629 35.4283 86.2835C35.4283 85.6042 34.8776 85.0535 34.1983 85.0535Z" fill="#D0D5DD"/>
<path d="M16.9786 64.6164C16.2992 64.6164 15.7485 65.1671 15.7485 65.8465C15.7485 66.5258 16.2992 67.0766 16.9786 67.0766C17.6579 67.0766 18.2086 66.5258 18.2086 65.8465C18.2086 65.1671 17.6579 64.6164 16.9786 64.6164Z" fill="#D0D5DD"/>
<path d="M26.842 49.005C28.6331 49.005 30.0851 50.4569 30.0851 52.2481C30.0851 54.0392 28.6331 55.4911 26.842 55.4911C25.0509 55.4911 23.5989 54.0392 23.5989 52.2481C23.5989 50.4569 25.0509 49.005 26.842 49.005Z" fill="#175A63"/>
<path d="M77.948 46.8476C78.5436 47.4433 79.5094 47.4433 80.105 46.8476C80.7007 46.252 80.7006 45.2863 80.105 44.6906C79.5094 44.095 78.5436 44.095 77.948 44.6906C77.3523 45.2863 77.3523 46.252 77.948 46.8476Z" fill="#D0D5DD"/>
<path d="M100.299 80.6191C99.2321 79.552 99.2321 77.822 100.299 76.755C101.366 75.6879 103.096 75.6879 104.163 76.755C105.23 77.822 105.23 79.552 104.163 80.6191C103.096 81.6861 101.366 81.6861 100.299 80.6191Z" fill="#DC6803"/>
<path d="M63.432 17.7961C62.365 16.7291 62.365 14.9991 63.432 13.932C64.4991 12.865 66.2291 12.865 67.2961 13.932C68.3631 14.9991 68.3631 16.7291 67.2961 17.7961C66.2291 18.8632 64.4991 18.8632 63.432 17.7961Z" fill="#EE46BC"/>
</svg>
