<svg width="131" height="130" viewBox="0 0 131 130" fill="none" xmlns="http://www.w3.org/2000/svg">
<circle cx="65.5" cy="65" r="65" fill="#F9FAFB"/>
<path fill-rule="evenodd" clip-rule="evenodd" d="M64.3973 15.7607H64.5002C77.2946 15.7588 89.5655 20.8405 98.6125 29.8875C107.66 38.9345 112.741 51.2054 112.739 63.9999V64.1027C112.741 76.8971 107.66 89.168 98.6125 98.215C89.5655 107.262 77.2946 112.344 64.5002 112.342H64.3973C51.6029 112.344 39.332 107.262 30.285 98.215C21.238 89.168 16.1562 76.8971 16.1581 64.1027V63.9999C16.1615 37.3595 37.7569 15.764 64.3973 15.7607Z" stroke="#D0D5DD" stroke-width="2" stroke-linecap="round" stroke-linejoin="bevel" stroke-dasharray="6.32 11.32"/>
<circle cx="15.1923" cy="65.0171" r="6.76068" fill="white" stroke="#D0D5DD" stroke-width="2"/>
<ellipse cx="64.9316" cy="15.7607" rx="7.24359" ry="6.76068" fill="white" stroke="#D0D5DD" stroke-width="2"/>
<circle cx="114.671" cy="65.0171" r="6.76068" fill="white" stroke="#D0D5DD" stroke-width="2"/>
<ellipse cx="64.9316" cy="115.239" rx="7.24359" ry="6.76068" fill="white" stroke="#D0D5DD" stroke-width="2"/>
<path fill-rule="evenodd" clip-rule="evenodd" d="M95.3547 72.6936V47.7847C95.3464 43.4957 92.6671 39.6716 88.6538 38.2205L73.1892 32.6483C67.8541 30.7355 62.0257 30.7355 56.6907 32.6483L41.2094 38.2411C37.1982 39.683 34.5176 43.5008 34.5085 47.7847V72.673C34.5085 85.6056 52.5782 95.1704 60.869 98.913C63.4465 100.077 66.3962 100.077 68.9737 98.913C77.3055 95.191 95.3547 85.6056 95.3547 72.6936Z" fill="#10C7E3"/>
<path fill-rule="evenodd" clip-rule="evenodd" d="M95.3547 72.6936V47.7847C95.3464 43.4957 92.6671 39.6716 88.6538 38.2205L73.1892 32.6483C67.8541 30.7355 62.0257 30.7355 56.6907 32.6483L41.2094 38.2411C37.1982 39.683 34.5176 43.5008 34.5085 47.7847V72.673C34.5085 85.6056 52.5782 95.1704 60.869 98.913C63.4465 100.077 66.3962 100.077 68.9737 98.913C77.3055 95.191 95.3547 85.6056 95.3547 72.6936Z" fill="#DC6803"/>
<path d="M51.8932 57.2906H77.9701V79.5043H51.8932V57.2906Z" fill="white"/>
<path fill-rule="evenodd" clip-rule="evenodd" d="M64.9479 58.5935C61.7796 58.5935 58.9635 58.7177 56.665 58.8835C54.4248 59.0875 52.6952 60.9416 52.6474 63.1906C52.5437 64.8679 52.4611 66.6296 52.4611 68.2847C52.4611 69.9399 52.5437 71.7015 52.6474 73.3789C52.8138 75.7396 54.4906 77.5389 56.665 77.6859C62.1869 78.0586 67.7278 78.0586 73.2498 77.6859C75.49 77.482 77.2195 75.6278 77.2673 73.3789C77.371 71.7015 77.4536 69.9399 77.4536 68.2847C77.4536 66.6296 77.371 64.8679 77.2673 63.1906C77.1009 60.8299 75.4241 59.0305 73.2498 58.8835C70.4764 58.6972 67.7002 58.5935 64.9457 58.5935H64.9479ZM56.416 55.0108C52.4606 55.2799 49.3339 58.6162 49.0649 62.9211C48.9407 64.6605 48.858 66.5265 48.858 68.2842C48.858 70.0653 48.9407 71.929 49.0649 73.6474C49.355 77.9339 52.4612 81.2681 56.416 81.5576C62.09 81.9511 67.7845 81.9511 73.4584 81.5576C77.4138 81.2886 80.5405 77.9522 80.8096 73.6474C80.9338 71.9079 81.0165 70.042 81.0165 68.2842C81.0165 66.5032 80.9338 64.6395 80.8096 62.9211C80.5195 58.6345 77.4133 55.3004 73.4584 55.0108C67.7838 54.6381 62.0907 54.6381 56.416 55.0108Z" fill="white"/>
<path fill-rule="evenodd" clip-rule="evenodd" d="M55.7564 53.4035C55.7564 48.0826 59.8642 43.7692 64.9315 43.7692C69.9988 43.7692 74.1066 48.0826 74.1066 53.4035V61.1196C74.1212 62.1828 73.3137 63.058 72.3012 63.0764C71.2886 63.0949 70.4528 62.2496 70.4322 61.1865V53.4035C70.4322 50.2134 67.9693 47.6273 64.9312 47.6273C61.8932 47.6273 59.4303 50.2134 59.4303 53.4035V61.1196C59.4467 61.8107 59.1077 62.4576 58.5429 62.8128C57.9781 63.1681 57.2749 63.1767 56.7023 62.8354C56.1298 62.4941 55.7764 61.8557 55.7775 61.1644V61.1196L55.7564 53.4035H55.7564Z" fill="white"/>
<path fill-rule="evenodd" clip-rule="evenodd" d="M66.6264 70.6629C68.0446 69.8009 68.6686 67.9961 68.1068 66.3813C67.5449 64.7664 65.9592 63.8071 64.3448 64.1054C62.7305 64.4037 61.553 65.8736 61.5513 67.5926C61.5535 68.8554 62.1919 70.023 63.2301 70.6629V72.9147C63.23 73.3817 63.4068 73.8295 63.7217 74.1597C64.0365 74.4899 64.4636 74.6754 64.9089 74.6752C65.3542 74.6754 65.7813 74.4899 66.0962 74.1597C66.411 73.8295 66.5879 73.3817 66.5877 72.9147L66.6269 70.6629H66.6264Z" fill="#449DA1"/>
<circle cx="119.983" cy="47.1496" r="4.34615" fill="#449DA1"/>
<circle cx="11.3291" cy="42.8034" r="2.89744" fill="#449DA1"/>
<circle cx="23.8846" cy="105.581" r="3.86325" fill="#F79009"/>
<circle cx="103.081" cy="82.4017" r="1.93162" fill="#47CD89"/>
<circle cx="83.2821" cy="102.201" r="2.41453" fill="#EAECF0"/>
<circle cx="9.88034" cy="83.8504" r="3.38034" fill="#EAECF0"/>
<circle cx="92.4573" cy="116.205" r="2.89744" fill="#EAECF0"/>
<ellipse cx="101.632" cy="21.5556" rx="1.44872" ry="0.965812" fill="#EAECF0"/>
<ellipse cx="36.4402" cy="91.5769" rx="2.89744" ry="2.41453" fill="#EAECF0"/>
<circle cx="28.7137" cy="20.5897" r="0.965812" fill="#EAECF0"/>
<ellipse cx="114.671" cy="96.8889" rx="2.89744" ry="1.93162" fill="#EAECF0"/>
<circle cx="83.7649" cy="29.2821" r="1.93162" fill="#EAECF0"/>
</svg>
