<svg width="185" height="184" viewBox="0 0 185 184" fill="none" xmlns="http://www.w3.org/2000/svg">
<circle cx="92.5" cy="92" r="92" fill="#F9FAFB"/>
<path d="M144.9 90.1504H42.2998V115.15H144.9V90.1504Z" fill="#F670C7"/>
<path d="M81.0998 90.1504H79.7998L54.7998 115.15H56.0998L81.0998 90.1504Z" fill="white"/>
<path d="M91.0998 90.1504H89.7998L64.7998 115.15H66.0998L91.0998 90.1504Z" fill="white"/>
<path d="M71.0998 90.1504H69.7998L44.7998 115.15H46.0998L71.0998 90.1504Z" fill="white"/>
<path d="M51.0998 90.1504H49.7998L42.2998 97.6504V98.9504L51.0998 90.1504Z" fill="white"/>
<path d="M61.0998 90.1504H59.7998L42.2998 107.65V108.95L61.0998 90.1504Z" fill="white"/>
<path d="M101.1 90.1504H99.6998L74.7998 115.15H76.0998L101.1 90.1504Z" fill="white"/>
<path d="M144.9 96.3508V95.0508L124.8 115.151H126.1L144.9 96.3508Z" fill="white"/>
<path d="M144.9 106.35V104.95L134.8 115.15H136.1L144.9 106.35Z" fill="white"/>
<path d="M141.1 90.1504H139.7L114.8 115.15H116.1L141.1 90.1504Z" fill="white"/>
<path d="M131.1 90.1504H129.7L104.8 115.15H106.1L131.1 90.1504Z" fill="white"/>
<path d="M111.1 90.1504H109.7L84.7998 115.15H86.0998L111.1 90.1504Z" fill="white"/>
<path d="M121.1 90.1504H119.7L94.7998 115.15H96.0998L121.1 90.1504Z" fill="white"/>
<path d="M105.7 90.1504H81.5V115.15H105.7V90.1504Z" fill="#875BF7"/>
<path d="M50.0996 165.05C62.7996 172.55 77.6996 176.85 93.4996 176.85C109.4 176.85 124.2 172.55 136.9 165.05V115.15H50.0996V165.05Z" fill="#EE46BC"/>
<path d="M93.6 176.85C97 176.85 100.3 176.65 103.6 176.25V115.15H83.5V176.25C86.8 176.65 90.2 176.85 93.6 176.85Z" fill="#5925DC"/>
<path d="M91.0999 90.15C91.0999 90.15 55.7999 81.65 45.3999 69.75C45.3999 69.75 37.9999 95.05 91.0999 90.15Z" fill="#875BF7"/>
<path d="M57.4997 47.5503C39.7997 52.1503 46.7997 91.5503 91.0997 90.1503C91.0997 90.1503 81.3997 41.3503 57.4997 47.5503ZM61.4997 52.7503C74.5997 49.3503 81.4997 80.4503 81.4997 80.4503C58.9997 73.2503 51.7997 55.2503 61.4997 52.7503Z" fill="#875BF7"/>
<path opacity="0.23" d="M48.7001 58.25C46.8001 71.35 59.4001 91.25 91.1001 90.15C58.9001 85.05 50.7001 67.45 48.7001 58.25Z" fill="#101828"/>
<path opacity="0.23" d="M61.5 52.75C74.6 49.35 81.5 80.45 81.5 80.45C76.5 43.55 61.5 52.75 61.5 52.75Z" fill="#101828"/>
<path d="M93.8999 90.15C93.8999 90.15 129.2 81.65 139.6 69.75C139.6 69.75 147 95.05 93.8999 90.15Z" fill="#875BF7"/>
<path d="M93.8999 90.1503C138.2 91.6503 145.2 52.2503 127.5 47.5503C103.6 41.3503 93.8999 90.1503 93.8999 90.1503ZM103.5 80.4503C103.5 80.4503 110.4 49.3503 123.5 52.7503C133.2 55.2503 126 73.2503 103.5 80.4503Z" fill="#875BF7"/>
<path opacity="0.23" d="M136.3 58.25C138.2 71.35 125.6 91.25 93.8999 90.15C126 85.05 134.2 67.45 136.3 58.25Z" fill="#101828"/>
<path opacity="0.23" d="M123.5 52.75C110.4 49.35 103.5 80.45 103.5 80.45C108.4 43.55 123.5 52.75 123.5 52.75Z" fill="#101828"/>
<path d="M89.7998 90.1507C89.7998 90.1507 75.1999 68.6507 92.7999 68.6507C110.3 68.5507 95.9999 90.1507 95.9999 90.1507H89.7998Z" fill="#5925DC"/>
<path d="M66.1002 15.0508L69.9002 22.0508L77.0002 25.9508L69.9002 29.7508L66.1002 36.7508L62.2002 29.7508L55.2002 25.9508L62.2002 22.0508L66.1002 15.0508Z" fill="#66C61C"/>
<path d="M92.3002 54.1504L93.8002 56.8504L96.4002 58.2504L93.8002 59.7504L92.3002 62.3504L90.9002 59.7504L88.2002 58.2504L90.9002 56.8504L92.3002 54.1504Z" fill="#70D0CC"/>
<path d="M30.5 49.4512L34.9 53.0512L40.4 51.5512L38.3 56.8512L41.5 61.5512L35.8 61.2512L32.3 65.7512L30.9 60.2512L25.5 58.2512L30.3 55.1512L30.5 49.4512Z" fill="#FAC515"/>
<path d="M46.3 37.3502C46.3 38.9502 45 40.2502 43.4 40.2502C41.8 40.2502 40.5 38.9502 40.5 37.3502C40.5 35.7502 41.8 34.4502 43.4 34.4502C45 34.4502 46.3 35.7502 46.3 37.3502Z" fill="#EE46BC"/>
<path d="M42.0002 29.5504C42.0002 30.3504 41.4002 30.9504 40.6002 30.9504C39.8002 30.9504 39.2002 30.3504 39.2002 29.5504C39.2002 28.7504 39.8002 28.1504 40.6002 28.1504C41.3002 28.1504 42.0002 28.8504 42.0002 29.5504Z" fill="#EE46BC"/>
<path d="M50.2003 31.2508C50.2003 32.1508 49.4003 32.9508 48.5003 32.9508C47.6003 32.9508 46.8003 32.1508 46.8003 31.2508C46.8003 30.3508 47.6003 29.5508 48.5003 29.5508C49.4003 29.5508 50.2003 30.3508 50.2003 31.2508Z" fill="#EE46BC"/>
<path d="M103.3 41.3502C103.3 42.9502 102 44.2502 100.4 44.2502C98.8 44.2502 97.5 42.9502 97.5 41.3502C97.5 39.7502 98.8 38.4502 100.4 38.4502C102 38.4502 103.3 39.7502 103.3 41.3502Z" fill="#7A5AF8"/>
<path d="M99.0002 33.5504C99.0002 34.3504 98.4002 34.9504 97.6002 34.9504C96.8002 34.9504 96.2002 34.3504 96.2002 33.5504C96.2002 32.7504 96.8002 32.1504 97.6002 32.1504C98.3002 32.1504 99.0002 32.8504 99.0002 33.5504Z" fill="#7A5AF8"/>
<path d="M107.2 35.2508C107.2 36.1508 106.4 36.9508 105.5 36.9508C104.6 36.9508 103.8 36.1508 103.8 35.2508C103.8 34.3508 104.6 33.5508 105.5 33.5508C106.4 33.5508 107.2 34.3508 107.2 35.2508Z" fill="#7A5AF8"/>
<path d="M132.1 13.1504L128.2 20.1504L121.2 24.0504L128.2 27.8504L132.1 34.8504L135.9 27.8504L142.9 24.0504L135.9 20.1504L132.1 13.1504Z" fill="#70D0CC"/>
<path d="M109.3 13.1504L107.9 15.8504L105.2 17.2504L107.9 18.7504L109.3 21.3504L110.8 18.7504L113.4 17.2504L110.8 15.8504L109.3 13.1504Z" fill="#875BF7"/>
<path d="M151.3 41.1504L146.9 44.7504L141.4 43.2504L143.4 48.5504L140.2 53.2504L145.9 52.9504L149.4 57.4504L150.9 51.9504L156.3 49.9504L151.5 46.8504L151.3 41.1504Z" fill="#FAC515"/>
<path d="M157.3 32.0504C157.3 33.6504 158.6 34.9504 160.2 34.9504C161.8 34.9504 163.1 33.6504 163.1 32.0504C163.1 30.4504 161.8 29.1504 160.2 29.1504C158.6 29.1504 157.3 30.4504 157.3 32.0504Z" fill="#EE46BC"/>
<path d="M161.7 24.2506C161.7 25.0506 162.3 25.6506 163.1 25.6506C163.9 25.6506 164.5 25.0506 164.5 24.2506C164.5 23.4506 163.9 22.8506 163.1 22.8506C162.3 22.8506 161.7 23.5506 161.7 24.2506Z" fill="#EE46BC"/>
<path d="M153.4 25.951C153.4 26.851 154.2 27.651 155.1 27.651C156 27.651 156.8 26.851 156.8 25.951C156.8 25.051 156 24.251 155.1 24.251C154.2 24.251 153.4 25.051 153.4 25.951Z" fill="#EE46BC"/>
</svg>
