<svg width="25" height="25" viewBox="0 0 25 25" fill="none" xmlns="http://www.w3.org/2000/svg">
<mask id="mask0_10458_16281" style="mask-type:alpha" maskUnits="userSpaceOnUse" x="0" y="0" width="25" height="25">
<rect x="0.5" y="0.5" width="24" height="24" fill="#D9D9D9"/>
</mask>
<g mask="url(#mask0_10458_16281)">
<path d="M6.5 19.5H9.5V14.5C9.5 14.2167 9.59583 13.9792 9.7875 13.7875C9.97917 13.5958 10.2167 13.5 10.5 13.5H14.5C14.7833 13.5 15.0208 13.5958 15.2125 13.7875C15.4042 13.9792 15.5 14.2167 15.5 14.5V19.5H18.5V10.5L12.5 6L6.5 10.5V19.5ZM4.5 19.5V10.5C4.5 10.1833 4.57083 9.88333 4.7125 9.6C4.85417 9.31667 5.05 9.08333 5.3 8.9L11.3 4.4C11.65 4.13333 12.05 4 12.5 4C12.95 4 13.35 4.13333 13.7 4.4L19.7 8.9C19.95 9.08333 20.1458 9.31667 20.2875 9.6C20.4292 9.88333 20.5 10.1833 20.5 10.5V19.5C20.5 20.05 20.3042 20.5208 19.9125 20.9125C19.5208 21.3042 19.05 21.5 18.5 21.5H14.5C14.2167 21.5 13.9792 21.4042 13.7875 21.2125C13.5958 21.0208 13.5 20.7833 13.5 20.5V15.5H11.5V20.5C11.5 20.7833 11.4042 21.0208 11.2125 21.2125C11.0208 21.4042 10.7833 21.5 10.5 21.5H6.5C5.95 21.5 5.47917 21.3042 5.0875 20.9125C4.69583 20.5208 4.5 20.05 4.5 19.5Z" fill="#667085"/>
</g>
</svg>
