<svg width="203" height="158" viewBox="0 0 203 158" fill="none" xmlns="http://www.w3.org/2000/svg">
<path d="M10.7576 92.8049C5.90152 113.897 40.0058 164.428 94.1014 157.321C119.261 154.014 119.39 141.291 140.37 128.14C152.875 120.302 169.693 115.654 176.471 102.279C182.323 90.7356 182.311 77.2322 177.319 67.5829C166.092 45.8821 138.982 27.6467 104.773 52.818C70.5633 77.9896 23.2885 38.408 10.7576 92.8049Z" fill="url(#paint0_linear_4567_13456)"/>
<path d="M78.3742 41.0675C77.0212 35.6349 64.2376 27.7006 57.4059 32.4842C55.3091 22.1339 53.3477 15.6796 46.4968 10.581C39.6459 5.4824 28.2149 12.1468 26.3787 26.1059C24.5429 20.3676 15.2087 12.6338 7.71022 19.1549C0.77242 25.1895 0.0767601 35.3006 0.801374 41.0581H78.3742V41.0675Z" fill="url(#paint1_linear_4567_13456)"/>
<path d="M183.732 37.9233C182.595 33.3617 171.856 26.6999 166.117 30.7163C164.356 22.0262 162.708 16.6068 156.953 12.3261C151.198 8.04494 141.595 13.6407 140.053 25.3612C138.511 20.5431 130.669 14.0494 124.37 19.5248C118.542 24.5915 117.957 33.0812 118.566 37.9154H183.732V37.9233Z" fill="url(#paint2_linear_4567_13456)"/>
<path d="M113.132 20.1714C112.283 16.7672 104.262 11.7956 99.9752 14.793C98.6595 8.30795 97.4287 4.26372 93.1303 1.06895C88.8319 -2.12582 81.6594 2.0504 80.5073 10.7965C79.3555 7.20129 73.4988 2.35536 68.7939 6.44132C64.4405 10.2223 64.004 16.5581 64.459 20.1654H113.132V20.1714Z" fill="url(#paint3_linear_4567_13456)"/>
<path fill-rule="evenodd" clip-rule="evenodd" d="M140.305 47.6024C163.377 70.6739 163.377 108.08 140.305 131.151C117.234 154.223 79.8281 154.223 56.7567 131.151C33.6856 108.08 33.6856 70.6739 56.7567 47.6024C79.8281 24.531 117.234 24.531 140.305 47.6024Z" fill="#449DA1"/>
<path fill-rule="evenodd" clip-rule="evenodd" d="M63.7538 75.1405C84.0477 59.3008 113.014 59.3008 133.308 75.1405C135.272 76.6739 135.622 79.5095 134.088 81.474C132.555 83.4386 129.719 83.7881 127.755 82.2547C110.725 68.9625 86.3369 68.9624 69.3066 82.2548C67.342 83.7881 64.5064 83.4386 62.973 81.474C61.4397 79.5095 61.7892 76.6738 63.7538 75.1405ZM114.425 100.892C105.166 93.6754 91.8955 93.6764 82.6437 100.891C80.6785 102.424 77.843 102.073 76.3105 100.108C74.7779 98.1427 75.1287 95.3073 77.0939 93.7747C89.6091 84.0148 107.453 84.0158 119.973 93.7739C121.939 95.3059 122.29 98.1413 120.758 100.107C119.227 102.073 116.391 102.424 114.425 100.892ZM98.5309 118.204C99.7632 118.204 101.041 117.205 101.041 115.622C101.041 114.038 99.762 113.039 98.5309 113.039C97.2998 113.039 96.0205 114.038 96.0205 115.622C96.0205 117.205 97.2986 118.204 98.5309 118.204ZM92.0165 115.622C92.0165 111.912 95.0928 109.179 98.5309 109.179C101.969 109.179 105.045 111.912 105.045 115.622C105.045 119.333 101.968 122.064 98.5309 122.064C95.094 122.064 92.0165 119.333 92.0165 115.622Z" fill="white"/>
<path d="M199.422 54.5724L183.652 70.3429C183.078 70.9172 183.078 71.8483 183.652 72.4226C184.226 72.9968 185.157 72.9968 185.732 72.4225L201.502 56.652C202.076 56.0776 202.076 55.1465 201.502 54.5723C200.928 53.998 199.997 53.9981 199.422 54.5724Z" fill="#E1E4E5"/>
<path d="M197.879 65.8621L193.331 70.4103C192.756 70.9846 192.756 71.9157 193.331 72.49C193.905 73.0642 194.836 73.0642 195.41 72.4898L199.958 67.9417C200.533 67.3674 200.533 66.4363 199.959 65.862C199.384 65.2878 198.453 65.2878 197.879 65.8621Z" fill="#E1E4E5"/>
<path d="M180.465 96.7315L169.61 107.587C169.214 107.982 169.214 108.623 169.61 109.019C170.005 109.414 170.646 109.414 171.041 109.019L181.897 98.1631C182.292 97.7678 182.292 97.1269 181.897 96.7315C181.501 96.3362 180.86 96.3362 180.465 96.7315Z" fill="#E1E4E5"/>
<path d="M179.402 104.504L176.272 107.635C175.876 108.03 175.876 108.671 176.272 109.066C176.667 109.462 177.308 109.462 177.703 109.066L180.834 105.936C181.229 105.54 181.229 104.899 180.834 104.504C180.439 104.109 179.798 104.109 179.402 104.504Z" fill="#E1E4E5"/>
<path d="M2.74863 106.101L14.3318 94.5176C14.7536 94.0958 14.7536 93.412 14.3318 92.9903C13.9101 92.5685 13.2263 92.5685 12.8045 92.9902L1.22132 104.573C0.79957 104.995 0.799569 105.679 1.22132 106.101C1.64307 106.522 2.32688 106.522 2.74863 106.101Z" fill="#E1E4E5"/>
<path d="M3.8827 97.8085L7.22341 94.4678C7.64516 94.046 7.64517 93.3622 7.22342 92.9405C6.80166 92.5187 6.11786 92.5187 5.69611 92.9405L2.35541 96.2812C1.93365 96.7029 1.93366 97.3867 2.35541 97.8085C2.77716 98.2302 3.46095 98.2302 3.8827 97.8085Z" fill="#E1E4E5"/>
<path d="M155.131 141.475L143.548 153.059C143.126 153.48 143.126 154.164 143.548 154.586C143.969 155.008 144.653 155.008 145.075 154.586L156.658 143.003C157.08 142.581 157.08 141.897 156.658 141.475C156.236 141.054 155.553 141.054 155.131 141.475Z" fill="#E1E4E5"/>
<path d="M153.997 149.768L150.656 153.108C150.235 153.53 150.235 154.214 150.656 154.636C151.078 155.057 151.762 155.057 152.184 154.636L155.524 151.295C155.946 150.873 155.946 150.189 155.524 149.768C155.103 149.346 154.419 149.346 153.997 149.768Z" fill="#E1E4E5"/>
<path d="M47.3996 138.44L35.8164 150.023C35.3946 150.445 35.3946 151.129 35.8164 151.551C36.2381 151.973 36.9219 151.973 37.3437 151.551L48.9269 139.968C49.3486 139.546 49.3486 138.862 48.9269 138.44C48.5051 138.019 47.8213 138.019 47.3996 138.44Z" fill="#E1E4E5"/>
<path d="M46.2656 146.734L42.9249 150.074C42.5032 150.496 42.5032 151.18 42.9249 151.602C43.3467 152.023 44.0305 152.023 44.4522 151.602L47.7929 148.261C48.2147 147.839 48.2147 147.155 47.7929 146.734C47.3712 146.312 46.6874 146.312 46.2656 146.734Z" fill="#E1E4E5"/>
<path fill-rule="evenodd" clip-rule="evenodd" d="M118.805 61.4506C120.347 62.6165 120.652 64.8115 119.486 66.3533L75.2992 124.794C74.1334 126.336 71.9383 126.64 70.3965 125.475C68.8546 124.309 68.5497 122.114 69.7155 120.572L113.902 62.1316C115.068 60.5897 117.263 60.2848 118.805 61.4506Z" fill="#449DA1"/>
<defs>
<linearGradient id="paint0_linear_4567_13456" x1="38.3305" y1="229.085" x2="177.259" y2="-108.702" gradientUnits="userSpaceOnUse">
<stop stop-color="white"/>
<stop offset="1" stop-color="#EEEEEE"/>
</linearGradient>
<linearGradient id="paint1_linear_4567_13456" x1="41.1335" y1="59.1166" x2="40.7228" y2="-26.1547" gradientUnits="userSpaceOnUse">
<stop stop-color="white"/>
<stop offset="1" stop-color="#EEEEEE"/>
</linearGradient>
<linearGradient id="paint2_linear_4567_13456" x1="152.447" y1="53.0778" x2="152.103" y2="-18.5184" gradientUnits="userSpaceOnUse">
<stop stop-color="white"/>
<stop offset="1" stop-color="#EEEEEE"/>
</linearGradient>
<linearGradient id="paint3_linear_4567_13456" x1="89.7652" y1="31.4806" x2="89.508" y2="-21.9491" gradientUnits="userSpaceOnUse">
<stop stop-color="white"/>
<stop offset="1" stop-color="#EEEEEE"/>
</linearGradient>
</defs>
</svg>
