<svg width="20" height="20" viewBox="0 0 20 20" fill="none" xmlns="http://www.w3.org/2000/svg">
<path d="M10.8333 9.16667H14.8333C15.7667 9.16667 16.2334 9.16667 16.5899 9.34832C16.9035 9.50811 17.1585 9.76308 17.3183 10.0767C17.5 10.4332 17.5 10.8999 17.5 11.8333V17.5M10.8333 17.5V5.16667C10.8333 4.23325 10.8333 3.76654 10.6516 3.41002C10.4918 3.09641 10.2369 2.84144 9.92328 2.68166C9.56676 2.5 9.10005 2.5 8.16663 2.5H5.16663C4.23321 2.5 3.76649 2.5 3.40998 2.68166C3.09637 2.84144 2.8414 3.09641 2.68162 3.41002C2.49996 3.76654 2.49996 4.23325 2.49996 5.16667V17.5M18.3333 17.5H1.66663M5.41663 5.83333H7.91663M5.41663 9.16667H7.91663M5.41663 12.5H7.91663" stroke="#667085" stroke-width="1.5" stroke-linecap="round" stroke-linejoin="round"/>
</svg>
