<svg width="25" height="25" viewBox="0 0 25 25" fill="none" xmlns="http://www.w3.org/2000/svg">
<mask id="mask0_10107_18386" style="mask-type:alpha" maskUnits="userSpaceOnUse" x="0" y="0" width="25" height="25">
<rect x="0.5" y="0.5" width="24" height="24" fill="#D9D9D9"/>
</mask>
<g mask="url(#mask0_10107_18386)">
<path d="M12.5 22.5C12.2 22.5 11.9041 22.4501 11.6125 22.35C11.3208 22.25 11.05 22.0917 10.8 21.875C9.59995 20.7917 8.55412 19.7542 7.66245 18.7625C6.77078 17.7709 6.03328 16.8125 5.44995 15.8875C4.86662 14.9625 4.42912 14.0625 4.13745 13.1875C3.84578 12.3125 3.69995 11.4584 3.69995 10.625C3.69995 8.14172 4.55828 6.02922 6.27495 4.28755C7.99162 2.54588 10.0666 1.67505 12.5 1.67505C14.9333 1.67505 17.0083 2.54588 18.725 4.28755C20.4416 6.02922 21.3 8.14172 21.3 10.625C21.3 11.4584 21.1541 12.3125 20.8625 13.1875C20.5708 14.0625 20.1333 14.9625 19.55 15.8875C18.9666 16.8125 18.2291 17.7709 17.3375 18.7625C16.4458 19.7542 15.4 20.7917 14.2 21.875C13.95 22.0917 13.6791 22.25 13.3875 22.35C13.0958 22.4501 12.8 22.5 12.5 22.5ZM12.5 12.75C13.1166 12.75 13.6458 12.5292 14.0875 12.0875C14.5291 11.6459 14.75 11.1167 14.75 10.5C14.75 9.88338 14.5291 9.35422 14.0875 8.91255C13.6458 8.47088 13.1166 8.25005 12.5 8.25005C11.8833 8.25005 11.3541 8.47088 10.9125 8.91255C10.4708 9.35422 10.25 9.88338 10.25 10.5C10.25 11.1167 10.4708 11.6459 10.9125 12.0875C11.3541 12.5292 11.8833 12.75 12.5 12.75Z" fill="#FAC515"/>
</g>
</svg>
