<svg width="25" height="25" viewBox="0 0 25 25" fill="none" xmlns="http://www.w3.org/2000/svg">
<path d="M2.5 5.5L9.41302 9.42462C11.9387 10.8585 13.0613 10.8585 15.587 9.42462L22.5 5.5" stroke="#F97066" stroke-width="1.5" stroke-linejoin="round"/>
<path d="M11 20C10.5337 19.9939 10.0668 19.985 9.59883 19.9732C6.45033 19.8941 4.87608 19.8545 3.74496 18.7184C2.61383 17.5823 2.58114 16.0487 2.51577 12.9814C2.49475 11.9951 2.49474 11.0147 2.51576 10.0284C2.58114 6.96113 2.61382 5.42748 3.74495 4.29139C4.87608 3.1553 6.45033 3.11573 9.59882 3.03658C11.5393 2.9878 13.4607 2.98781 15.4012 3.03659C18.5497 3.11574 20.1239 3.15532 21.255 4.29141C22.3862 5.42749 22.4189 6.96114 22.4842 10.0284C22.4939 10.4825 22.4991 10.6965 22.4999 11" stroke="#F97066" stroke-width="1.5" stroke-linecap="round" stroke-linejoin="round"/>
<path opacity="0.4" d="M19.5 17.5C19.5 18.3284 18.8284 19 18 19C17.1716 19 16.5 18.3284 16.5 17.5C16.5 16.6716 17.1716 16 18 16C18.8284 16 19.5 16.6716 19.5 17.5ZM19.5 17.5V18C19.5 18.8284 20.1716 19.5 21 19.5C21.8284 19.5 22.5 18.8284 22.5 18V17.5C22.5 15.0147 20.4853 13 18 13C15.5147 13 13.5 15.0147 13.5 17.5C13.5 19.9853 15.5147 22 18 22" stroke="#F97066" stroke-width="1.5" stroke-linecap="round" stroke-linejoin="round"/>
</svg>
