<svg width="203" height="181" viewBox="0 0 203 181" fill="none" xmlns="http://www.w3.org/2000/svg">
<path d="M107.325 180.675C138.635 180.737 166.896 161.924 178.92 133.016C190.945 104.107 184.363 70.8011 162.245 48.64C140.128 26.4789 106.835 19.8311 77.9025 31.7986C48.9703 43.7662 30.1018 71.9902 30.1021 103.3C30.0708 123.804 38.1918 143.48 52.6763 157.993C67.1609 172.506 86.8206 180.666 107.325 180.675Z" fill="#F9FAFB"/>
<path d="M189.347 153.228C192.796 153.228 195.592 150.432 195.592 146.983C195.592 143.534 192.796 140.738 189.347 140.738C185.898 140.738 183.102 143.534 183.102 146.983C183.105 150.431 185.899 153.226 189.347 153.228Z" fill="#EAEEF9"/>
<path d="M198.486 128.857C200.211 128.857 201.767 127.818 202.427 126.224C203.087 124.63 202.722 122.796 201.501 121.576C200.281 120.356 198.447 119.992 196.853 120.652C195.259 121.313 194.22 122.869 194.221 124.594C194.221 125.725 194.67 126.81 195.47 127.61C196.27 128.409 197.355 128.858 198.486 128.857Z" fill="#17B26A"/>
<path d="M34.2149 52.4258C35.9402 52.4258 37.4955 51.3865 38.1555 49.7926C38.8156 48.1986 38.4504 46.364 37.2303 45.1443C36.0101 43.9246 34.1754 43.5601 32.5816 44.2208C30.9879 44.8814 29.9492 46.4371 29.9498 48.1623C29.9494 49.2935 30.3987 50.3784 31.1987 51.1781C31.9987 51.9778 33.0838 52.4267 34.2149 52.4258Z" fill="#F79009"/>
<path d="M8.16905 134.676C12.5434 134.676 16.0895 131.13 16.0895 126.755C16.0895 122.381 12.5434 118.835 8.16905 118.835C3.79471 118.835 0.2486 122.381 0.2486 126.755C0.246482 128.857 1.08028 130.873 2.56611 132.358C4.05194 133.844 6.06777 134.678 8.16905 134.676Z" fill="#06AED4"/>
<path d="M117.014 131.355H99.8532C95.8758 131.355 92.5281 135.026 92.5281 139.383V148.78C92.5281 158.406 99.6443 166.205 108.434 166.205C117.224 166.205 124.339 158.406 124.339 148.78V139.383C124.339 134.798 120.991 131.355 117.014 131.355Z" fill="white"/>
<path d="M115.495 41.2911C132.653 45.2764 144.798 60.5666 144.796 78.1817V82.9952C144.796 123.587 175.351 150.15 175.351 150.15H38.2688C38.2688 150.15 69.0356 123.587 69.0356 82.9952V78.1817C69.0335 60.5673 81.1768 45.2774 98.3341 41.2911V39.6921C98.3341 34.9531 102.176 31.1113 106.915 31.1113C111.654 31.1113 115.496 34.9531 115.496 39.6921L115.495 41.2911Z" fill="#A5EFE6"/>
<path d="M91.005 99.523C85.8751 99.509 81.3266 96.2218 79.7034 91.3554C79.5282 90.8583 79.5631 90.3113 79.8002 89.8405C80.0372 89.3697 80.4559 89.0159 80.9596 88.8606C81.4576 88.6795 82.0081 88.7106 82.4825 88.9467C82.9569 89.1828 83.3137 89.6031 83.4696 90.1096C84.5959 93.3202 87.6023 95.4898 91.0042 95.5472C94.4358 95.5787 97.4895 93.3759 98.5421 90.1096C98.698 89.6037 99.0544 89.1838 99.5283 88.9478C100.002 88.7118 100.552 88.6803 101.05 88.8606C101.554 89.0157 101.972 89.3695 102.21 89.8403C102.447 90.3111 102.482 90.8582 102.307 91.3554C100.757 96.2754 96.1628 99.5957 91.005 99.523Z" fill="#449DA1"/>
<path d="M122.608 99.523C117.478 99.509 112.929 96.2218 111.306 91.3554C111.131 90.8583 111.166 90.3113 111.403 89.8405C111.64 89.3697 112.059 89.0159 112.562 88.8606C113.06 88.6795 113.611 88.7106 114.085 88.9467C114.56 89.1828 114.917 89.6031 115.072 90.1096C116.199 93.3202 119.205 95.4898 122.607 95.5472C126.039 95.5792 129.093 93.3762 130.145 90.1096C130.301 89.6037 130.657 89.1838 131.131 88.9478C131.605 88.7118 132.155 88.6803 132.653 88.8606C133.156 89.0157 133.575 89.3695 133.812 89.8403C134.05 90.3111 134.085 90.8582 133.909 91.3554C132.36 96.2754 127.766 99.5957 122.608 99.523Z" fill="#449DA1"/>
<path d="M106.911 125.141C109.569 125.14 111.724 122.985 111.724 120.326C111.723 117.668 109.568 115.513 106.909 115.514C104.251 115.514 102.096 117.67 102.097 120.328C102.1 122.985 104.254 125.138 106.911 125.141Z" fill="#449DA1"/>
<path d="M132.704 7.08273V0H160.075V7.08273L141.398 29.6254H160.396V36.7081H131.738V29.6254L150.415 7.08273H132.704Z" fill="#449DA1"/>
<path d="M155.244 60.1942V55.7012H172.955V60.1942L161.04 74.6945H173.277V79.1875H154.6V74.6945L166.514 60.1942H155.244Z" fill="#449DA1"/>
</svg>
