<svg width="203" height="174" viewBox="0 0 203 174" fill="none" xmlns="http://www.w3.org/2000/svg">
<path d="M108.752 0C156.826 0 195.797 38.7789 195.797 86.615C195.797 134.451 156.826 173.23 108.752 173.23C60.6791 173.23 21.7079 134.451 21.7079 86.615C21.7079 38.7789 60.6791 0 108.752 0Z" fill="#F9FAFB"/>
<path d="M57.7386 93.3516L94.245 112.455C94.245 112.455 74.2043 123.743 60.3756 126.001C46.547 128.258 38.0499 126.117 38.0499 126.117L0.430054 103.308C0.547383 103.308 30.4906 106.203 57.7386 93.3516Z" fill="#D4D9E4"/>
<path d="M65.476 85.6533L101.982 104.757C101.982 104.757 81.9417 116.045 68.1131 118.302C54.2844 120.56 45.7873 118.418 45.7873 118.418L8.16748 95.6101C8.28481 95.6101 38.2281 98.5047 65.476 85.6533Z" fill="white"/>
<path d="M173.451 74.1045L197.734 86.3142C197.734 86.3142 184.626 93.8409 175.563 95.4577C166.444 97.0745 160.858 95.6807 160.858 95.6807L135.833 81.1296C135.833 81.1296 155.611 82.7464 173.451 74.1045Z" fill="#D4D9E4"/>
<path d="M178.321 69.292L202.57 81.4767C202.57 81.4767 189.446 89.0188 180.375 90.6436C171.304 92.2684 165.656 90.8674 165.656 90.8674L140.669 76.2785C140.669 76.2785 160.465 77.8993 178.321 69.292Z" fill="white"/>
<path fill-rule="evenodd" clip-rule="evenodd" d="M105.547 97.3054C105.685 99.1242 106.47 100.834 107.761 102.13C108.967 103.309 110.648 103.877 112.327 103.673C113.741 103.51 115.053 102.856 116.029 101.825C116.997 100.693 117.564 99.2756 117.643 97.7918C117.748 95.2839 118.499 92.8451 119.825 90.7097C121.69 87.766 123.79 84.9758 126.104 82.3662C128.585 79.2876 130.582 76.5883 132.017 74.4927C133.535 72.252 134.728 69.8099 135.561 67.2382C136.494 64.3964 136.763 61.3805 136.349 58.4196C135.893 54.4789 134.191 50.7842 131.488 47.8681C128.563 44.8077 124.858 42.5942 120.768 41.4634C116.063 40.0898 111.116 39.7371 106.262 40.4291C101.267 41.0709 96.4166 42.5478 91.9157 44.7973C87.4571 46.9464 83.3979 49.8339 79.9116 53.3364C78.9195 54.2357 78.1511 55.3522 77.667 56.5977C77.2398 57.8783 77.1223 59.2411 77.324 60.5753C77.5335 62.6277 78.4563 64.5431 79.9334 65.9907C81.1558 67.3093 82.9456 67.9549 84.7332 67.7223C86.8733 67.2966 88.8739 66.3492 90.5554 64.9649C94.1514 62.2759 97.0665 60.0993 99.2381 58.7611C101.438 57.3196 103.951 56.4175 106.569 56.1284C109.065 55.7025 111.632 56.1267 113.856 57.3324C115.782 58.45 117.032 60.4394 117.198 62.6518C117.489 64.7084 117.204 66.8051 116.376 68.7111C115.161 71.1909 113.756 73.5731 112.171 75.8366C109.912 79.0948 108.002 82.5799 106.474 86.2346C105.277 89.3641 104.998 93.0146 105.547 97.3054ZM104.067 122.373C104.384 125.259 105.831 127.905 108.096 129.736L108.099 129.735C110.393 131.558 113.35 132.341 116.251 131.893C119.142 131.607 121.776 130.115 123.498 127.786C125.266 125.466 126.006 122.529 125.545 119.653C125.229 116.767 123.781 114.121 121.516 112.29C119.254 110.483 116.337 109.696 113.467 110.12C110.538 110.389 107.864 111.888 106.115 114.24C104.347 116.56 103.607 119.497 104.067 122.373Z" fill="#449DA1"/>
<path d="M45.3827 112.884C45.0842 113.074 44.736 113.172 44.3817 113.166C43.9179 113.149 43.4799 112.95 43.1642 112.611C42.8484 112.273 42.6807 111.824 42.6981 111.362L42.9689 103.93C43.0182 102.978 43.826 102.242 44.7832 102.276C45.7404 102.311 46.4928 103.103 46.4731 104.056L46.2032 111.489C46.1758 112.06 45.8693 112.581 45.3827 112.884Z" fill="#DC6803"/>
<path d="M49.2478 109.324C48.9495 109.514 48.6015 109.612 48.2475 109.606L40.7704 109.358C40.1452 109.334 39.5806 108.979 39.2893 108.428C38.998 107.877 39.0243 107.213 39.3582 106.687C39.6921 106.16 40.2829 105.851 40.9081 105.876L48.3867 106.124C49.3493 106.161 50.1008 106.966 50.0673 107.924C50.0201 108.49 49.7191 109.004 49.2478 109.324Z" fill="#DC6803"/>
<path d="M61.5571 97.9084C61.2585 98.0985 60.9103 98.1966 60.556 98.1905C60.0923 98.1737 59.6543 97.9741 59.3385 97.6358C59.0227 97.2974 58.855 96.848 58.8724 96.3866L59.1432 88.9547C59.1925 88.0029 60.0003 87.2665 60.9575 87.3009C61.9147 87.3352 62.6671 88.1275 62.6474 89.0804L62.3775 96.5136C62.3501 97.0842 62.0436 97.6053 61.5571 97.9084Z" fill="#DC6803"/>
<path d="M65.464 94.3274C65.1657 94.5172 64.8177 94.6151 64.4636 94.6091L56.9866 94.3611C56.3614 94.3367 55.7968 93.9821 55.5055 93.4311C55.2142 92.8801 55.2405 92.2163 55.5744 91.6898C55.9083 91.1633 56.4991 90.854 57.1243 90.8785L64.6029 91.1273C65.3685 91.1527 66.0274 91.6734 66.2256 92.4098C66.4237 93.1461 66.1145 93.9248 65.464 94.3274Z" fill="#DC6803"/>
<path d="M56.2978 123.779C56.2022 123.849 56.093 123.898 55.977 123.923C55.5498 124.091 55.073 124.08 54.654 123.893C54.2349 123.707 53.9089 123.36 53.7493 122.932C51.4055 116.904 53.0065 110.063 57.7855 105.686C62.5258 101.254 69.5083 100.158 75.3892 102.924C76.2529 103.335 76.6184 104.365 76.2055 105.224C75.7927 106.084 74.7578 106.447 73.8941 106.037C69.3074 103.893 63.8721 104.735 60.1575 108.165C56.443 111.595 55.1934 116.925 56.9995 121.637C57.3223 122.425 57.0258 123.331 56.2978 123.779Z" fill="#DC6803"/>
<ellipse cx="50.723" cy="25.0228" rx="5.80335" ry="5.77471" fill="#DC6803"/>
<ellipse cx="189.026" cy="146.282" rx="4.83559" ry="4.81172" fill="#66C61C"/>
<ellipse cx="181.289" cy="47.1572" rx="3.86863" ry="3.84954" fill="#23D2C3"/>
<ellipse cx="186.608" cy="36.0895" rx="2.41779" ry="2.40586" fill="#17B26A"/>
</svg>
