<svg width="16" height="16" viewBox="0 0 16 16" fill="none" xmlns="http://www.w3.org/2000/svg">
<path d="M14 11.4408C14 12.3625 12.7029 12.9104 10.1087 14.0063C9.06654 14.4465 8.54546 14.6666 8 14.6666C7.45455 14.6666 6.93346 14.4465 5.89128 14.0063C3.2971 12.9104 2 12.3625 2 11.4408L2 4.66663L8 7.56985L14 4.66663V11.4408Z" fill="#449DA1"/>
<path d="M5.55061 6.46084L3.60314 5.51848C2.53438 5.00132 2 4.74274 2 4.33325C2 3.92376 2.53438 3.66518 3.60314 3.14802L5.55061 2.20566C6.75256 1.62406 7.35353 1.33325 8 1.33325C8.64647 1.33325 9.24744 1.62406 10.4494 2.20566L12.3969 3.14802C13.4656 3.66518 14 3.92376 14 4.33325C14 4.74274 13.4656 5.00132 12.3969 5.51848L10.4494 6.46084C9.24744 7.04245 8.64647 7.33325 8 7.33325C7.35353 7.33325 6.75256 7.04245 5.55061 6.46084Z" fill="white"/>
<path d="M8 14.6666C7.45455 14.6666 6.93346 14.4465 5.89129 14.0063C3.2971 12.9104 2 12.3625 2 11.4408C2 11.1828 2 6.70964 2 4.66663M8 14.6666C8.54546 14.6666 9.06654 14.4465 10.1087 14.0063C12.7029 12.9104 14 12.3625 14 11.4408V4.66663M8 14.6666L8 7.56985" stroke="#101828" stroke-width="1.2" stroke-linecap="round" stroke-linejoin="round"/>
<path d="M5.55061 6.46084L3.60314 5.51848C2.53438 5.00132 2 4.74274 2 4.33325C2 3.92376 2.53438 3.66518 3.60314 3.14802L5.55061 2.20566C6.75256 1.62406 7.35353 1.33325 8 1.33325C8.64647 1.33325 9.24744 1.62406 10.4494 2.20566L12.3969 3.14802C13.4656 3.66518 14 3.92376 14 4.33325C14 4.74274 13.4656 5.00132 12.3969 5.51848L10.4494 6.46084C9.24744 7.04245 8.64647 7.33325 8 7.33325C7.35353 7.33325 6.75256 7.04245 5.55061 6.46084Z" stroke="#101828" stroke-width="1.2" stroke-linecap="round" stroke-linejoin="round"/>
<path d="M4 8L5.33333 8.66667" stroke="#101828" stroke-width="1.2" stroke-linecap="round" stroke-linejoin="round"/>
<path d="M11.3337 2.66663L4.66699 5.99996" stroke="#101828" stroke-width="1.2" stroke-linecap="round" stroke-linejoin="round"/>
</svg>
