<svg width="25" height="25" viewBox="0 0 25 25" fill="none" xmlns="http://www.w3.org/2000/svg">
<path d="M3 12.5C3 8.02166 3 5.78249 4.39124 4.39124C5.78249 3 8.02166 3 12.5 3C16.9783 3 19.2175 3 20.6088 4.39124C22 5.78249 22 8.02166 22 12.5C22 16.9783 22 19.2175 20.6088 20.6088C19.2175 22 16.9783 22 12.5 22C8.02166 22 5.78249 22 4.39124 20.6088C3 19.2175 3 16.9783 3 12.5Z" stroke="#F79009" stroke-width="1.5" stroke-linejoin="round"/>
<path d="M12.5 8.5L12.5 16.5M16.5 12.5L8.5 12.5" stroke="#F79009" stroke-width="1.5" stroke-linecap="round" stroke-linejoin="round"/>
</svg>
