<svg width="131" height="130" viewBox="0 0 131 130" fill="none" xmlns="http://www.w3.org/2000/svg">
<circle cx="65.5" cy="65" r="65" fill="#F9FAFB"/>
<path d="M100.529 40.4463C93.8722 43.6902 85.0319 39.5166 85.0319 39.5166C85.0319 39.5166 87.0048 30.0746 93.6625 26.8307C100.32 23.5868 109.16 27.7604 109.16 27.7604C109.16 27.7604 107.186 37.2024 100.529 40.4463Z" fill="white"/>
<path d="M30.2062 41.979C33.3812 43.8125 37.9255 42.1126 37.9255 42.1126C37.9255 42.1126 37.3304 37.4531 34.1554 35.6385C30.9805 33.805 26.4362 35.5048 26.4362 35.5048C26.4362 35.5048 27.0313 40.1455 30.2062 41.979Z" fill="white"/>
<circle cx="116.755" cy="71.1066" r="3" fill="#F79009"/>
<circle cx="13.7979" cy="53.1704" r="2.29787" fill="#DC6803"/>
<circle cx="27.1383" cy="96.3832" r="3" fill="#2970FF"/>
<ellipse cx="102.84" cy="61.213" rx="1.7234" ry="1.14894" fill="#DC6803"/>
<circle cx="39.6489" cy="26.1704" r="1.7234" fill="#D0D5DD"/>
<ellipse cx="27.5851" cy="56.0428" rx="2.29787" ry="2.87234" fill="#D0D5DD"/>
<circle cx="77.5639" cy="100.851" r="1.7234" fill="#D0D5DD"/>
<ellipse cx="110.309" cy="44.5534" rx="3.44681" ry="2.87234" fill="#D0D5DD"/>
<ellipse cx="99.968" cy="50.2981" rx="2.29787" ry="1.7234" fill="#D0D5DD"/>
<circle cx="27.3723" cy="27.8723" r="2.87234" fill="#D0D5DD"/>
<circle cx="58.0319" cy="104.298" r="4.02128" fill="#D0D5DD"/>
<path fill-rule="evenodd" clip-rule="evenodd" d="M29.8009 65.6407H29.759C29.4451 70.0125 26.2033 70.0751 26.2033 70.0751C26.2033 70.0751 29.7802 70.1589 29.7802 75.1999C29.7802 70.1377 33.3571 70.0751 33.3571 70.0751C33.3571 70.0751 30.1148 70.0125 29.8009 65.6407ZM19.1535 80.3665H19.1328C18.9652 82.7301 17.2502 82.7719 17.2502 82.7719C17.2502 82.7719 19.1328 82.8128 19.1328 85.5539C19.1328 82.8138 21.0154 82.7719 21.0154 82.7719C21.0154 82.7719 19.3211 82.7301 19.1535 80.3665Z" fill="#D0D5DD"/>
<path fill-rule="evenodd" clip-rule="evenodd" d="M53.1021 44.9468H47.1171V54.1379C47.1171 57.4108 49.7967 60.0641 53.1021 60.0641C56.4076 60.0641 59.0872 57.4108 59.0872 54.1379V44.9492C59.0901 41.4431 61.9593 38.6013 65.5 38.5971C69.0404 38.6013 71.9094 41.4425 71.9129 44.9481C71.9129 44.9489 71.9129 44.9497 71.9129 44.9505L71.9129 54.1379C71.9129 57.4108 74.5925 60.0641 77.898 60.0641C81.2034 60.0641 83.883 57.4108 83.883 54.1379L83.883 44.9468L83.883 44.9431C83.8766 34.8951 75.6517 26.7512 65.5038 26.7449L65.5 32.671L65.4963 26.7449C55.3484 26.7512 47.1235 34.8951 47.1171 44.9431L53.1021 44.9468Z" fill="#DC6803"/>
<path fill-rule="evenodd" clip-rule="evenodd" d="M83.5622 91.0853H47.4398C43.4554 91.0825 40.2262 87.9058 40.2234 83.9863V59.121C40.2259 55.2013 43.4552 52.0243 47.4398 52.0215H83.5622C87.5458 52.0254 90.7738 55.2017 90.7766 59.1205V83.9858C90.774 87.9047 87.546 91.0814 83.5622 91.0853Z" fill="#DC6803"/>
<path d="M60.1717 80.2836C60.1717 83.0451 62.4102 85.2836 65.1717 85.2836C67.9331 85.2836 70.1717 83.0451 70.1717 80.2836H60.1717ZM70.1717 71.1428C70.1717 68.3814 67.9331 66.1428 65.1717 66.1428C62.4102 66.1428 60.1717 68.3814 60.1717 71.1428H70.1717ZM65.1515 70.7038C67.9129 70.7038 70.1515 68.4652 70.1515 65.7038C70.1515 62.9424 67.9129 60.7038 65.1515 60.7038V70.7038ZM67.829 68.3813H72.829L72.829 68.3717L67.829 68.3813ZM65.1611 60.7038C62.3997 60.6985 60.1568 62.9328 60.1515 65.6942C60.1462 68.4556 62.3804 70.6985 65.1419 70.7038L65.1611 60.7038ZM70.1717 80.2836V71.1428H60.1717V80.2836H70.1717ZM65.1515 60.7038C60.9113 60.7038 57.474 64.1411 57.474 68.3813H67.474C67.474 69.664 66.4342 70.7038 65.1515 70.7038V60.7038ZM57.474 68.3813C57.474 72.6215 60.9113 76.0588 65.1515 76.0588V66.0588C66.4342 66.0588 67.474 67.0986 67.474 68.3813H57.474ZM65.1515 76.0588C69.3917 76.0588 72.829 72.6215 72.829 68.3813H62.829C62.829 67.0986 63.8688 66.0588 65.1515 66.0588V76.0588ZM72.829 68.3717C72.8208 64.1402 69.3926 60.712 65.1611 60.7038L65.1419 70.7038C63.8655 70.7013 62.8314 69.6673 62.829 68.3909L72.829 68.3717Z" fill="white"/>
<path d="M47.2993 16H83.4029C85.4715 15.9997 87.4554 16.847 88.9181 18.3553C90.3808 19.8636 91.2024 21.9095 91.2021 24.0426C91.2024 26.1757 90.3808 28.2215 88.9181 29.7298C87.4554 31.2381 85.4715 32.0854 83.4029 32.0851H47.2993C45.2307 32.0854 43.2468 31.2381 41.7841 29.7298C40.3214 28.2215 39.4997 26.1757 39.5 24.0426C39.4962 21.9083 40.3166 19.8604 41.7801 18.3512C43.2436 16.8421 45.2296 15.996 47.2993 16Z" fill="#F79009"/>
<path fill-rule="evenodd" clip-rule="evenodd" d="M56.6948 26.4183H57.845L57.7415 24.7633L59.1219 25.6839L59.6867 24.68L58.2013 23.9477L59.6867 23.2153L59.1219 22.2115L57.7415 23.1321L57.845 21.4771H56.6948L56.7982 23.1321L55.4178 22.2115L54.853 23.2153L56.3384 23.9477L54.853 24.68L55.4178 25.6839L56.7982 24.7633L56.6948 26.4183ZM48.7254 26.4184H48.7266L48.7265 26.4205L48.7254 26.4184ZM48.7266 26.4184H49.8757L49.7722 24.7634L51.1526 25.684L51.7174 24.6801L50.232 23.9478L51.7174 23.2154L51.1526 22.2116L49.7722 23.1322L49.8757 21.4772H48.7254L48.8289 23.1322L47.4485 22.2116L46.8848 23.218L48.3701 23.9504L46.8848 24.6822L47.4495 25.6861L48.8299 24.7655L48.7266 26.4184ZM65.8135 26.4184H64.6638L64.7667 24.768L63.3863 25.6886L62.8215 24.6848L64.3069 23.9524L62.8215 23.2201L63.3863 22.2162L64.7667 23.1368L64.6632 21.4818H65.8135L65.71 23.1368L67.0904 22.2116L67.6552 23.2154L66.1698 23.9478L67.6552 24.6801L67.0904 25.684L65.71 24.7634L65.8135 26.4184ZM72.6548 26.4183H73.805L73.7015 24.7633L75.0819 25.6839L75.6467 24.68L74.1613 23.9477L75.6467 23.2153L75.0819 22.2115L73.7015 23.1321L73.805 21.4771H72.6548L72.7582 23.1321L71.3778 22.2115L70.813 23.2153L72.2984 23.9477L70.813 24.68L71.3778 25.6839L72.7582 24.7633L72.6548 26.4183ZM81.774 26.4183H80.6238L80.7273 24.7633L79.3469 25.6839L78.7821 24.68L80.2675 23.9477L78.7821 23.2153L79.3469 22.2115L80.7273 23.1321L80.6238 21.4771H81.774L81.6706 23.1321L83.051 22.2115L83.6158 23.2153L82.1304 23.9477L83.6158 24.68L83.051 25.6839L81.6706 24.7633L81.774 26.4183Z" fill="white"/>
<path fill-rule="evenodd" clip-rule="evenodd" d="M111.437 88.6292C111.437 97.2139 105.075 105.225 96.5113 107.17C87.9475 105.224 81.5851 97.1906 81.5851 88.6292V81.888C81.5854 80.3498 82.5036 78.9649 83.9078 78.3844L93.2392 74.512C95.3411 73.631 97.7015 73.631 99.8033 74.512L109.135 78.3844C110.537 78.9672 111.454 80.3507 111.457 81.888L111.437 88.6287V88.6292Z" fill="#17B26A"/>
<path fill-rule="evenodd" clip-rule="evenodd" d="M104.164 85.7393C104.697 86.2708 104.697 87.1325 104.164 87.664L96.5264 95.2824C96.2705 95.5377 95.9234 95.6811 95.5615 95.6811C95.1997 95.6811 94.8526 95.5377 94.5967 95.2824L90.0273 90.7247C89.4945 90.1932 89.4945 89.3314 90.0273 88.7999C90.5602 88.2684 91.4241 88.2684 91.957 88.7999L95.5615 92.3953L102.235 85.7393C102.767 85.2078 103.631 85.2078 104.164 85.7393Z" fill="white"/>
</svg>
