<svg width="20" height="20" viewBox="0 0 20 20" fill="none" xmlns="http://www.w3.org/2000/svg">
<path d="M7.82924 16.1429L8.31628 17.2383C8.46106 17.5644 8.69734 17.8414 8.99647 18.0358C9.29559 18.2303 9.6447 18.3337 10.0015 18.3337C10.3582 18.3337 10.7073 18.2303 11.0065 18.0358C11.3056 17.8414 11.5419 17.5644 11.6866 17.2383L12.1737 16.1429C12.3471 15.7542 12.6387 15.4302 13.007 15.217C13.3777 15.0032 13.8065 14.9121 14.232 14.9568L15.4237 15.0837C15.7784 15.1212 16.1364 15.055 16.4543 14.8931C16.7721 14.7312 17.0362 14.4806 17.2144 14.1716C17.3929 13.8628 17.4779 13.5089 17.4592 13.1527C17.4405 12.7966 17.3188 12.4535 17.1089 12.1651L16.4033 11.1957C16.1521 10.8479 16.0178 10.4293 16.02 10.0003C16.0199 9.57248 16.1554 9.15562 16.407 8.80959L17.1126 7.84014C17.3225 7.55179 17.4442 7.20872 17.4629 6.85255C17.4816 6.49639 17.3966 6.14244 17.2181 5.83366C17.0399 5.52469 16.7758 5.27407 16.458 5.11218C16.1401 4.9503 15.7821 4.8841 15.4274 4.92162L14.2357 5.04847C13.8102 5.09317 13.3814 5.00209 13.0107 4.78829C12.6417 4.57387 12.35 4.24812 12.1774 3.85773L11.6866 2.76236C11.5419 2.4363 11.3056 2.15925 11.0065 1.96482C10.7073 1.77039 10.3582 1.66693 10.0015 1.66699C9.6447 1.66693 9.29559 1.77039 8.99647 1.96482C8.69734 2.15925 8.46106 2.4363 8.31628 2.76236L7.82924 3.85773C7.65668 4.24812 7.36497 4.57387 6.99591 4.78829C6.62525 5.00209 6.19647 5.09317 5.77091 5.04847L4.57554 4.92162C4.22081 4.8841 3.86282 4.9503 3.54497 5.11218C3.22711 5.27407 2.96305 5.52469 2.7848 5.83366C2.60632 6.14244 2.52128 6.49639 2.54002 6.85255C2.55876 7.20872 2.68046 7.55179 2.89035 7.84014L3.59591 8.80959C3.84753 9.15562 3.98302 9.57248 3.98295 10.0003C3.98302 10.4282 3.84753 10.845 3.59591 11.1911L2.89035 12.1605C2.68046 12.4489 2.55876 12.7919 2.54002 13.1481C2.52128 13.5043 2.60632 13.8582 2.7848 14.167C2.96323 14.4758 3.22732 14.7263 3.54513 14.8882C3.86294 15.05 4.22084 15.1163 4.57554 15.079L5.76721 14.9522C6.19276 14.9075 6.62155 14.9986 6.99221 15.2124C7.36265 15.4262 7.65571 15.752 7.82924 16.1429Z" stroke="#667085" stroke-width="1.5" stroke-linecap="round" stroke-linejoin="round"/>
<path d="M9.99997 12.5003C11.3807 12.5003 12.5 11.381 12.5 10.0003C12.5 8.61961 11.3807 7.50033 9.99997 7.50033C8.61926 7.50033 7.49998 8.61961 7.49998 10.0003C7.49998 11.381 8.61926 12.5003 9.99997 12.5003Z" stroke="#667085" stroke-width="1.5" stroke-linecap="round" stroke-linejoin="round"/>
</svg>
