<svg width="131" height="130" viewBox="0 0 131 130" fill="none" xmlns="http://www.w3.org/2000/svg">
<circle cx="65.5" cy="65" r="65" fill="#F9FAFB"/>
<path fill-rule="evenodd" clip-rule="evenodd" d="M82.3507 59.7827C89.4095 66.8405 91.5216 77.4556 87.702 86.6779C83.8824 95.9002 74.8834 101.913 64.9014 101.913C54.9195 101.913 45.9204 95.9002 42.1009 86.6779C38.2813 77.4556 40.3934 66.8405 47.4522 59.7827C57.0896 50.1468 72.7133 50.1468 82.3507 59.7827Z" fill="#DC6803"/>
<path fill-rule="evenodd" clip-rule="evenodd" d="M80.5406 61.5932C71.903 52.9568 57.9 52.9568 49.2623 61.5932C42.9357 67.9188 41.0427 77.4327 44.4661 85.6984C47.8895 93.964 55.955 99.3534 64.9015 99.3534C73.848 99.3534 81.9135 93.964 85.3369 85.6984C88.7602 77.4327 86.8672 67.9188 80.5406 61.5932ZM84.1608 57.9724C73.5237 47.3369 56.2793 47.3369 45.6422 57.9724C37.8511 65.7624 35.5199 77.4786 39.7357 87.6576C43.9515 97.8365 53.884 104.473 64.9015 104.473C75.9189 104.473 85.8515 97.8365 90.0673 87.6576C94.2831 77.4786 91.9519 65.7624 84.1608 57.9724Z" fill="#DC6803"/>
<path fill-rule="evenodd" clip-rule="evenodd" d="M64.8903 66.823C67.8758 66.8188 70.3021 69.2314 70.3144 72.2172L70.3144 72.2278C70.3144 74.2933 69.1556 76.0885 67.4523 76.9983V84.8324C67.4523 86.2463 66.3061 87.3924 64.8922 87.3924C63.4784 87.3924 62.3322 86.2463 62.3322 84.8324V76.9795C60.6547 76.0677 59.5133 74.2932 59.5049 72.2498C59.4928 69.27 61.8945 66.8428 64.8738 66.8231M65.1943 72.233C65.1908 72.0738 65.0619 71.9456 64.9026 71.9431C64.7481 71.9469 64.6243 72.0737 64.625 72.2289C64.6256 72.3859 64.7532 72.5127 64.9102 72.5124C65.0655 72.5121 65.1915 72.3876 65.1943 72.233Z" fill="white"/>
<path fill-rule="evenodd" clip-rule="evenodd" d="M66.1549 36.2567C60.2462 35.5112 54.7048 39.2754 53.2203 45.0429C52.8679 46.4122 51.4722 47.2364 50.1029 46.884C48.7337 46.5316 47.9094 45.1359 48.2618 43.7666C50.389 35.5023 58.3293 30.1087 66.7959 31.1769C75.2624 32.2452 81.6141 39.4421 81.6218 47.9758L81.6218 47.9781V57.0457C81.6218 58.4596 80.4757 59.6058 79.0618 59.6058C77.6479 59.6058 76.5017 58.4596 76.5017 57.0457L76.5017 47.9804C76.5017 47.9797 76.5017 47.9791 76.5017 47.9784C76.5017 47.9783 76.5017 47.9782 76.5017 47.9781C76.4952 42.0235 72.0629 37.0022 66.1549 36.2567Z" fill="#DC6803"/>
<path fill-rule="evenodd" clip-rule="evenodd" d="M108.324 54.8744C108.21 59.4118 105.046 63.2997 100.626 64.3322C96.2063 63.2995 93.0421 59.4117 92.9285 54.8744V51.4439C92.9283 50.6647 93.3987 49.9625 94.1194 49.6662L98.9374 47.6929C100.02 47.2481 101.234 47.2481 102.317 47.6929L107.135 49.6662C107.857 49.9606 108.328 50.664 108.326 51.4439V54.8744H108.324Z" fill="#B54708"/>
<path fill-rule="evenodd" clip-rule="evenodd" d="M104.479 53.1383C104.879 53.5382 104.879 54.1866 104.479 54.5865L100.87 58.1957C100.47 58.5956 99.8218 58.5956 99.4219 58.1957L97.2531 56.0268C96.8531 55.6269 96.8531 54.9785 97.2531 54.5786C97.653 54.1787 98.3013 54.1787 98.7012 54.5786L100.146 56.0234L103.031 53.1383C103.431 52.7384 104.079 52.7384 104.479 53.1383Z" fill="white"/>
<path fill-rule="evenodd" clip-rule="evenodd" d="M31.7185 66.2715C31.7185 72.8492 26.7761 79.0205 20.1093 80.512C13.4603 79.0184 8.5 72.8498 8.5 66.2715V61.1002C8.50032 59.9245 9.2091 58.8649 10.2956 58.4157L17.5492 55.4461C19.1829 54.7706 21.0177 54.7706 22.6514 55.4461L29.905 58.4157C30.9915 58.8649 31.7003 59.9245 31.7006 61.1002L31.7185 66.2715Z" fill="#DC6803"/>
<path fill-rule="evenodd" clip-rule="evenodd" d="M25.5449 64.0187C25.9448 64.4186 25.9448 65.067 25.5449 65.4669L20.1048 70.9069C19.7049 71.3068 19.0565 71.3068 18.6566 70.9069L15.3854 67.6357C14.9855 67.2358 14.9855 66.5874 15.3854 66.1875C15.7853 65.7876 16.4337 65.7876 16.8336 66.1875L19.3807 68.7347L24.0967 64.0187C24.4966 63.6188 25.145 63.6188 25.5449 64.0187Z" fill="white"/>
<path fill-rule="evenodd" clip-rule="evenodd" d="M41.4776 39.9245C41.3724 44.2092 38.382 47.88 34.207 48.8493C30.0365 47.8731 27.0494 44.2063 26.9365 39.9245V36.6891C26.9392 35.9477 27.3882 35.2809 28.0742 34.9995L32.6075 33.1327C33.6315 32.706 34.7836 32.706 35.8076 33.1327L40.3409 34.9995C41.0204 35.2887 41.4662 35.9507 41.4786 36.6891V39.9245H41.4776Z" fill="#F79009"/>
<path fill-rule="evenodd" clip-rule="evenodd" d="M37.8829 38.2408C38.2828 38.6407 38.2828 39.289 37.8829 39.6889L34.4693 43.1025C34.0694 43.5024 33.421 43.5024 33.0211 43.1025L30.9767 41.058C30.5768 40.6581 30.5768 40.0098 30.9767 39.6099C31.3766 39.21 32.025 39.21 32.4249 39.6099L33.7452 40.9302L36.4347 38.2408C36.8346 37.8409 37.483 37.8409 37.8829 38.2408Z" fill="white"/>
<path d="M107.525 79.0001L113.355 73.1693C113.456 73.067 113.593 73.0093 113.737 73.0093C113.881 73.0093 114.018 73.067 114.119 73.1693C114.222 73.2702 114.279 73.4078 114.279 73.5515C114.279 73.6952 114.222 73.8329 114.119 73.9337L108.288 79.765C108.187 79.8673 108.049 79.925 107.906 79.925C107.762 79.925 107.624 79.8673 107.523 79.765C107.421 79.664 107.364 79.5261 107.364 79.3823C107.364 79.2385 107.422 79.1008 107.525 79.0001Z" fill="#E1E4E5"/>
<path d="M111.116 79.0185L112.805 77.3288C112.906 77.2265 113.044 77.1689 113.187 77.1689C113.331 77.1689 113.469 77.2265 113.57 77.3288C113.672 77.4297 113.73 77.5674 113.73 77.7111C113.73 77.8547 113.672 77.9924 113.57 78.0933L111.88 79.7829C111.779 79.8852 111.641 79.9429 111.498 79.9429C111.354 79.9429 111.216 79.8852 111.116 79.7829C111.013 79.6821 110.956 79.5444 110.956 79.4007C110.956 79.257 111.013 79.1193 111.116 79.0185Z" fill="#E1E4E5"/>
<path d="M22.8648 43.3381L17.0335 49.1694C16.9327 49.2717 16.795 49.3294 16.6513 49.3294C16.5076 49.3294 16.37 49.2717 16.2691 49.1694C16.1668 49.0685 16.1091 48.9309 16.1091 48.7872C16.1091 48.6435 16.1668 48.5058 16.2691 48.405L22.0999 42.5737C22.2007 42.4714 22.3384 42.4137 22.4821 42.4137C22.6258 42.4137 22.7634 42.4714 22.8643 42.5737C22.9667 42.6745 23.0244 42.8121 23.0245 42.9558C23.0246 43.0995 22.9671 43.2372 22.8648 43.3381Z" fill="#E1E4E5"/>
<path d="M19.2898 43.3028L17.6002 44.9924C17.4993 45.0948 17.3617 45.1524 17.218 45.1524C17.0743 45.1524 16.9366 45.0948 16.8358 44.9924C16.7334 44.8916 16.6758 44.7539 16.6758 44.6102C16.6758 44.4665 16.7334 44.3289 16.8358 44.228L18.5254 42.5384C18.6262 42.436 18.7639 42.3784 18.9076 42.3784C19.0513 42.3784 19.189 42.436 19.2898 42.5384C19.3922 42.6392 19.4498 42.7769 19.4498 42.9206C19.4498 43.0643 19.3922 43.202 19.2898 43.3028Z" fill="#E1E4E5"/>
<path d="M36.5362 98.8595L30.7049 104.691C30.6041 104.793 30.4664 104.851 30.3227 104.851C30.179 104.851 30.0413 104.793 29.9405 104.691C29.8381 104.59 29.7805 104.452 29.7805 104.309C29.7805 104.165 29.8381 104.027 29.9405 103.926L35.7712 98.0951C35.8721 97.9927 36.0098 97.9351 36.1535 97.9351C36.2971 97.9351 36.4348 97.9927 36.5357 98.0951C36.6381 98.1959 36.6958 98.3335 36.6959 98.4772C36.696 98.6209 36.6385 98.7586 36.5362 98.8595Z" fill="#E1E4E5"/>
<path d="M32.9605 98.8235L31.2708 100.513C31.17 100.616 31.0323 100.673 30.8886 100.673C30.7449 100.673 30.6073 100.616 30.5064 100.513C30.4041 100.412 30.3464 100.275 30.3464 100.131C30.3464 99.9873 30.4041 99.8496 30.5064 99.7487L32.196 98.0591C32.2969 97.9568 32.4346 97.8991 32.5783 97.8991C32.7219 97.8991 32.8596 97.9568 32.9605 98.0591C33.0628 98.16 33.1204 98.2976 33.1204 98.4413C33.1204 98.585 33.0628 98.7227 32.9605 98.8235Z" fill="#E1E4E5"/>
<path d="M97.0528 32.4935L91.2215 38.3247C91.1207 38.4271 90.983 38.4847 90.8393 38.4847C90.6956 38.4847 90.5579 38.4271 90.4571 38.3247C90.3547 38.2239 90.2971 38.0862 90.2971 37.9425C90.2971 37.7988 90.3547 37.6611 90.4571 37.5603L96.2878 31.729C96.3887 31.6267 96.5264 31.5691 96.6701 31.5691C96.8137 31.5691 96.9514 31.6267 97.0523 31.729C97.1547 31.8298 97.2124 31.9675 97.2125 32.1111C97.2126 32.2548 97.1551 32.3925 97.0528 32.4935Z" fill="#E1E4E5"/>
<path d="M93.4595 32.4581L91.7699 34.1478C91.669 34.2501 91.5313 34.3077 91.3876 34.3077C91.244 34.3077 91.1063 34.2501 91.0054 34.1478C90.9031 34.0469 90.8455 33.9092 90.8455 33.7655C90.8455 33.6219 90.9031 33.4842 91.0054 33.3833L92.6951 31.6937C92.7959 31.5913 92.9336 31.5337 93.0773 31.5337C93.221 31.5337 93.3586 31.5913 93.4595 31.6937C93.5618 31.7945 93.6195 31.9322 93.6195 32.0759C93.6195 32.2196 93.5618 32.3573 93.4595 32.4581Z" fill="#E1E4E5"/>
<circle cx="107.149" cy="91.5114" r="1.99116" transform="rotate(-59.9993 107.149 91.5114)" fill="#DC6803"/>
<circle cx="120.182" cy="66.3787" r="1.54678" fill="#E1E4E5"/>
<circle cx="99.9688" cy="82.6097" r="1.67119" fill="white"/>
<path fill-rule="evenodd" clip-rule="evenodd" d="M82.5145 27.5822C82.1887 27.2564 81.7463 27.0739 81.2854 27.0752L81.2838 27.0752C80.3241 27.0752 79.5461 27.8532 79.5461 28.813C79.5461 29.7727 80.3241 30.5507 81.2838 30.5507C82.2435 30.5507 83.0216 29.7727 83.0216 28.813H83.5592L83.0216 28.8114C83.0229 28.3505 82.8404 27.9081 82.5145 27.5822ZM84.0968 28.813C84.0986 28.0664 83.8028 27.3499 83.2748 26.822C82.7467 26.2938 82.0299 25.998 81.283 26C81.2833 26 81.2835 26 81.2838 26V26.5376L81.2822 26C81.2825 26 81.2828 26 81.283 26M14.8337 89.1835C14.5078 88.8576 14.0654 88.6751 13.6046 88.6765H13.603C12.6433 88.6765 11.8652 89.4545 11.8652 90.4142C11.8652 91.374 12.6433 92.152 13.603 92.152C14.5627 92.152 15.3407 91.374 15.3407 90.4142H15.8777L15.3407 90.4126C15.3421 89.9518 15.1596 89.5094 14.8337 89.1835ZM16.416 90.415C16.4179 89.6682 16.1221 88.9513 15.594 88.4232C15.0661 87.8952 14.3496 87.5995 13.603 87.6012" fill="#E1E4E5"/>
<path fill-rule="evenodd" clip-rule="evenodd" d="M39.736 51.9427C37.0162 53.1336 35.0071 56.476 35.0071 56.476L35.0091 56.4739C35.8817 55.6729 37.0945 54.8491 38.123 54.1505C39.1463 53.4554 39.9872 52.8842 40.1292 52.5827C40.2212 52.4397 40.2402 52.2616 40.1804 52.1024C40.097 51.9409 39.9031 51.8711 39.736 51.9427ZM24.376 84.4586C24.376 84.4586 26.3851 81.1162 29.1049 79.9253C29.272 79.8538 29.466 79.9235 29.5493 80.0851C29.6091 80.2442 29.5901 80.4223 29.4981 80.5653C29.3579 80.8631 28.536 81.4196 27.53 82.1007C26.4935 82.8024 25.2614 83.6366 24.378 84.4566L24.376 84.4586ZM88.8036 99.9432L88.8047 99.9427L88.8041 99.9432H88.8036ZM88.8047 99.9427C90.4915 98.3371 92.256 96.0587 93.743 94.1387C95.1865 92.2747 96.3685 90.7485 96.964 90.5033C97.2563 90.3491 97.603 90.3361 97.9061 90.468C98.2098 90.6438 98.3198 91.0286 98.1549 91.3384C95.543 96.4388 88.9018 99.8924 88.8047 99.9427Z" fill="#E1E4E5"/>
<path d="M108.484 40.8841C104.858 44.0309 98.6351 42.8041 98.6351 42.8041C98.6351 42.8041 98.3151 36.4752 101.942 33.3284C105.568 30.1816 111.791 31.4084 111.791 31.4084C111.791 31.4084 112.111 37.7373 108.484 40.8841Z" fill="url(#paint0_linear_8168_13135)"/>
<defs>
<linearGradient id="paint0_linear_8168_13135" x1="69.5907" y1="102.461" x2="92.8028" y2="148.963" gradientUnits="userSpaceOnUse">
<stop stop-color="white"/>
<stop offset="1" stop-color="#EEEEEE"/>
</linearGradient>
</defs>
</svg>
