<svg width="25" height="25" viewBox="0 0 25 25" fill="none" xmlns="http://www.w3.org/2000/svg">
<path d="M11.7827 3.95332C12.0131 3.48638 12.1284 3.25291 12.2848 3.17831C12.4209 3.11341 12.5791 3.11341 12.7152 3.17831C12.8717 3.25291 12.9869 3.48638 13.2174 3.95332L15.4041 8.38328C15.4721 8.52113 15.5061 8.59006 15.5558 8.64358C15.5999 8.69096 15.6527 8.72935 15.7113 8.75662C15.7776 8.78742 15.8536 8.79854 16.0057 8.82077L20.897 9.53571C21.4121 9.61099 21.6696 9.64863 21.7888 9.77444C21.8925 9.88389 21.9412 10.0343 21.9215 10.1838C21.8988 10.3556 21.7124 10.5372 21.3395 10.9004L17.8014 14.3464C17.6912 14.4538 17.636 14.5076 17.6004 14.5715C17.5689 14.628 17.5487 14.6902 17.5409 14.7545C17.5321 14.8271 17.5451 14.903 17.5711 15.0547L18.406 19.9221C18.494 20.4355 18.538 20.6922 18.4553 20.8445C18.3833 20.977 18.2554 21.07 18.1071 21.0975C17.9366 21.1291 17.7061 21.0078 17.2451 20.7654L12.8724 18.4658C12.7361 18.3942 12.668 18.3584 12.5962 18.3443C12.5327 18.3318 12.4673 18.3318 12.4038 18.3443C12.332 18.3584 12.2639 18.3942 12.1277 18.4658L7.75492 20.7654C7.29392 21.0078 7.06341 21.1291 6.89297 21.0975C6.74468 21.07 6.61672 20.977 6.54474 20.8445C6.462 20.6922 6.50603 20.4355 6.59407 19.9221L7.42889 15.0547C7.45491 14.903 7.46793 14.8271 7.45912 14.7545C7.45132 14.6902 7.43111 14.628 7.39961 14.5715C7.36402 14.5076 7.30888 14.4538 7.19859 14.3464L3.66056 10.9004C3.28766 10.5372 3.10121 10.3556 3.07853 10.1838C3.05879 10.0343 3.10755 9.88389 3.21125 9.77444C3.33044 9.64863 3.58797 9.61099 4.10304 9.53571L8.99431 8.82077C9.14642 8.79854 9.22248 8.78742 9.28872 8.75662C9.34736 8.72935 9.40016 8.69096 9.44419 8.64358C9.49391 8.59006 9.52793 8.52113 9.59597 8.38328L11.7827 3.95332Z" stroke="#7A5AF8" stroke-width="2" stroke-linecap="round" stroke-linejoin="round"/>
</svg>
