<svg width="131" height="130" viewBox="0 0 131 130" fill="none" xmlns="http://www.w3.org/2000/svg">
<circle cx="65.5" cy="65" r="65" fill="#F9FAFB"/>
<path d="M108.449 76.3183C109.054 87.3689 87.4546 109.815 60.8577 101.497C48.4758 97.6233 49.5306 91.2079 40.1231 82.7686C34.5203 77.7363 26.4613 73.9143 24.2132 66.5995C22.2765 60.2698 23.4698 53.4729 26.8245 49.0642C34.3814 39.1207 49.6168 32.3071 64.6274 47.9746C79.6381 63.625 106.892 47.8361 108.449 76.3183Z" fill="white"/>
<path d="M102.83 47.8032C100.703 51.5904 96.068 52.1091 88.6322 51.3831C83.0463 50.847 77.9448 50.4145 72.342 47.3712C68.7728 45.394 65.6241 42.7388 63.0726 39.5547C60.6168 36.5109 57.2103 33.0526 58.8704 29.6112C61.1703 24.8903 74.5034 20.8954 87.4389 27.4149C101.67 34.5742 104.905 44.1027 102.83 47.8058V47.8032Z" fill="white"/>
<path fill-rule="evenodd" clip-rule="evenodd" d="M90.2056 90.6383C90.2056 86.1302 93.86 82.4758 98.3681 82.4758C102.876 82.4758 106.531 86.1302 106.531 90.6383M106.531 90.6387C106.531 95.1467 102.876 98.8012 98.3683 98.8012C93.8602 98.8012 90.2058 95.1467 90.2058 90.6387" fill="#DC6803"/>
<path fill-rule="evenodd" clip-rule="evenodd" d="M95.6183 87.6844C95.9702 87.6844 96.2555 87.9696 96.2555 88.3216V90.0336C96.2555 90.3855 95.9702 90.6708 95.6183 90.6708C95.2663 90.6708 94.981 90.3855 94.981 90.0336V88.3216C94.981 87.9696 95.2663 87.6844 95.6183 87.6844ZM101.098 87.6844C101.45 87.6844 101.736 87.9696 101.736 88.3216V90.0336C101.736 90.3855 101.45 90.6708 101.098 90.6708C100.746 90.6708 100.461 90.3855 100.461 90.0336V88.3216C100.461 87.9696 100.746 87.6844 101.098 87.6844ZM95.0635 92.4417C95.2808 92.1649 95.6814 92.1166 95.9582 92.334C97.3717 93.4437 99.3606 93.4437 100.774 92.334C101.051 92.1166 101.451 92.1649 101.669 92.4417C101.886 92.7185 101.838 93.1191 101.561 93.3364C99.6856 94.8088 97.0467 94.8088 95.1712 93.3364C94.8944 93.1191 94.8462 92.7185 95.0635 92.4417Z" fill="white"/>
<path fill-rule="evenodd" clip-rule="evenodd" d="M31.7024 92.662C27.1849 92.662 23.5227 88.9998 23.5227 84.4823C23.5227 79.9648 27.1849 76.3026 31.7024 76.3026C36.2199 76.3026 39.8821 79.9648 39.8821 84.4823C39.8793 88.9987 36.2188 92.6592 31.7024 92.662Z" fill="#DC6803"/>
<path fill-rule="evenodd" clip-rule="evenodd" d="M34.4826 82.9199C34.7344 83.1658 34.7391 83.5692 34.4932 83.821L31.5705 86.8129C31.4507 86.9355 31.2866 87.0047 31.1153 87.0049C30.9439 87.005 30.7797 86.9362 30.6597 86.8138L28.8959 85.0152C28.6495 84.7639 28.6534 84.3604 28.9047 84.114C29.156 83.8676 29.5594 83.8716 29.8058 84.1228L31.1138 85.4566L33.5815 82.9304C33.8274 82.6787 34.2309 82.674 34.4826 82.9199Z" fill="white"/>
<path d="M34.3821 65.3731L31.0618 68.6934C31.0049 68.7515 30.9269 68.7842 30.8456 68.7842C30.7642 68.7842 30.6863 68.7515 30.6294 68.6934C30.5713 68.6364 30.5386 68.5585 30.5386 68.4772C30.5386 68.3958 30.5713 68.3179 30.6294 68.2609L33.9497 64.9406C34.0066 64.8826 34.0846 64.8498 34.1659 64.8498C34.2472 64.8498 34.3252 64.8826 34.3821 64.9406C34.4403 64.9975 34.4731 65.0755 34.4731 65.1569C34.4731 65.2382 34.4403 65.3162 34.3821 65.3731Z" fill="#D0D5DD"/>
<path d="M32.3596 65.3558L31.4085 66.307C31.3515 66.365 31.2736 66.3978 31.1923 66.3978C31.1109 66.3978 31.033 66.365 30.976 66.307C30.918 66.25 30.8853 66.1721 30.8853 66.0907C30.8853 66.0094 30.918 65.9315 30.976 65.8745L31.9272 64.9234C31.9842 64.8653 32.0621 64.8326 32.1434 64.8326C32.2248 64.8326 32.3027 64.8653 32.3596 64.9234C32.4178 64.9803 32.4506 65.0582 32.4506 65.1396C32.4506 65.221 32.4178 65.2989 32.3596 65.3558Z" fill="#D0D5DD"/>
<path d="M110.542 55.2047L107.221 58.5076C107.165 58.5656 107.087 58.5983 107.005 58.5983C106.924 58.5983 106.846 58.5656 106.789 58.5076C106.731 58.4506 106.698 58.3727 106.698 58.2913C106.698 58.21 106.731 58.1321 106.789 58.0751L110.108 54.7552C110.165 54.6971 110.243 54.6644 110.324 54.6644C110.405 54.6644 110.483 54.6971 110.54 54.7552C110.662 54.8802 110.662 55.0788 110.542 55.2047Z" fill="#D0D5DD"/>
<path d="M108.519 55.1873L107.568 56.1384C107.511 56.1965 107.433 56.2292 107.351 56.2292C107.27 56.2292 107.192 56.1965 107.135 56.1384C107.077 56.0815 107.044 56.0036 107.044 55.9222C107.044 55.8408 107.077 55.7629 107.135 55.706L108.086 54.7548C108.143 54.6967 108.221 54.664 108.303 54.664C108.384 54.664 108.462 54.6967 108.519 54.7548C108.577 54.8118 108.61 54.8897 108.61 54.971C108.61 55.0524 108.577 55.1303 108.519 55.1873Z" fill="#D0D5DD"/>
<path d="M81.8353 84.7067L78.5149 88.027C78.458 88.0851 78.3801 88.1178 78.2987 88.1178C78.2174 88.1178 78.1394 88.0851 78.0825 88.027C78.0244 87.97 77.9917 87.8921 77.9917 87.8108C77.9917 87.7294 78.0244 87.6515 78.0825 87.5945L81.4011 84.2747C81.4581 84.2166 81.536 84.1839 81.6173 84.1839C81.6987 84.1839 81.7766 84.2166 81.8336 84.2747C81.8917 84.3314 81.9247 84.4091 81.925 84.4903C81.9253 84.5716 81.893 84.6495 81.8353 84.7067Z" fill="#D0D5DD"/>
<path d="M79.7949 84.6895L78.8437 85.6406C78.7868 85.6987 78.7089 85.7314 78.6275 85.7314C78.5462 85.7314 78.4682 85.6987 78.4113 85.6406C78.3531 85.5837 78.3203 85.5058 78.3203 85.4244C78.3203 85.343 78.3531 85.2651 78.4113 85.2082L79.3624 84.257C79.4194 84.1989 79.4973 84.1662 79.5787 84.1662C79.66 84.1662 79.7379 84.1989 79.7949 84.257C79.853 84.314 79.8857 84.3919 79.8857 84.4732C79.8857 84.5546 79.853 84.6325 79.7949 84.6895Z" fill="#D0D5DD"/>
<path d="M52.5232 84.7067L49.2029 88.027C49.146 88.0851 49.068 88.1178 48.9867 88.1178C48.9054 88.1178 48.8274 88.0851 48.7705 88.027C48.7124 87.9701 48.6797 87.8921 48.6797 87.8108C48.6797 87.7295 48.7124 87.6515 48.7705 87.5946L52.0908 84.2743C52.1477 84.2162 52.2257 84.1835 52.307 84.1835C52.3884 84.1835 52.4663 84.2162 52.5232 84.2743C52.5813 84.3312 52.614 84.4091 52.614 84.4905C52.614 84.5718 52.5813 84.6498 52.5232 84.7067Z" fill="#D0D5DD"/>
<path d="M50.5 84.6895L49.5489 85.6406C49.4919 85.6987 49.414 85.7314 49.3327 85.7314C49.2513 85.7314 49.1734 85.6987 49.1164 85.6406C49.0584 85.5836 49.0256 85.5057 49.0256 85.4244C49.0256 85.343 49.0584 85.2651 49.1164 85.2082L50.0676 84.257C50.1245 84.1989 50.2025 84.1662 50.2838 84.1662C50.3651 84.1662 50.4431 84.1989 50.5 84.257C50.5581 84.314 50.5908 84.3919 50.5908 84.4732C50.5908 84.5546 50.5581 84.6325 50.5 84.6895Z" fill="#D0D5DD"/>
<path fill-rule="evenodd" clip-rule="evenodd" d="M24.5603 46.108H25.2867C25.3694 46.1076 25.4488 46.1403 25.5073 46.1988C25.5657 46.2573 25.5984 46.3367 25.5981 46.4193V47.1458C25.5984 47.2285 25.5657 47.3079 25.5073 47.3663C25.4488 47.4248 25.3694 47.4575 25.2867 47.4572H24.5603C24.4776 47.4575 24.3982 47.4248 24.3397 47.3663C24.2812 47.3079 24.2485 47.2285 24.2489 47.1458V46.4193C24.2424 46.335 24.2732 46.252 24.333 46.1921C24.3929 46.1323 24.4759 46.1015 24.5603 46.108ZM27.0667 46.1083H27.7931C27.8758 46.108 27.9552 46.1407 28.0137 46.1991C28.0721 46.2576 28.1048 46.337 28.1045 46.4197V47.1461C28.1048 47.2288 28.0721 47.3082 28.0137 47.3667C27.9552 47.4251 27.8758 47.4578 27.7931 47.4575H27.0667C26.984 47.4578 26.9046 47.4251 26.8461 47.3667C26.7876 47.3082 26.7549 47.2288 26.7553 47.1461V46.4197C26.7549 46.3369 26.7878 46.2573 26.8464 46.1988C26.9051 46.1403 26.9847 46.1077 27.0675 46.1083H27.0667ZM29.5731 46.1083H30.2995C30.3822 46.108 30.4616 46.1407 30.5201 46.1991C30.5786 46.2576 30.6113 46.337 30.6109 46.4197V47.1461C30.6113 47.2288 30.5786 47.3082 30.5201 47.3667C30.4616 47.4251 30.3822 47.4578 30.2995 47.4575H29.5731C29.4904 47.4578 29.411 47.4251 29.3526 47.3667C29.2941 47.3082 29.2614 47.2288 29.2617 47.1461V46.4197C29.2614 46.337 29.2941 46.2576 29.3526 46.1991C29.411 46.1407 29.4904 46.108 29.5731 46.1083ZM32.0796 46.1083H32.806C32.8887 46.108 32.9681 46.1407 33.0266 46.1992C33.085 46.2576 33.1177 46.337 33.1174 46.4197V47.1461C33.1177 47.2288 33.085 47.3082 33.0266 47.3667C32.9681 47.4252 32.8887 47.4579 32.806 47.4575H32.0796C31.9969 47.4579 31.9175 47.4252 31.859 47.3667C31.8005 47.3082 31.7678 47.2288 31.7682 47.1461V46.4197C31.7678 46.3364 31.801 46.2565 31.8602 46.1979C31.9194 46.1394 31.9997 46.1071 32.083 46.1083H32.0796ZM34.6043 46.1083H35.3307C35.4134 46.108 35.4928 46.1407 35.5513 46.1991C35.6098 46.2576 35.6425 46.337 35.6421 46.4197V47.1461C35.6425 47.2288 35.6098 47.3082 35.5513 47.3667C35.4928 47.4251 35.4134 47.4578 35.3307 47.4575H34.6043C34.5216 47.4578 34.4422 47.4251 34.3838 47.3667C34.3253 47.3082 34.2926 47.2288 34.2929 47.1461V46.4197C34.2895 46.3355 34.3216 46.2537 34.3815 46.1945C34.4415 46.1352 34.5236 46.1039 34.6077 46.1083H34.6043ZM27.1506 48.8406H27.877C27.9597 48.8403 28.0391 48.873 28.0976 48.9314C28.1561 48.9899 28.1888 49.0693 28.1884 49.152V49.8784C28.1888 49.9611 28.1561 50.0405 28.0976 50.099C28.0391 50.1575 27.9597 50.1902 27.877 50.1898H27.1506C27.0679 50.1902 26.9885 50.1575 26.93 50.099C26.8716 50.0405 26.8389 49.9611 26.8392 49.8784V49.1694C26.8372 48.9938 26.9751 48.8484 27.1506 48.841V48.8406ZM29.6571 48.8406H30.3835C30.4662 48.8403 30.5456 48.873 30.604 48.9314C30.6625 48.9899 30.6952 49.0693 30.6949 49.152V49.8784C30.6952 49.9611 30.6625 50.0405 30.604 50.099C30.5456 50.1575 30.4662 50.1902 30.3835 50.1898H29.6571C29.5744 50.1902 29.495 50.1575 29.4365 50.099C29.378 50.0405 29.3453 49.9611 29.3457 49.8784V49.1694C29.3437 48.9938 29.4816 48.8484 29.6571 48.841V48.8406ZM32.1818 48.8405H32.9082C32.9909 48.8402 33.0703 48.8729 33.1287 48.9313C33.1872 48.9898 33.2199 49.0692 33.2196 49.1519V49.8783C33.2199 49.961 33.1872 50.0404 33.1287 50.0989C33.0703 50.1573 32.9909 50.19 32.9082 50.1897H32.1818C32.0991 50.19 32.0197 50.1573 31.9612 50.0989C31.9027 50.0404 31.87 49.961 31.8704 49.8783V49.1693C31.8632 49.0823 31.8938 48.9965 31.9542 48.9336C32.0147 48.8707 32.0993 48.8368 32.1864 48.8405H32.1818ZM29.5755 43.1686H30.3019C30.3846 43.1682 30.464 43.2009 30.5225 43.2594C30.5809 43.3178 30.6136 43.3972 30.6133 43.4799V44.2064C30.6136 44.289 30.5809 44.3684 30.5225 44.4269C30.464 44.4854 30.3846 44.5181 30.3019 44.5177H29.5755C29.4928 44.5181 29.4134 44.4854 29.3549 44.4269C29.2964 44.3684 29.2638 44.289 29.2641 44.2064V43.4799C29.2638 43.3972 29.2964 43.3178 29.3549 43.2594C29.4134 43.2009 29.4928 43.1682 29.5755 43.1686ZM32.0811 43.1686H32.8076C32.8903 43.1682 32.9697 43.2009 33.0281 43.2594C33.0866 43.3178 33.1193 43.3972 33.119 43.4799V44.2064C33.1193 44.289 33.0866 44.3684 33.0281 44.4269C32.9697 44.4854 32.8903 44.5181 32.8076 44.5177H32.0811C31.9985 44.5181 31.9191 44.4854 31.8606 44.4269C31.8021 44.3684 31.7694 44.289 31.7698 44.2064V43.4799C31.7694 43.3972 31.8021 43.3178 31.8606 43.2594C31.9191 43.2009 31.9985 43.1682 32.0811 43.1686ZM59.8372 54.4782H60.5636C60.6463 54.4778 60.7257 54.5105 60.7842 54.569C60.8427 54.6275 60.8754 54.7069 60.875 54.7896V55.516C60.8754 55.5987 60.8427 55.6781 60.7842 55.7365C60.7257 55.795 60.6463 55.8277 60.5636 55.8274H59.8372C59.7545 55.8277 59.6751 55.795 59.6166 55.7365C59.5582 55.6781 59.5255 55.5987 59.5258 55.516V54.7896C59.5255 54.7069 59.5582 54.6275 59.6166 54.569C59.6751 54.5105 59.7545 54.4778 59.8372 54.4782ZM62.3437 54.4782H63.0701C63.1528 54.4778 63.2322 54.5105 63.2906 54.569C63.3491 54.6275 63.3818 54.7069 63.3815 54.7896V55.516C63.3818 55.5987 63.3491 55.6781 63.2906 55.7366C63.2322 55.795 63.1528 55.8277 63.0701 55.8274H62.3437C62.261 55.8277 62.1816 55.795 62.1231 55.7366C62.0646 55.6781 62.0319 55.5987 62.0323 55.516V54.7896C62.0319 54.7065 62.0649 54.6268 62.1238 54.5683C62.1828 54.5097 62.2627 54.4773 62.3458 54.4782H62.3437ZM64.8684 54.478H65.5948C65.6775 54.4777 65.7569 54.5104 65.8154 54.5688C65.8738 54.6273 65.9065 54.7067 65.9062 54.7894V55.5158C65.9065 55.5985 65.8738 55.6779 65.8154 55.7364C65.7569 55.7949 65.6775 55.8276 65.5948 55.8272H64.8684C64.7857 55.8276 64.7063 55.7949 64.6478 55.7364C64.5894 55.6779 64.5567 55.5985 64.557 55.5158V54.7894C64.5536 54.7058 64.5853 54.6246 64.6445 54.5655C64.7036 54.5063 64.7848 54.4746 64.8684 54.478ZM67.3746 54.4782H68.101C68.1837 54.4779 68.2631 54.5106 68.3216 54.569C68.38 54.6275 68.4127 54.7069 68.4124 54.7896V55.516C68.4127 55.5987 68.38 55.6781 68.3216 55.7366C68.2631 55.795 68.1837 55.8277 68.101 55.8274H67.3746C67.2919 55.8277 67.2125 55.795 67.154 55.7366C67.0956 55.6781 67.0629 55.5987 67.0632 55.516V54.7896C67.0629 54.7063 67.096 54.6264 67.1552 54.5678C67.2144 54.5092 67.2947 54.4769 67.378 54.4782H67.3746ZM69.881 54.4782H70.6075C70.6902 54.4779 70.7696 54.5106 70.828 54.5691C70.8865 54.6275 70.9192 54.7069 70.9188 54.7896V55.516C70.9192 55.5987 70.8865 55.6781 70.828 55.7366C70.7696 55.7951 70.6902 55.8278 70.6075 55.8274H69.881C69.7984 55.8278 69.719 55.7951 69.6605 55.7366C69.602 55.6781 69.5693 55.5987 69.5697 55.516V54.7896C69.5693 54.7061 69.6026 54.626 69.6621 54.5674C69.7216 54.5088 69.8022 54.4766 69.8857 54.4782H69.881ZM62.4472 57.2105H63.1736C63.2563 57.2102 63.3357 57.2429 63.3942 57.3013C63.4526 57.3598 63.4853 57.4392 63.485 57.5219V58.2483C63.4853 58.331 63.4526 58.4104 63.3942 58.4689C63.3357 58.5273 63.2563 58.56 63.1736 58.5597H62.4472C62.3645 58.56 62.2851 58.5273 62.2266 58.4689C62.1681 58.4104 62.1355 58.331 62.1358 58.2483V57.5219C62.1351 57.4391 62.1677 57.3595 62.2262 57.3009C62.2848 57.2424 62.3644 57.2098 62.4472 57.2105ZM64.9536 57.2105H65.68C65.7627 57.2101 65.8421 57.2428 65.9006 57.3013C65.9591 57.3598 65.9918 57.4392 65.9914 57.5219V58.2483C65.9918 58.331 65.9591 58.4104 65.9006 58.4689C65.8421 58.5273 65.7627 58.56 65.68 58.5597H64.9536C64.8709 58.56 64.7915 58.5273 64.7331 58.4689C64.6746 58.4104 64.6419 58.331 64.6422 58.2483V57.5219C64.6534 57.3547 64.7865 57.2216 64.9536 57.2105ZM67.4593 57.2105H68.1857C68.2684 57.2101 68.3478 57.2428 68.4063 57.3013C68.4647 57.3598 68.4974 57.4392 68.4971 57.5219V58.2483C68.4974 58.331 68.4647 58.4104 68.4063 58.4689C68.3478 58.5273 68.2684 58.56 68.1857 58.5597H67.4593C67.3766 58.56 67.2972 58.5273 67.2387 58.4689C67.1803 58.4104 67.1476 58.331 67.1479 58.2483V57.5219C67.1533 57.3502 67.2927 57.2131 67.4644 57.2105H67.4593ZM64.8707 51.5371H65.5972C65.6798 51.5368 65.7592 51.5695 65.8177 51.6279C65.8762 51.6864 65.9089 51.7658 65.9085 51.8485V52.5749C65.9089 52.6576 65.8762 52.737 65.8177 52.7955C65.7592 52.8539 65.6798 52.8866 65.5972 52.8863H64.8707C64.788 52.8866 64.7086 52.8539 64.6502 52.7955C64.5917 52.737 64.559 52.6576 64.5593 52.5749V51.8485C64.556 51.7649 64.5877 51.6837 64.6468 51.6246C64.706 51.5654 64.7872 51.5337 64.8707 51.5371ZM67.3769 51.5373H68.1034C68.1861 51.5369 68.2655 51.5696 68.3239 51.6281C68.3824 51.6865 68.4151 51.7659 68.4148 51.8486V52.5751C68.4151 52.6577 68.3824 52.7371 68.3239 52.7956C68.2655 52.8541 68.1861 52.8868 68.1034 52.8864H67.3769C67.2943 52.8868 67.2149 52.8541 67.1564 52.7956C67.0979 52.7371 67.0652 52.6577 67.0656 52.5751V51.8486C67.0652 51.7658 67.098 51.6863 67.1567 51.6278C67.2153 51.5693 67.295 51.5367 67.3778 51.5373H67.3769Z" fill="#D0D5DD"/>
<path d="M121.04 53.994C118.273 54.6512 115.35 52.2994 115.35 52.2994C115.35 52.2994 116.907 48.8924 119.673 48.2357C122.44 47.5789 125.363 49.9302 125.363 49.9302C125.363 49.9302 123.806 53.3372 121.04 53.994Z" fill="white"/>
<path d="M44.7588 32.3433C47.6641 34.3493 52.1259 32.9487 52.1259 32.9487C52.1259 32.9487 51.8493 28.2966 48.9266 26.2906C46.0201 24.2847 41.5596 25.6853 41.5596 25.6853C41.5596 25.6853 41.8535 30.3374 44.7588 32.3433Z" fill="white"/>
<path d="M41.7846 103.591C44.5863 105.563 48.9096 104.248 48.9096 104.248C48.9096 104.248 48.6848 99.7348 45.8832 97.7633C43.0816 95.7917 38.7583 97.1061 38.7583 97.1061C38.7583 97.1061 38.983 101.603 41.7846 103.591Z" fill="white"/>
<ellipse cx="112.116" cy="94.4607" rx="2.35175" ry="2.24809" fill="#DC6803"/>
<ellipse cx="67.2747" cy="35.4385" rx="2.24809" ry="2.17885" fill="#2970FF"/>
<circle cx="5.62405" cy="66.8083" r="1.12405" fill="#DC6803"/>
<circle cx="113.707" cy="38.5344" r="2.14444" fill="#175A63"/>
<ellipse cx="82.2504" cy="101.672" rx="2.38658" ry="2.29992" fill="#D0D5DD"/>
<circle cx="20.2543" cy="82.6323" r="1.19329" fill="#D0D5DD"/>
<circle cx="60.2364" cy="105.874" r="0.709007" fill="#D0D5DD"/>
<circle cx="102.414" cy="33.2252" r="1.02039" fill="#D0D5DD"/>
<circle cx="7.90678" cy="90.0335" r="1.00298" fill="#D0D5DD"/>
<circle cx="34.729" cy="34.1244" r="1.33178" fill="#D0D5DD"/>
<ellipse cx="114.571" cy="62.9176" rx="1.02039" ry="0.812661" fill="#D0D5DD"/>
<circle cx="80.3657" cy="38.0499" r="2.0752" fill="#D0D5DD"/>
<path fill-rule="evenodd" clip-rule="evenodd" d="M13.077 43.1685H13.0252C12.7486 47.0768 9.89478 47.146 9.89478 47.146C9.89478 47.146 13.0596 47.2149 13.0596 51.7459C13.0596 47.2153 16.2244 47.146 16.2244 47.146C16.2244 47.146 13.3536 47.0942 13.077 43.1685ZM124.376 56.7262H124.342C124.186 58.9573 122.526 59.0087 122.526 59.0087C122.526 59.0087 124.359 59.0435 124.359 61.6374C124.359 59.0431 126.192 59.0087 126.192 59.0087C126.192 59.0087 124.532 58.9743 124.376 56.7262Z" fill="#D0D5DD"/>
<path d="M38.257 67.0853C36.9082 56.8474 43.9808 44.6553 59.0433 46.5062C71.8229 48.078 74.5914 46.0568 80.0892 43.1685C83.7209 41.2662 89.4104 37.9115 94.0103 47.5262C100.046 60.1158 85.8998 79.8474 73.2583 85.9001C61.1878 91.6775 40.6949 85.6754 38.257 67.0848V67.0853Z" fill="#DC6803"/>
<path fill-rule="evenodd" clip-rule="evenodd" d="M78.7288 56.7557C79.5629 57.5806 79.5704 58.9255 78.7455 59.7596L63.2854 75.3925C62.8866 75.7958 62.3431 76.0228 61.7759 76.023C61.2087 76.0232 60.665 75.7966 60.2659 75.3936L53.1759 68.2343C52.3504 67.4008 52.357 66.0559 53.1905 65.2305C54.024 64.405 55.3688 64.4116 56.1943 65.2451L61.7741 70.8794L75.725 56.7724C76.5499 55.9384 77.8947 55.9309 78.7288 56.7557Z" fill="white"/>
</svg>
