<svg width="169" height="118" viewBox="0 0 169 118" fill="none" xmlns="http://www.w3.org/2000/svg">
<path d="M40.5245 91.7071C40.6073 90.5726 40.5554 89.4412 40.4063 88.3064C39.8035 83.9618 37.4798 79.8439 33.6218 77.0813C26.169 71.7444 15.7867 73.462 10.4498 80.9148C5.11287 88.3677 6.83052 98.75 14.2834 104.087C16.6946 105.814 19.4076 106.795 22.1652 107.111C23.4469 107.266 24.7351 107.227 26.0046 107.075L41.1143 106.952L40.5245 91.7071Z" fill="white"/>
<path d="M107.133 7.04432C97.6213 7.16075 89.9804 14.9269 90.0749 24.4231L90.5218 90.3142C90.5811 99.4876 98.0929 106.881 107.298 106.778L125.168 106.585L124.606 24.2027C124.537 14.625 116.705 6.93718 107.133 7.04432Z" fill="white"/>
<path d="M106.434 11.584C104.257 11.6799 102.527 13.5269 102.573 15.7168L102.843 30.9133C102.88 33.029 104.618 34.6801 106.725 34.5894L110.816 34.4152L110.478 15.4152C110.437 13.2064 108.625 11.4898 106.434 11.584Z" fill="#100550"/>
<path d="M63.45 40.0352C53.9454 40.4237 46.5297 48.4053 46.8959 57.8949L48.0614 91.1122C48.3832 100.28 56.1035 107.456 65.3015 107.09L83.159 106.385L81.3844 56.6716C81.0632 47.1148 73.0144 39.6542 63.45 40.0352Z" fill="white"/>
</svg>
