<svg width="16" height="16" viewBox="0 0 16 16" fill="none" xmlns="http://www.w3.org/2000/svg">
<path d="M1.33301 8.00008C1.33301 7.2637 1.92996 6.66675 2.66634 6.66675C3.77091 6.66675 4.66634 7.56218 4.66634 8.66675V11.3334C4.66634 12.438 3.77091 13.3334 2.66634 13.3334C1.92996 13.3334 1.33301 12.7365 1.33301 12.0001V8.00008Z" fill="white"/>
<path d="M10.3185 4.87084L10.141 5.44423C9.9955 5.91407 9.92276 6.14899 9.9787 6.33453C10.024 6.48463 10.1233 6.61401 10.2587 6.69914C10.426 6.80436 10.6792 6.80436 11.1854 6.80436H11.4548C13.1681 6.80436 14.0248 6.80436 14.4295 7.31153C14.4757 7.3695 14.5168 7.43113 14.5524 7.49578C14.8637 8.06143 14.5098 8.82342 13.802 10.3474C13.1525 11.7459 12.8277 12.4452 12.2247 12.8568C12.1663 12.8966 12.1063 12.9342 12.0449 12.9694C11.41 13.3333 10.6235 13.3333 9.05029 13.3333H8.70908C6.80316 13.3333 5.8502 13.3333 5.25811 12.7596C4.66602 12.186 4.66602 11.2626 4.66602 9.41595V8.76689C4.66602 7.79642 4.66602 7.31119 4.83824 6.86706C5.01047 6.42294 5.34025 6.05776 5.99981 5.32741L8.72743 2.30704C8.79583 2.23129 8.83004 2.19341 8.8602 2.16717C9.14171 1.92219 9.57617 1.94976 9.82229 2.22823C9.84865 2.25806 9.87747 2.29994 9.93509 2.38369C10.0252 2.5147 10.0703 2.5802 10.1096 2.6451C10.4612 3.22609 10.5676 3.91624 10.4065 4.57143C10.3886 4.64461 10.3652 4.72006 10.3185 4.87084Z" fill="#66C61C"/>
<path d="M1.33301 8.00008C1.33301 7.2637 1.92996 6.66675 2.66634 6.66675C3.77091 6.66675 4.66634 7.56218 4.66634 8.66675V11.3334C4.66634 12.438 3.77091 13.3334 2.66634 13.3334C1.92996 13.3334 1.33301 12.7365 1.33301 12.0001V8.00008Z" stroke="#101828" stroke-width="1.2" stroke-linecap="round" stroke-linejoin="round"/>
<path d="M10.3185 4.87084L10.141 5.44423C9.9955 5.91407 9.92276 6.149 9.9787 6.33453C10.024 6.48463 10.1233 6.61401 10.2587 6.69914C10.426 6.80436 10.6792 6.80436 11.1854 6.80436H11.4548C13.1681 6.80436 14.0248 6.80436 14.4295 7.31153C14.4757 7.3695 14.5168 7.43113 14.5524 7.49578C14.8637 8.06143 14.5098 8.82342 13.802 10.3474C13.1525 11.7459 12.8277 12.4452 12.2247 12.8568C12.1663 12.8966 12.1063 12.9342 12.0449 12.9694C11.41 13.3333 10.6235 13.3333 9.05029 13.3333H8.70908C6.80316 13.3333 5.8502 13.3333 5.25811 12.7596C4.66602 12.186 4.66602 11.2626 4.66602 9.41595V8.76689C4.66602 7.79642 4.66602 7.31119 4.83824 6.86706C5.01047 6.42294 5.34025 6.05776 5.99981 5.32741L8.72743 2.30704C8.79583 2.23129 8.83004 2.19341 8.8602 2.16717C9.14171 1.92219 9.57617 1.94976 9.82229 2.22823C9.84865 2.25806 9.87747 2.29994 9.93509 2.38369C10.0252 2.5147 10.0703 2.5802 10.1096 2.6451C10.4612 3.22609 10.5676 3.91624 10.4066 4.57143C10.3886 4.64461 10.3652 4.72006 10.3185 4.87084Z" stroke="#101828" stroke-width="1.2" stroke-linecap="round" stroke-linejoin="round"/>
</svg>
