<svg width="25" height="25" viewBox="0 0 25 25" fill="none" xmlns="http://www.w3.org/2000/svg">
<path d="M22.5 9.37895C22.4331 7.83687 22.2456 6.83298 21.7203 6.03884C21.4181 5.58196 21.0428 5.18459 20.6112 4.86468C19.4447 4 17.799 4 14.5078 4H10.4931C7.20178 4 5.55614 4 4.38962 4.86468C3.95805 5.18459 3.58267 5.58196 3.28047 6.03884C2.75526 6.83289 2.56776 7.83665 2.50083 9.37843C2.48938 9.64208 2.71648 9.84375 2.96531 9.84375C4.35109 9.84375 5.47449 11.033 5.47449 12.5C5.47449 13.967 4.35109 15.1562 2.96531 15.1562C2.71648 15.1562 2.48938 15.3579 2.50083 15.6216C2.56776 17.1634 2.75526 18.1671 3.28047 18.9612C3.58267 19.418 3.95805 19.8154 4.38962 20.1353C5.55614 21 7.20178 21 10.4931 21H14.5078C17.799 21 19.4447 21 20.6112 20.1353C21.0428 19.8154 21.4181 19.418 21.7203 18.9612C22.2456 18.167 22.4331 17.1631 22.5 15.6211V9.37895Z" fill="#FAC515"/>
<path d="M22.5 9.37895C22.4331 7.83687 22.2456 6.83298 21.7203 6.03884C21.4181 5.58196 21.0428 5.18459 20.6112 4.86468C19.4447 4 17.799 4 14.5078 4H10.4931C7.20178 4 5.55614 4 4.38962 4.86468C3.95805 5.18459 3.58267 5.58196 3.28047 6.03884C2.75526 6.83289 2.56776 7.83665 2.50083 9.37843C2.48938 9.64208 2.71648 9.84375 2.96531 9.84375C4.35109 9.84375 5.47449 11.033 5.47449 12.5C5.47449 13.967 4.35109 15.1562 2.96531 15.1562C2.71648 15.1562 2.48938 15.3579 2.50083 15.6216C2.56776 17.1634 2.75526 18.1671 3.28047 18.9612C3.58267 19.418 3.95805 19.8154 4.38962 20.1353C5.55614 21 7.20178 21 10.4931 21H14.5078C17.799 21 19.4447 21 20.6112 20.1353C21.0428 19.8154 21.4181 19.418 21.7203 18.9612C22.2456 18.167 22.4331 17.1631 22.5 15.6211V9.37895Z" stroke="#141B34" stroke-width="1.5" stroke-linejoin="round"/>
<path d="M15.5183 9.93335L16.0462 10.998C16.1182 11.1462 16.3102 11.2883 16.4722 11.3155L17.4291 11.4758C18.041 11.5787 18.185 12.0263 17.744 12.4678L17.0001 13.2179C16.8741 13.3449 16.8051 13.5899 16.8441 13.7653L17.0571 14.6938C17.2251 15.4288 16.8381 15.7131 16.1932 15.329L15.2963 14.7937C15.1343 14.6969 14.8674 14.6969 14.7024 14.7937L13.8055 15.329C13.1636 15.7131 12.7736 15.4258 12.9416 14.6938L13.1546 13.7653C13.1935 13.5899 13.1246 13.3449 12.9986 13.2179L12.2547 12.4678C11.8167 12.0263 11.9577 11.5787 12.5696 11.4758L13.5265 11.3155C13.6855 11.2883 13.8775 11.1462 13.9495 10.998L14.4774 9.93335C14.7654 9.35568 15.2333 9.35568 15.5183 9.93335Z" fill="white"/>
<path d="M15.5183 9.93335L16.0462 10.998C16.1182 11.1462 16.3102 11.2883 16.4722 11.3155L17.4291 11.4758C18.041 11.5787 18.185 12.0263 17.744 12.4678L17.0001 13.2179C16.8741 13.3449 16.8051 13.5899 16.8441 13.7653L17.0571 14.6938C17.2251 15.4288 16.8381 15.7131 16.1932 15.329L15.2963 14.7937C15.1343 14.6969 14.8674 14.6969 14.7024 14.7937L13.8055 15.329C13.1636 15.7131 12.7736 15.4258 12.9416 14.6938L13.1546 13.7653C13.1935 13.5899 13.1246 13.3449 12.9986 13.2179L12.2547 12.4678C11.8167 12.0263 11.9577 11.5787 12.5696 11.4758L13.5265 11.3155C13.6855 11.2883 13.8775 11.1462 13.9495 10.998L14.4774 9.93335C14.7654 9.35568 15.2333 9.35568 15.5183 9.93335Z" stroke="#141B34" stroke-width="1.5" stroke-linecap="round" stroke-linejoin="round"/>
<path d="M8.5 17.5L8.5 21" stroke="#141B34" stroke-width="1.5" stroke-linecap="round" stroke-linejoin="round"/>
<path d="M8.5 4V7.5" stroke="#141B34" stroke-width="1.5" stroke-linecap="round" stroke-linejoin="round"/>
</svg>
