<svg width="16" height="16" viewBox="0 0 16 16" fill="none" xmlns="http://www.w3.org/2000/svg">
<path d="M6.66178 2.33325H9.33824C11.5324 2.33325 12.6295 2.33325 13.4072 2.9097C13.6949 3.12298 13.9452 3.38789 14.1466 3.69248C14.4968 4.22184 14.6218 4.89102 14.6664 5.91887C14.674 6.09464 14.5226 6.22909 14.3567 6.22909C13.4329 6.22909 12.6839 7.02191 12.6839 7.99992C12.6839 8.97792 13.4329 9.77075 14.3567 9.77075C14.5226 9.77075 14.674 9.9052 14.6664 10.081C14.6218 11.1088 14.4968 11.778 14.1466 12.3074C13.9452 12.6119 13.6949 12.8769 13.4072 13.0901C12.6295 13.6666 11.5324 13.6666 9.33824 13.6666H6.66177C6.42916 13.6666 6.20888 13.6666 6 13.6659V2.33394C6.20888 2.33325 6.42916 2.33325 6.66178 2.33325Z" fill="#F04438"/>
<path d="M1.33328 5.91975C1.37789 4.8917 1.50288 4.22244 1.85306 3.69301C2.05453 3.38843 2.30478 3.12351 2.5925 2.91024C3.28773 2.3949 4.23824 2.34026 5.99967 2.33447V13.6664C4.23824 13.6606 3.28773 13.606 2.5925 13.0907C2.30478 12.8774 2.05453 12.6125 1.85306 12.3079C1.50288 11.7785 1.37789 11.1092 1.33328 10.0812C1.32567 9.90559 1.47687 9.77129 1.64256 9.77129C2.56642 9.77129 3.31535 8.97846 3.31535 8.00045C3.31535 7.02245 2.56642 6.22962 1.64256 6.22962C1.47687 6.22962 1.32567 6.09531 1.33328 5.91975Z" fill="white"/>
<path d="M1.64256 6.22909C1.47687 6.22909 1.32567 6.09478 1.33328 5.91922C1.37789 4.89117 1.50288 4.2219 1.85306 3.69248C2.05453 3.38789 2.30478 3.12298 2.5925 2.9097C3.37017 2.33325 4.46727 2.33325 6.66145 2.33325H9.33791C11.5321 2.33325 12.6292 2.33325 13.4069 2.9097C13.6946 3.12298 13.9448 3.38789 14.1463 3.69248C14.4964 4.22184 14.6214 4.89102 14.6661 5.91887C14.6737 6.09464 14.5223 6.22909 14.3564 6.22909C13.4326 6.22909 12.6836 7.02191 12.6836 7.99992C12.6836 8.97792 13.4326 9.77075 14.3564 9.77075C14.5223 9.77075 14.6737 9.9052 14.6661 10.081C14.6214 11.1088 14.4964 11.778 14.1463 12.3074C13.9448 12.6119 13.6946 12.8769 13.4069 13.0901C12.6292 13.6666 11.5321 13.6666 9.33791 13.6666H6.66145C4.46727 13.6666 3.37017 13.6666 2.5925 13.0901C2.30478 12.8769 2.05453 12.6119 1.85306 12.3074C1.50288 11.7779 1.37789 11.1087 1.33328 10.0806C1.32567 9.90506 1.47687 9.77075 1.64256 9.77075C2.56642 9.77075 3.31535 8.97792 3.31535 7.99992C3.31535 7.02191 2.56642 6.22909 1.64256 6.22909Z" stroke="#101828" stroke-width="1.2" stroke-linejoin="round"/>
<path d="M6 2.33325L6 13.6666" stroke="#101828" stroke-width="1.2" stroke-linecap="round" stroke-linejoin="round"/>
</svg>
