<svg width="12" height="13" viewBox="0 0 12 13" fill="none" xmlns="http://www.w3.org/2000/svg">
<path d="M11 7V6H8.65C8.27774 6 8.09162 6 7.94098 5.95106C7.63655 5.85214 7.39786 5.61346 7.29894 5.30902C7.25 5.15838 7.25 4.97226 7.25 4.6C7.25 4.04162 7.25 3.76242 7.17658 3.53647C7.02821 3.07982 6.67018 2.72179 6.21353 2.57342C5.98758 2.5 5.70838 2.5 5.15 2.5H1L1.01378 8C1.04111 8.54836 1.12268 8.89045 1.36612 9.13388C1.60955 9.37732 1.95164 9.45889 2.5 9.48622L4.5 9.5H7.5L9.5 9.48622C10.0484 9.45889 10.3904 9.37732 10.6339 9.13388C11 8.76777 11 8.17851 11 7Z" fill="#66C61C"/>
<path d="M2.5 9.48622C1.95164 9.45889 1.60955 9.37732 1.36612 9.13388C1.12268 8.89045 1.04111 8.54836 1.01378 8M4.5 9.5H7.5M9.5 9.48622C10.0484 9.45889 10.3904 9.37732 10.6339 9.13388C11 8.76777 11 8.17851 11 7V6H8.65C8.27774 6 8.09162 6 7.94098 5.95106C7.63655 5.85214 7.39786 5.61346 7.29894 5.30902C7.25 5.15838 7.25 4.97226 7.25 4.6C7.25 4.04162 7.25 3.76242 7.17658 3.53647C7.02821 3.07982 6.67018 2.72179 6.21353 2.57342C5.98758 2.5 5.70838 2.5 5.15 2.5H1" stroke="#101828" stroke-linecap="round" stroke-linejoin="round"/>
<circle cx="8.5" cy="9.5" r="1" fill="white"/>
<circle cx="8.5" cy="9.5" r="1" stroke="#101828"/>
<circle cx="3.5" cy="9.5" r="1" fill="white"/>
<circle cx="3.5" cy="9.5" r="1" stroke="#101828"/>
<path d="M1 4.5L4 4.5" stroke="#101828" stroke-linecap="round" stroke-linejoin="round"/>
<path d="M1 6L3 6" stroke="#101828" stroke-linecap="round" stroke-linejoin="round"/>
<path d="M7.25 3.5H8.16061C8.88828 3.5 9.25212 3.5 9.54821 3.67685C9.84431 3.85371 10.0168 4.17406 10.3618 4.81475L11 6" stroke="#101828" stroke-linecap="round" stroke-linejoin="round"/>
</svg>
