<svg width="20" height="20" viewBox="0 0 20 20" fill="none" xmlns="http://www.w3.org/2000/svg">
<path d="M18.3333 8.33366H1.66663M9.16663 11.667H4.99996M1.66663 6.83366L1.66663 13.167C1.66663 14.1004 1.66663 14.5671 1.84828 14.9236C2.00807 15.2372 2.26304 15.4922 2.57664 15.652C2.93316 15.8337 3.39987 15.8337 4.33329 15.8337L15.6666 15.8337C16.6 15.8337 17.0668 15.8337 17.4233 15.652C17.7369 15.4922 17.9919 15.2372 18.1516 14.9236C18.3333 14.5671 18.3333 14.1004 18.3333 13.167V6.83366C18.3333 5.90024 18.3333 5.43353 18.1516 5.07701C17.9919 4.76341 17.7369 4.50844 17.4233 4.34865C17.0668 4.16699 16.6 4.16699 15.6666 4.16699L4.33329 4.16699C3.39987 4.16699 2.93316 4.16699 2.57664 4.34865C2.26304 4.50844 2.00807 4.7634 1.84828 5.07701C1.66663 5.43353 1.66663 5.90024 1.66663 6.83366Z" stroke="#667085" stroke-width="1.5" stroke-linecap="round" stroke-linejoin="round"/>
</svg>
